<svg width="212" height="220" viewBox="0 0 212 220" fill="none" xmlns="http://www.w3.org/2000/svg">
<g clip-path="url(#clip0)">
<path d="M88.1865 127.345C88.1874 125.589 87.7402 123.861 86.8874 122.326C86.0345 120.791 84.8042 119.498 83.3127 118.571C82.5211 118.084 81.8981 117.365 81.5279 116.512C81.1577 115.659 81.0582 114.713 81.2428 113.802C81.6667 111.811 81.2884 109.734 80.1899 108.021C79.0914 106.307 77.3615 105.097 75.376 104.652C74.9346 104.554 74.5444 104.297 74.2789 103.931C74.0134 103.564 73.8908 103.114 73.9341 102.663C73.9774 102.285 73.981 101.904 73.9449 101.525C73.6669 99.3903 72.4637 98.2247 70.7301 97.2735C70.2978 97.0356 69.9572 96.6601 69.7624 96.2066C69.5676 95.7531 69.5295 95.2476 69.6544 94.7701C69.7811 94.2725 69.8511 93.7623 69.8633 93.249C69.9677 89.314 67.8489 87.6857 66.3772 86.9638C66.0219 86.7849 65.7086 86.5326 65.4579 86.2236C65.2073 85.9146 65.025 85.556 64.923 85.1714C64.6366 84.108 63.9877 83.1782 63.0884 82.5428C62.1892 81.9075 61.0962 81.6065 59.9986 81.692C58.901 81.7775 57.8677 82.244 57.0777 83.011C56.2876 83.7779 55.7903 84.797 55.6719 85.8919C55.6719 85.9095 55.6719 85.9272 55.6719 85.9448C55.636 86.316 55.4583 86.659 55.1757 86.9022C54.8932 87.1454 54.5276 87.27 54.1553 87.2501C53.2814 87.207 52.4088 87.3592 51.6012 87.6959C50.7935 88.0326 50.071 88.5451 49.4863 89.1963C48.9016 89.8475 48.4694 90.6209 48.2211 91.4602C47.9729 92.2995 47.9148 93.1836 48.0512 94.0482C48.1293 94.5327 48.0641 95.0295 47.8636 95.4775C47.663 95.9254 47.336 96.3049 46.9226 96.5693C45.2929 97.6002 44.0522 99.1439 43.3958 100.958C43.2677 101.307 43.0578 101.62 42.7839 101.872C42.5099 102.124 42.1797 102.306 41.8209 102.404C40.7976 102.69 39.8448 103.185 39.0229 103.858C38.2011 104.532 37.5281 105.369 37.0468 106.316C36.5654 107.264 36.2862 108.301 36.2268 109.362C36.1674 110.423 36.3291 111.485 36.7016 112.48C36.9355 113.101 36.9185 113.788 36.654 114.396C36.3896 115.004 35.8987 115.485 35.2855 115.737C34.0676 116.244 32.9687 117 32.0591 117.956C31.1495 118.912 30.449 120.047 30.0023 121.289C29.5556 122.531 29.3725 123.852 29.4647 125.169C29.5569 126.485 29.9224 127.768 30.5378 128.935C31.0586 129.905 31.2414 131.021 31.0571 132.106C30.8728 133.191 30.3321 134.184 29.5205 134.927C28.3022 136.025 27.3285 137.367 26.6627 138.866C25.9969 140.365 25.6538 141.988 25.6559 143.628V147.901H89.1768V143.635C89.1768 141.905 88.0834 140.261 86.7921 138.784C85.3786 137.177 85.2864 134.834 86.4638 133.055C87.5893 131.364 88.1887 129.377 88.1865 127.345Z" fill="url(#paint0_linear)"/>
<path d="M111.683 150.729C108.76 149.326 113.842 148.091 115.119 144.579C115.704 142.971 114.509 140.518 115.3 138.401C115.948 136.664 118.547 135.35 119.31 133.359C119.996 131.572 118.842 129.116 119.604 127.184C120.319 125.368 122.941 124.098 123.71 122.204C124.455 120.371 123.353 117.897 124.136 116.034C124.919 114.171 127.565 112.972 128.368 111.137C129.182 109.28 128.156 106.78 128.985 104.979C129.845 103.111 132.543 101.978 133.406 100.22C134.328 98.3375 133.44 95.7933 134.356 94.0931C135.377 92.1934 138.154 91.2273 139.141 89.6303C140.353 87.6668 140.042 85.1416 140.936 83.6599C142.379 81.2623 144.155 80.3301 146.661 80.3301C148.985 80.3301 151.036 81.2243 152.486 83.7047C153.357 85.1973 153.132 87.7062 154.304 89.6818C155.253 91.2884 158.012 92.2857 158.993 94.1989C159.868 95.9073 158.925 98.4311 159.807 100.32C160.632 102.084 163.304 103.256 164.123 105.13C164.913 106.938 163.834 109.415 164.608 111.278C165.37 113.118 167.999 114.371 168.73 116.224C169.461 118.078 168.323 120.542 169.023 122.38C169.751 124.28 172.344 125.588 173.02 127.409C173.739 129.347 172.532 131.777 173.179 133.569C173.898 135.565 176.466 136.917 177.076 138.658C177.821 140.781 176.574 143.207 177.124 144.819C178.323 148.341 183.364 149.634 180.431 151.001C178.125 152.087 177.365 149.318 174.757 149.307C172.148 149.296 172.14 151.071 169.533 151.062C166.926 151.054 166.934 149.277 164.325 149.266C161.717 149.255 161.709 151.03 159.102 151.022C156.495 151.014 156.503 149.235 153.894 149.225C151.286 149.216 151.279 150.989 148.67 150.981C146.062 150.973 146.071 149.194 143.464 149.185C140.857 149.175 140.846 150.949 138.239 150.939C135.632 150.93 135.639 149.153 133.032 149.142C130.425 149.132 130.414 150.906 127.807 150.898C125.199 150.89 125.206 149.113 122.598 149.102C119.989 149.091 120.145 150.29 117.609 150.833C114.695 151.453 113.98 151.83 111.683 150.729Z" fill="#56BFF0"/>
<path d="M92.0783 144.067C92.0774 145.469 92.5926 146.821 93.5257 147.867H110.921C111.543 147.134 111.98 146.263 112.197 145.327C112.413 144.391 112.401 143.417 112.163 142.486C111.925 141.555 111.468 140.694 110.829 139.977C110.19 139.259 109.389 138.705 108.492 138.361C108.501 138.218 108.507 138.068 108.507 137.92C108.507 136.314 107.869 134.773 106.733 133.637C105.597 132.501 104.057 131.863 102.451 131.863C100.845 131.863 99.3051 132.501 98.1695 133.637C97.0339 134.773 96.396 136.314 96.396 137.92C96.396 138.12 96.4055 138.317 96.4244 138.511C95.1842 138.819 94.0827 139.534 93.2951 140.541C92.5076 141.547 92.0793 142.789 92.0783 144.067Z" fill="#694EDB"/>
<path d="M142.936 114.692C142.936 114.692 144.934 133.8 145.711 147.908H132.94L130.164 122.691L129.942 123.025L128.017 147.908H115.284L113.839 123.135L142.936 114.692Z" fill="#171733"/>
<path d="M150.292 103.391L152.623 102.64C152.623 102.64 154.512 106.032 155.122 109.805C155.732 113.577 154.678 114.999 153.707 115.387C152.736 115.775 150.292 103.391 150.292 103.391Z" fill="#F0C3A8"/>
<path style="mix-blend-mode:multiply" opacity="0.72" d="M150.292 103.391L152.623 102.64C152.623 102.64 154.512 106.032 155.122 109.805C155.732 113.577 154.678 114.999 153.707 115.387C152.736 115.775 150.292 103.391 150.292 103.391Z" fill="url(#paint1_linear)"/>
<path d="M121.325 66.3841C118.582 66.7274 117.497 68.1481 117.497 68.1481C117.497 68.1481 111.728 63.8684 113.784 59.9836C115.841 56.0988 119.383 57.7556 121.553 59.3554C123.723 60.9551 123.995 60.7462 126.96 60.5766C129.925 60.407 131.949 62.5753 131.949 65.5971C131.949 68.6189 134.349 71.8063 130.236 75.7494C125.401 80.3886 121.325 66.3841 121.325 66.3841Z" fill="#103FCD"/>
<path d="M132.117 92.7027C131.565 93.5562 130.909 94.43 130.04 95.027C128.656 95.2604 127.297 95.5467 125.999 95.7421C124.727 95.506 123.61 94.928 122.472 94.1451C120.431 92.7312 118.749 90.8709 117.111 88.9712C121.459 86.6536 122.537 87.3429 122.703 85.4568C122.883 83.374 120.551 72.8553 120.551 72.8553L129.775 71.4292C129.775 71.4292 131.89 81.8407 132.469 83.5395C132.821 84.5653 134.2 85.0878 136.132 85.5749C135.048 88.0594 133.598 90.4068 132.117 92.7027Z" fill="#F5CFBF"/>
<path style="mix-blend-mode:multiply" d="M122.618 85.9603C122.66 85.7934 122.689 85.6231 122.702 85.4514C122.882 83.3686 120.551 72.8499 120.551 72.8499L129.775 71.4238C129.775 71.4238 131.889 81.8353 132.469 83.5341C132.569 83.8125 132.738 84.0608 132.96 84.256L122.618 85.9603Z" fill="url(#paint2_linear)"/>
<g style="mix-blend-mode:multiply" opacity="0.58">
<path d="M123.402 82.0156C123.053 82.0783 122.698 82.111 122.343 82.1133C121.665 78.508 120.973 75.147 120.973 75.147L127.213 74.1592C127.62 78.1159 126.344 81.5299 123.402 82.0156Z" fill="#BBC8EB"/>
</g>
<path d="M126.243 72.2009C126.34 72.7922 126.61 73.3414 127.02 73.779C127.429 74.2166 127.959 74.5229 128.542 74.6592C129.126 74.7955 129.736 74.7557 130.297 74.5448C130.858 74.3339 131.344 73.9614 131.693 73.4743C132.042 72.9873 132.239 72.4076 132.259 71.8087C132.278 71.2097 132.12 70.6183 131.804 70.1093C131.488 69.6003 131.028 69.1965 130.482 68.9491C129.936 68.7016 129.33 68.6216 128.738 68.7191C127.946 68.8498 127.238 69.2901 126.77 69.943C126.302 70.596 126.112 71.4081 126.243 72.2009Z" fill="#F0C3A8"/>
<path d="M127.656 71.9676C127.707 72.2793 127.85 72.5689 128.065 72.7997C128.281 73.0304 128.56 73.192 128.868 73.264C129.175 73.3359 129.497 73.315 129.793 73.204C130.089 73.0929 130.345 72.8966 130.529 72.6399C130.713 72.3832 130.817 72.0777 130.827 71.7619C130.838 71.4462 130.754 71.1344 130.588 70.8661C130.421 70.5977 130.179 70.3849 129.891 70.2544C129.603 70.1239 129.284 70.0817 128.972 70.1331C128.554 70.202 128.181 70.4339 127.934 70.7779C127.688 71.1219 127.588 71.5498 127.656 71.9676Z" fill="#F29D9D"/>
<path d="M118.013 73.5022C118.706 77.7086 119.8 81.0194 123.834 80.307C127.388 79.5852 129.915 75.8673 129.222 71.6555C128.529 67.4436 126.32 64.1627 121.78 64.9592C116.323 65.9226 117.319 69.2958 118.013 73.5022Z" fill="#F5CFBF"/>
<path d="M124.25 71.6581C124.486 71.6581 124.677 71.4667 124.677 71.2307C124.677 70.9946 124.486 70.8032 124.25 70.8032C124.014 70.8032 123.823 70.9946 123.823 71.2307C123.823 71.4667 124.014 71.6581 124.25 71.6581Z" fill="black"/>
<path d="M118.466 72.1713C118.478 72.2446 118.512 72.3126 118.563 72.3667C118.614 72.4209 118.679 72.4587 118.752 72.4754C118.824 72.4922 118.9 72.4871 118.969 72.4608C119.039 72.4346 119.099 72.3883 119.142 72.3278C119.185 72.2674 119.21 72.1954 119.212 72.1212C119.214 72.0469 119.195 71.9736 119.155 71.9105C119.116 71.8475 119.059 71.7975 118.991 71.7668C118.924 71.7362 118.848 71.7263 118.775 71.7384C118.726 71.7463 118.68 71.7638 118.638 71.7899C118.596 71.816 118.559 71.8501 118.53 71.8904C118.502 71.9306 118.481 71.9762 118.47 72.0244C118.459 72.0726 118.458 72.1225 118.466 72.1713Z" fill="black"/>
<path d="M119.445 74.475C119.495 74.7751 119.44 75.0833 119.29 75.3477C119.139 75.6121 118.903 75.8167 118.619 75.9269C118.347 75.1398 118.144 74.3302 118.013 73.5076C118.005 73.4628 117.998 73.418 117.991 73.3719C118.329 73.3344 118.668 73.4279 118.938 73.6332C119.209 73.8385 119.39 74.1398 119.445 74.475Z" fill="#F29D9D"/>
<path d="M124.214 73.7C124.257 73.959 124.375 74.1995 124.555 74.3911C124.734 74.5827 124.966 74.7169 125.222 74.7766C125.477 74.8362 125.745 74.8188 125.99 74.7264C126.236 74.634 126.449 74.4709 126.601 74.2576C126.754 74.0443 126.841 73.7904 126.849 73.5281C126.858 73.2658 126.789 73.0068 126.65 72.7839C126.512 72.5609 126.31 72.3841 126.071 72.2757C125.832 72.1673 125.567 72.1322 125.308 72.1749C125.136 72.2032 124.971 72.2651 124.823 72.3571C124.675 72.4491 124.547 72.5693 124.445 72.7109C124.344 72.8526 124.271 73.0128 124.231 73.1825C124.192 73.3522 124.186 73.5281 124.214 73.7Z" fill="#F29D9D"/>
<path d="M121.376 71.3882L120.436 74.1657C120.411 74.2411 120.405 74.3216 120.42 74.3997C120.434 74.4779 120.468 74.5511 120.519 74.6124C120.569 74.6738 120.634 74.7213 120.708 74.7504C120.782 74.7796 120.862 74.7894 120.941 74.7791L122.508 74.5715L121.376 71.3882Z" fill="#F29D9D"/>
<path d="M128.793 69.3179L129.221 71.6612L128.407 71.8431C128.366 71.2555 127.975 69.862 127.84 69.4006L128.793 69.3179Z" fill="#5068E8"/>
<path d="M125.897 69.5261C125.752 69.5261 125.613 69.5017 125.474 69.4881L125.265 69.4745C125.196 69.4745 125.13 69.4596 125.061 69.4623C124.925 69.4623 124.789 69.4528 124.654 69.4623C124.518 69.4718 124.382 69.4772 124.247 69.4867C123.984 69.5179 123.724 69.5724 123.471 69.6496C123.216 69.7301 122.97 69.8365 122.737 69.9671L122.721 69.9766C122.696 69.9902 122.667 69.995 122.64 69.9903C122.612 69.9857 122.587 69.9718 122.568 69.9509C122.549 69.93 122.538 69.9033 122.536 69.8752C122.534 69.8471 122.542 69.8192 122.558 69.7961C122.749 69.5422 123 69.3398 123.289 69.2072C123.571 69.0707 123.875 68.9835 124.187 68.9494C124.342 68.9338 124.497 68.9298 124.652 68.9372C124.806 68.943 124.959 68.9611 125.109 68.9915C125.258 69.0219 125.406 69.0608 125.55 69.1082C125.689 69.1617 125.825 69.2228 125.957 69.2913C125.972 69.2987 125.985 69.3089 125.996 69.3214C126.007 69.3338 126.015 69.3484 126.02 69.364C126.025 69.3797 126.027 69.3962 126.025 69.4127C126.024 69.4291 126.019 69.445 126.011 69.4596C126.001 69.481 125.985 69.4989 125.964 69.511C125.944 69.523 125.92 69.5288 125.896 69.5274L125.897 69.5261Z" fill="#A48F90"/>
<path d="M120.158 70.3721C120.038 70.3843 119.924 70.3829 119.809 70.3843C119.694 70.3856 119.584 70.3938 119.473 70.3924L119.147 70.4114C119.043 70.4277 118.933 70.4291 118.832 70.4521C118.633 70.4807 118.438 70.5369 118.253 70.619C118.164 70.6601 118.078 70.7096 117.998 70.7669C117.918 70.8241 117.844 70.8891 117.777 70.961L117.749 70.9881C117.73 71.0064 117.706 71.0184 117.681 71.0223C117.655 71.0261 117.629 71.0217 117.606 71.0096C117.583 70.9975 117.564 70.9783 117.553 70.9549C117.541 70.9315 117.538 70.9051 117.542 70.8795C117.57 70.7404 117.628 70.6092 117.713 70.4955C117.755 70.4407 117.8 70.3886 117.849 70.3395C117.899 70.2934 117.953 70.2499 118.008 70.2038C118.227 70.049 118.48 69.9493 118.746 69.9134C118.872 69.8925 119 69.8817 119.128 69.8809C119.254 69.8809 119.38 69.8944 119.504 69.9121C119.626 69.9323 119.746 69.9591 119.865 69.9921C119.982 70.031 120.097 70.0763 120.209 70.1278C120.239 70.1435 120.261 70.1694 120.273 70.2007C120.284 70.232 120.284 70.2664 120.272 70.2974C120.262 70.3171 120.247 70.3341 120.229 70.3468C120.211 70.3596 120.19 70.3678 120.169 70.3707L120.158 70.3721Z" fill="#A48F90"/>
<path d="M108.897 107.194C108.897 107.194 108.37 95.4092 111.757 92.3548C115.144 89.3004 118.56 88.1484 119.337 87.7549C120.114 87.3614 121.947 86.588 121.947 86.588C121.947 86.588 123.168 88.759 127.055 88.2543C130.943 87.7495 133.551 84.478 133.551 84.478C133.551 84.478 135.772 85.4781 137.326 85.8105C138.881 86.1429 145.267 86.7603 147.821 90.4769C150.376 94.1934 153.596 103.028 153.596 103.028C153.596 103.028 151.652 104.362 148.098 105.639C144.544 106.916 108.897 107.194 108.897 107.194Z" fill="#246AFC"/>
<path d="M123.767 75.6816C123.849 76.1755 123.25 76.6884 122.428 76.8255C121.606 76.9625 120.872 76.6735 120.789 76.1796C120.707 75.6857 121.446 75.9421 122.268 75.8037C123.09 75.6653 123.683 75.1877 123.767 75.6816Z" fill="white"/>
<path d="M126.833 89.4769C128.791 89.295 131.995 88.6844 134.806 84.9991C134.082 84.7168 133.551 84.478 133.551 84.478C133.551 84.478 130.941 87.7549 127.055 88.2543C123.169 88.7536 121.947 86.588 121.947 86.588C121.947 86.588 121.429 86.8078 120.826 87.0724C122.344 89.3222 124.925 89.6492 126.833 89.4769Z" fill="#3D6ACC"/>
<g style="mix-blend-mode:multiply" opacity="0.58">
<path d="M122.41 65.4501L121.315 65.0566C117.432 66.2602 117.487 68.1477 117.487 69.0188C117.489 69.0242 121.501 67.3959 122.41 65.4501Z" fill="#BBC8EB"/>
</g>
<path d="M127.265 63.4124L119.096 63.1274L116.812 66.384L117.49 68.148C117.645 67.8386 117.706 67.3203 118.239 66.7911C119.07 66.9753 119.934 66.9397 120.746 66.6879C121.153 66.5523 121.953 65.848 122.401 65.441C123.464 65.5007 124.46 65.8589 124.783 66.4315C126.116 68.7939 127.077 67.3813 127.828 69.3963L128.787 69.3081L127.265 63.4124Z" fill="#103FCD"/>
<path d="M92.3084 76.7073C93.863 75.7574 94.3988 73.2635 93.6039 72.0043C93.0097 71.0653 91.6261 70.798 91.5312 69.8563C91.3453 68.0421 88.939 66.3026 86.8297 66.9308C84.1167 67.745 83.0682 66.5685 81.888 64.8575C80.6184 63.0189 79.9442 61.1938 75.5574 61.1938C71.1705 61.1938 70.0053 60.476 69.5618 58.305C69.1182 56.134 65.5073 53.8069 61.4541 55.6943C57.401 57.5818 55.9021 59.358 53.6259 58.0268C51.3497 56.6957 49.1278 54.8612 46.5723 56.75C44.0167 58.6388 45.0177 63.3595 47.85 63.8059C50.6824 64.2523 48.6829 67.3596 47.572 69.2484C46.461 71.1372 48.0155 74.581 51.792 73.969C55.5684 73.3571 56.1788 74.5254 57.0117 76.5797C57.8445 78.6341 60.898 79.0791 62.5637 78.246C64.2295 77.4129 66.1733 76.8579 68.0601 78.5242C69.947 80.1904 70.5018 81.1348 73.1686 80.5242C75.8354 79.9136 76.26 80.375 77.5365 81.375C78.8129 82.375 81.831 81.8011 81.831 81.8011L92.3084 76.7073Z" fill="#246AFC"/>
<g style="mix-blend-mode:multiply" opacity="0.36">
<path d="M85.8608 79.3693L86.4238 77.2254L78.9455 75.6731C75.2437 73.2307 74.282 73.6731 71.5419 73.8956C68.8018 74.1181 69.6917 71.0814 67.1008 69.6743C64.5099 68.2672 63.5468 70.6363 61.0292 70.118C58.5116 69.5997 59.6972 67.2305 56.4403 66.8614C53.3638 66.5114 52.596 68.7353 48.3435 67.9239C48.083 68.3961 47.809 68.8506 47.5744 69.2496C46.4634 71.1384 48.0179 74.5822 51.7943 73.9702C55.5708 73.3583 56.1812 74.5266 57.0141 76.5809C57.8469 78.6352 60.9004 79.0803 62.5661 78.2472C64.2319 77.414 66.1757 76.8591 68.0625 78.5253C69.9494 80.1916 70.5042 81.136 73.171 80.5254C75.8378 79.9148 76.1878 80.2282 77.4656 81.2283C78.7434 82.2283 81.611 82.0424 81.611 82.0424L85.8608 79.3693Z" fill="#3D6ACC"/>
</g>
<path d="M85.7991 93.8249C85.6539 91.7678 88.0671 80.9072 88.0671 80.9072L79.4481 79.5503C79.4481 79.5503 77.2397 90.3037 76.6768 91.9836C76.1139 93.6634 72.9329 93.9918 69.128 95.0773C68.5664 95.2445 68.0268 95.4781 67.5206 95.7734C67.8339 97.1303 68.4213 98.4451 69.0304 99.688C69.6977 101.045 70.4248 102.387 71.08 103.759C74.4902 106.14 78.0197 105.448 81.6713 105.992C82.9017 106.174 86.3037 104.407 87.3685 104.658C89.2052 102.32 89.92 100.082 91.4542 97.5333C87.0253 94.9416 85.9334 95.7557 85.7991 93.8249Z" fill="#F5CFBF"/>
<path style="mix-blend-mode:multiply" d="M85.8699 94.3269C85.833 94.1617 85.8094 93.9938 85.7993 93.8249C85.6542 91.7678 88.0673 80.9072 88.0673 80.9072L79.4483 79.5503C79.4483 79.5503 77.24 90.3037 76.677 91.9836C76.582 92.2567 76.4213 92.5023 76.209 92.6986L85.8699 94.3269Z" fill="url(#paint3_linear)"/>
<g style="mix-blend-mode:multiply" opacity="0.58">
<path d="M80.8332 83.1133C81.0869 84.7103 82.4461 89.2193 86.2591 90.0619C86.6037 88.1514 86.9997 86.127 87.3334 84.458L80.8332 83.1133Z" fill="#BBC8EB"/>
</g>
<path d="M81.7763 80.7851C83.3589 80.3035 84.2515 78.6298 83.7701 77.0468C83.2887 75.4637 81.6155 74.5708 80.033 75.0524C78.4504 75.5339 77.5578 77.2076 78.0392 78.7907C78.5206 80.3737 80.1938 81.2666 81.7763 80.7851Z" fill="#F0C3A8"/>
<path d="M82.0311 79.0276C82.6429 78.4061 82.6352 77.4061 82.0139 76.794C81.3926 76.182 80.3929 76.1896 79.781 76.8112C79.1692 77.4327 79.1768 78.4327 79.7982 79.0447C80.4195 79.6568 81.4192 79.6491 82.0311 79.0276Z" fill="#F29D9D"/>
<path d="M91.5356 81.7157C90.091 85.6833 87.7646 88.4514 83.7576 86.9642C81.4624 86.1121 79.5349 81.8392 80.9782 77.873C82.4214 73.9067 84.1279 71.2594 88.9393 72.6353C93.6042 73.9664 92.9748 77.7481 91.5356 81.7157Z" fill="#F5CFBF"/>
<path d="M85.6502 78.6845C85.6235 78.7582 85.5756 78.8223 85.5125 78.8687C85.4494 78.9152 85.3739 78.9418 85.2956 78.9454C85.2174 78.9489 85.1398 78.9291 85.0728 78.8885C85.0058 78.848 84.9523 78.7884 84.919 78.7175C84.8858 78.6465 84.8744 78.5672 84.8862 78.4898C84.8981 78.4123 84.9326 78.3401 84.9854 78.2822C85.0383 78.2244 85.1071 78.1835 85.1832 78.1648C85.2593 78.1461 85.3392 78.1503 85.4128 78.177C85.5116 78.2129 85.5921 78.2864 85.6366 78.3816C85.6811 78.4768 85.686 78.5857 85.6502 78.6845Z" fill="black"/>
<path d="M91.1931 80.5586C91.1665 80.6314 91.1189 80.6947 91.0564 80.7404C90.9939 80.7862 90.9192 80.8124 90.8417 80.8157C90.7643 80.819 90.6877 80.7993 90.6214 80.7591C90.5552 80.7188 90.5024 80.6599 90.4697 80.5896C90.4369 80.5194 90.4257 80.441 90.4375 80.3644C90.4492 80.2878 90.4834 80.2164 90.5357 80.1592C90.588 80.102 90.6561 80.0616 90.7313 80.0431C90.8066 80.0246 90.8856 80.0288 90.9585 80.0552C91.0562 80.091 91.1358 80.164 91.1797 80.2584C91.2237 80.3528 91.2285 80.4607 91.1931 80.5586Z" fill="black"/>
<path d="M91.5368 81.683C91.3945 81.5444 91.2226 81.44 91.0341 81.3775C90.8456 81.3151 90.6453 81.2963 90.4484 81.3225C90.2516 81.3488 90.0632 81.4194 89.8976 81.5291C89.7321 81.6388 89.5935 81.7846 89.4925 81.9557C89.3915 82.1267 89.3306 82.3185 89.3144 82.5165C89.2983 82.7145 89.3273 82.9136 89.3993 83.0988C89.4713 83.2839 89.5843 83.4503 89.73 83.5854C89.8756 83.7204 90.05 83.8207 90.24 83.8785C90.3427 83.9098 90.4489 83.928 90.5561 83.9328C90.9673 83.2336 91.2938 82.4879 91.5287 81.7115L91.5368 81.683Z" fill="#F29D9D"/>
<path d="M85.2782 80.3454C85.2875 79.6208 84.7079 79.0258 83.9835 79.0165C83.2591 79.0071 82.6643 79.5869 82.655 80.3115C82.6456 81.0361 83.2253 81.6311 83.9496 81.6405C84.674 81.6498 85.2688 81.07 85.2782 80.3454Z" fill="#F29D9D"/>
<path d="M87.9382 79.6152L88.3709 81.8311C88.3825 81.8912 88.3786 81.9534 88.3595 82.0116C88.3404 82.0699 88.3069 82.1223 88.2619 82.164C88.217 82.2057 88.1622 82.2352 88.1027 82.2498C88.0432 82.2645 87.981 82.2637 87.9219 82.2476L86.7485 81.9274L87.9382 79.6152Z" fill="#F29D9D"/>
<path d="M88.2278 83.5246C88.1789 83.7186 87.3976 83.9154 86.6 83.6698C85.8024 83.4242 85.2747 82.8706 85.3317 82.6331C85.4009 82.3509 85.9109 83.0823 86.7112 83.3279C87.5116 83.5734 88.3051 83.2315 88.2278 83.5246Z" fill="#EB7373"/>
<path d="M79.9727 79.8798C79.9553 79.9264 79.9245 79.9669 79.8841 79.996C79.8437 80.0252 79.7957 80.0418 79.7459 80.0437C79.6962 80.0455 79.6469 80.0327 79.6045 80.0066C79.562 79.9806 79.5282 79.9426 79.5073 79.8974C79.4864 79.8522 79.4794 79.8018 79.487 79.7526C79.4947 79.7034 79.5168 79.6575 79.5504 79.6208C79.5841 79.5841 79.6278 79.5582 79.6762 79.5463C79.7245 79.5345 79.7753 79.5372 79.8221 79.5541C79.8853 79.5773 79.9366 79.6247 79.9648 79.6857C79.9931 79.7468 79.9959 79.8166 79.9727 79.8798Z" fill="#ECD25E"/>
<g style="mix-blend-mode:multiply" opacity="0.58">
<path d="M77.9883 77.1656C80.2102 78.5537 81.8515 77.9988 83.0737 77.5551C84.2959 77.1114 84.6838 74.0448 86.4052 73.8276C88.1265 73.6105 88.3042 74.9702 90.1341 74.8277C92.2719 74.6608 92.5134 76.2158 92.5134 76.2158C92.5134 76.2158 92.6328 74.4111 89.8004 72.8005C86.9681 71.1898 83.6827 70.6064 81.5734 72.1614C80.8816 72.6716 80.9535 74.1248 80.1939 74.6038C78.3084 75.7992 77.9883 77.1656 77.9883 77.1656Z" fill="#BBC8EB"/>
</g>
<path d="M78.6033 75.4385C80.8238 76.8266 81.7164 77.2716 82.9372 76.8266C84.1581 76.3815 84.5474 73.3285 86.2687 73.106C87.9901 72.8834 88.0986 74.2797 89.9312 74.3828C91.894 74.4941 92.3728 75.4941 92.3728 75.4941C92.3728 75.4941 93.5937 73.2729 90.7627 71.6622C87.9318 70.0516 83.5449 69.8847 81.4343 71.4397C79.3236 72.9947 78.6033 75.4385 78.6033 75.4385Z" fill="#246AFC"/>
<path d="M95.5531 147.907H57.2409C57.2409 147.907 62.6465 125.471 68.1985 114.285C73.6407 115.642 81.728 115.989 87.1511 114.507C87.1511 114.507 95.1842 135.539 95.5531 147.907Z" fill="#E34998"/>
<path d="M90.7049 109.694C90.4661 111.702 87.1509 114.508 87.1509 114.508C81.725 115.99 73.6405 115.637 68.1983 114.286C68.1983 114.286 67.5689 109.401 66.3847 106.658C66.1154 105.014 65.3539 103.49 64.2008 102.288C63.1061 101.151 62.3668 100.847 61.9341 100.795C61.8956 100.791 61.859 100.777 61.8281 100.754C61.7971 100.731 61.773 100.7 61.7583 100.664C61.7435 100.628 61.7387 100.589 61.7444 100.551C61.75 100.513 61.7659 100.477 61.7903 100.447C62.4617 99.6325 63.825 98.03 65.0892 97.0869C66.3535 96.1439 68.182 95.1954 69.1383 94.8969C69.172 94.8865 69.2075 94.8836 69.2424 94.8886C69.2772 94.8936 69.3106 94.9064 69.3399 94.9258C69.3693 94.9453 69.3939 94.9711 69.4121 95.0013C69.4302 95.0315 69.4414 95.0654 69.4449 95.1004C69.59 96.5523 70.4378 103.255 73.7503 104.192C77.4711 105.247 87.9648 103.858 87.9648 103.858C87.9648 103.858 91.0766 106.584 90.7049 109.694Z" fill="#0D1D7E"/>
<path d="M61.9338 100.795C62.3665 100.847 63.1058 101.152 64.2005 102.288C65.3537 103.489 66.1153 105.013 66.3844 106.657C66.4292 106.761 66.4739 106.869 66.52 106.978C66.7357 106.749 66.965 106.497 67.1983 106.221C68.7257 104.444 67.4696 102.157 66.5879 101.336C65.4917 100.311 64.096 99.6638 62.6053 99.4897C62.2811 99.8575 62.0016 100.191 61.7914 100.448C61.7674 100.478 61.7518 100.513 61.7463 100.551C61.7408 100.589 61.7455 100.628 61.7601 100.663C61.7746 100.699 61.7984 100.73 61.829 100.753C61.8595 100.776 61.8957 100.791 61.9338 100.795Z" fill="#3D6ACC"/>
<g style="mix-blend-mode:multiply" opacity="0.58">
<path d="M67.8801 107.968C67.5166 106.32 67.1218 105.045 67.1218 105.045L65.9146 104.951C66.1431 105.499 66.3031 106.074 66.3907 106.661C66.8465 107.717 67.2209 109.09 67.5084 110.381C67.7501 109.599 67.8753 108.786 67.8801 107.968Z" fill="#3D6ACC"/>
</g>
<path d="M86.1009 94.8316C84.9194 95.6837 83.3486 96.1423 81.5242 96.1423C79.4895 96.1423 77.0478 95.1681 75.7999 93.0215C75.7402 93.0608 75.6778 93.0988 75.6127 93.1368C76.7697 95.0989 79.0351 96.3649 81.5242 96.3649C83.4083 96.3649 85.032 95.8873 86.2542 94.9971C86.1979 94.947 86.1465 94.8916 86.1009 94.8316Z" fill="#05C5DB"/>
<path d="M71.2513 104.002C73.1707 105.917 75.748 105.945 79.7198 105.695C82.9468 105.493 87.293 104.941 88.8081 104.745C88.5471 104.434 88.2657 104.14 87.9658 103.866C87.9658 103.866 77.4707 105.254 73.7499 104.196C70.4361 103.255 69.5896 96.5522 69.4445 95.1044C69.4412 95.0693 69.4302 95.0355 69.4122 95.0053C69.3942 94.9751 69.3697 94.9493 69.3404 94.9298C69.3112 94.9103 69.2779 94.8976 69.2431 94.8925C69.2083 94.8875 69.1729 94.8904 69.1393 94.9008C68.8157 95.007 68.4987 95.1321 68.1898 95.2753C68.7147 98.3121 69.4621 102.21 71.2513 104.002Z" fill="#3D6ACC"/>
<path d="M98.4404 99.5548C98.4404 99.5548 99.9949 90.9277 100.365 88.1881C100.566 86.7036 100.886 84.0998 101.278 82.0495C101.61 80.314 101.929 78.9856 102.401 79.0412C103.177 79.1335 102.762 80.7631 102.624 82.3181C102.541 83.2436 102.53 84.2843 102.533 84.8963C102.533 84.9385 102.545 84.9799 102.569 85.015C102.593 85.0501 102.626 85.0774 102.665 85.0934C102.704 85.1094 102.747 85.1134 102.789 85.1049C102.83 85.0963 102.868 85.0757 102.898 85.0455C103.599 84.3304 105.167 82.9301 106.066 83.633C107.251 84.5584 105.011 87.5395 105.011 87.5395L106.815 88.3726C106.604 89.2166 105.24 90.9507 104.827 91.214L104.474 100.518L98.4404 99.5548Z" fill="#F5CFBF"/>
<path style="mix-blend-mode:multiply" d="M104.438 100.585L104.827 91.2071C105.346 90.8747 106.613 89.1162 106.816 88.3658L105.012 87.5327C105.012 87.5327 107.251 84.5475 106.067 83.6261C105.168 82.9233 103.6 84.3236 102.899 85.0387C102.869 85.0688 102.831 85.0895 102.79 85.098C102.748 85.1066 102.705 85.1026 102.666 85.0866C102.627 85.0706 102.593 85.0433 102.57 85.0082C102.546 84.973 102.534 84.9317 102.534 84.8894C102.534 84.2775 102.542 83.2367 102.625 82.3113C102.76 80.7563 103.178 79.1267 102.402 79.0344C101.93 78.9788 101.611 80.3072 101.279 82.0426C100.887 84.0929 100.563 86.6955 100.366 88.1813C100.222 89.2668 98.7857 97.7053 98.4778 99.5114C99.7379 99.5765 103.982 100.566 104.438 100.585Z" fill="url(#paint4_linear)"/>
<path opacity="0.29" d="M104.438 100.585L104.827 91.2071C105.346 90.8747 106.613 89.1162 106.816 88.3658L105.012 87.5327C105.012 87.5327 107.251 84.5475 106.067 83.6261C105.168 82.9233 103.6 84.3236 102.899 85.0387C102.869 85.0688 102.831 85.0895 102.79 85.098C102.748 85.1066 102.705 85.1026 102.666 85.0866C102.627 85.0706 102.593 85.0433 102.57 85.0082C102.546 84.973 102.534 84.9317 102.534 84.8894C102.534 84.2775 102.542 83.2367 102.625 82.3113C102.76 80.7563 103.178 79.1267 102.402 79.0344C101.93 78.9788 101.611 80.3072 101.279 82.0426C100.887 84.0929 100.563 86.6955 100.366 88.1813C100.222 89.2668 98.7857 97.7053 98.4778 99.5114C99.7379 99.5765 103.982 100.566 104.438 100.585Z" fill="url(#paint5_linear)"/>
<path d="M106.658 86.7739C107.214 87.0887 107.491 87.8839 106.972 88.4022C106.454 88.9205 104.253 90.2544 103.9 90.0129C103.547 89.7713 103.53 88.9762 104.036 88.6994C104.542 88.4226 106.658 86.7739 106.658 86.7739Z" fill="#F5CFBF"/>
<path d="M104.483 89.5333C104.338 89.3976 103.868 89.669 103.711 89.7681C103.749 89.8663 103.815 89.9515 103.9 90.0137C104.011 90.0897 104.307 90.0137 104.67 89.8481C104.639 89.7276 104.574 89.6184 104.483 89.5333Z" fill="#F29D9D"/>
<path style="mix-blend-mode:multiply" d="M106.658 86.7739C107.214 87.0887 107.491 87.8839 106.972 88.4022C106.454 88.9205 104.253 90.2544 103.9 90.0129C103.547 89.7713 103.53 88.9762 104.036 88.6994C104.542 88.4226 106.658 86.7739 106.658 86.7739Z" fill="url(#paint6_linear)"/>
<path d="M105.937 85.5327C106.437 85.6263 106.936 85.7186 107.066 86.3116C107.197 86.9045 104.605 89.1068 103.827 89.2737C103.05 89.4406 102.878 88.218 103.734 87.663C104.59 87.1081 105.937 85.5327 105.937 85.5327Z" fill="#F5CFBF"/>
<path d="M104.02 88.5787C103.885 88.4294 103.308 88.7917 103.192 88.869C103.203 88.9391 103.23 89.006 103.269 89.0653C103.308 89.1246 103.359 89.175 103.419 89.2134C103.478 89.2517 103.546 89.2771 103.616 89.2879C103.686 89.2987 103.758 89.2947 103.826 89.2761C103.984 89.2311 104.135 89.1649 104.275 89.0793C104.249 88.8886 104.159 88.7122 104.02 88.5787Z" fill="#F29D9D"/>
<path style="mix-blend-mode:multiply" d="M105.937 85.5327C106.437 85.6263 106.936 85.7186 107.066 86.3116C107.197 86.9045 104.605 89.1068 103.827 89.2737C103.05 89.4406 102.878 88.218 103.734 87.663C104.59 87.1081 105.937 85.5327 105.937 85.5327Z" fill="url(#paint7_linear)"/>
<path d="M106.156 83.7144C106.955 84.6031 106.251 85.7741 105.071 86.8664C103.891 87.9587 103.461 87.8163 103.091 87.6073C102.72 87.3983 103.498 86.5218 104.294 85.7076C105.09 84.8935 106.156 83.7144 106.156 83.7144Z" fill="#F5CFBF"/>
<path d="M104.424 87.393C104.353 87.2573 104.161 86.9249 103.928 86.9778C103.669 87.0362 103.25 87.5518 103.174 87.6563C103.448 87.7879 103.779 87.8449 104.424 87.393Z" fill="#F29D9D"/>
<path style="mix-blend-mode:multiply" opacity="0.72" d="M106.156 83.7144C106.955 84.6031 106.251 85.7741 105.071 86.8664C103.891 87.9587 103.461 87.8163 103.091 87.6073C102.72 87.3983 103.498 86.5218 104.294 85.7076C105.09 84.8935 106.156 83.7144 106.156 83.7144Z" fill="url(#paint8_linear)"/>
<path d="M105.309 86.5989C105.674 86.2027 105.532 85.7427 104.224 85.7101C102.917 85.6776 101.274 86.8852 101.274 86.8852C101.016 87.0209 100.749 87.1294 100.493 87.2326C100.461 87.4632 100.433 87.6803 100.406 87.8798C100.326 88.4755 100.196 89.314 100.04 90.2815H100.099C102.797 90.1865 103.664 86.9055 103.664 86.9055C103.664 86.9055 105.069 86.8608 105.309 86.5989Z" fill="#F5CFBF"/>
<path opacity="0.29" d="M105.309 86.5989C105.674 86.2027 105.532 85.7427 104.224 85.7101C102.917 85.6776 101.274 86.8852 101.274 86.8852C101.016 87.0209 100.749 87.1294 100.493 87.2326C100.461 87.4632 100.433 87.6803 100.406 87.8798C100.326 88.4755 100.196 89.314 100.04 90.2815H100.099C102.797 90.1865 103.664 86.9055 103.664 86.9055C103.664 86.9055 105.069 86.8608 105.309 86.5989Z" fill="url(#paint9_linear)"/>
<path d="M105.374 85.9983C105.255 85.8816 105.03 85.7893 104.67 85.7432C104.655 85.8449 104.644 86.1014 104.91 86.1502C105.054 86.191 105.206 86.2002 105.354 86.1774L105.374 85.9983Z" fill="#F29D9D"/>
<path d="M143.205 90.7257L111.659 96.464L80.1114 90.7257C79.8803 90.6836 79.6427 90.6927 79.4156 90.7526C79.1884 90.8124 78.9771 90.9215 78.7967 91.072C78.6163 91.2226 78.4712 91.4109 78.3716 91.6238C78.2721 91.8366 78.2205 92.0688 78.2205 92.3038V131.065C78.2205 131.441 78.3524 131.804 78.5931 132.093C78.8338 132.381 79.1681 132.576 79.5376 132.643L111.658 138.486L111.7 138.494V138.478L143.777 132.643C144.147 132.576 144.481 132.381 144.722 132.093C144.963 131.804 145.095 131.441 145.095 131.065V92.3038C145.095 92.0689 145.043 91.8369 144.944 91.6242C144.844 91.4114 144.699 91.2232 144.519 91.0726C144.339 90.9221 144.128 90.813 143.901 90.7531C143.673 90.6931 143.436 90.6838 143.205 90.7257Z" fill="#3D6ACC"/>
<path d="M143.205 91.058L111.659 96.7963L80.1114 91.058C79.8804 91.0161 79.6431 91.0254 79.4161 91.0853C79.1891 91.1451 78.978 91.2541 78.7977 91.4044C78.6174 91.5548 78.4723 91.7429 78.3725 91.9554C78.2728 92.168 78.2209 92.3999 78.2205 92.6347V131.397C78.2204 131.773 78.3523 132.137 78.5929 132.426C78.8336 132.714 79.168 132.909 79.5376 132.977L111.658 138.819L111.7 138.828V138.811L143.777 132.977C144.147 132.909 144.481 132.714 144.722 132.426C144.963 132.137 145.095 131.773 145.095 131.397V92.6347C145.094 92.4 145.042 92.1683 144.943 91.9558C144.843 91.7434 144.698 91.5554 144.518 91.405C144.338 91.2547 144.127 91.1457 143.9 91.0858C143.673 91.0258 143.436 91.0163 143.205 91.058Z" fill="#0D1D7E"/>
<path d="M111.666 136.636L80.3087 130.99V93.2192L111.65 98.9196L111.666 136.636Z" fill="white"/>
<path d="M106.442 131.27L95.3403 129.268L95.3376 118.833L106.438 120.839L106.442 131.27Z" fill="#FFCB8A"/>
<path d="M106.432 104.513L85.1885 100.655V99.1626L106.431 103.022L106.432 104.513ZM106.432 107.337L85.1885 103.482V104.974L106.434 108.828L106.432 107.337ZM106.432 111.65L85.1885 107.799V109.292L106.435 113.141L106.432 111.65ZM106.432 115.964L85.1885 112.118V113.611L106.435 117.456L106.432 115.964ZM93.2975 118.464L85.1858 116.998V118.49L93.2975 119.957V118.464ZM93.2975 123.017L85.1858 121.551V123.044L93.2975 124.509V123.017ZM93.2975 127.41L85.1899 125.946V127.439L93.3029 128.902L93.2975 127.41Z" fill="#3D6ACC"/>
<path d="M143.007 130.991L111.658 136.694V98.9209L143.007 93.2192V130.991Z" fill="#B9EDFD"/>
<path d="M132.15 110.042L116.643 112.863V103.006L132.15 100.185V110.042Z" fill="#F68987"/>
<path d="M137.777 113.395L116.531 117.253V115.76L137.777 111.903V113.395ZM137.777 116.223L116.531 120.082V121.575L137.777 117.71V116.223ZM137.777 120.543L116.531 124.401V125.894L137.777 122.029V120.543ZM137.777 124.864L116.531 128.728V130.221L137.777 126.355V124.864ZM137.777 99.2388L133.89 99.9457V101.208L137.777 100.501V99.2388Z" fill="#3D6ACC"/>
<path d="M100.067 146.686H123.283C123.548 146.686 123.801 146.791 123.988 146.978C124.175 147.165 124.28 147.418 124.28 147.683V147.908H99.0702V147.683C99.0702 147.418 99.1752 147.165 99.3622 146.978C99.5492 146.791 99.8028 146.686 100.067 146.686Z" fill="#292969"/>
<g style="mix-blend-mode:multiply" opacity="0.58">
<path d="M105.874 125.366L102.763 135.076L111.73 136.883L120.749 135.04L117.461 125.366H105.874Z" fill="#3D6ACC"/>
</g>
<path d="M118.206 146.279L104.548 146.353L106.175 126.542L116.641 126.913L118.206 146.279ZM111.729 132.959C111.058 132.959 110.402 133.158 109.845 133.531C109.287 133.904 108.852 134.433 108.596 135.053C108.339 135.673 108.272 136.355 108.403 137.013C108.534 137.671 108.857 138.276 109.331 138.75C109.805 139.225 110.409 139.548 111.067 139.679C111.725 139.809 112.407 139.742 113.026 139.486C113.646 139.229 114.176 138.794 114.548 138.236C114.921 137.678 115.12 137.022 115.12 136.352C115.12 135.452 114.763 134.589 114.127 133.953C113.491 133.317 112.629 132.96 111.73 132.959H111.729Z" fill="#3D6ACC"/>
<path d="M119.463 147.908H103.872L105.874 125.366H117.461L119.463 147.908ZM111.731 133.495C111.06 133.495 110.405 133.694 109.847 134.067C109.289 134.439 108.855 134.969 108.598 135.589C108.341 136.209 108.274 136.891 108.405 137.549C108.536 138.207 108.859 138.811 109.333 139.286C109.807 139.76 110.412 140.083 111.069 140.214C111.727 140.345 112.409 140.278 113.029 140.021C113.648 139.764 114.178 139.33 114.551 138.772C114.923 138.214 115.122 137.558 115.122 136.887C115.122 136.442 115.034 136 114.864 135.589C114.693 135.177 114.443 134.803 114.128 134.488C113.813 134.173 113.439 133.923 113.028 133.753C112.616 133.582 112.175 133.495 111.73 133.495H111.731Z" fill="#0D1D7E"/>
<path d="M117.506 125.885L117.46 125.366H105.873L105.827 125.885H117.506Z" fill="#3D6ACC"/>
<path d="M105.686 106.088C106.902 106.088 107.888 105.102 107.888 103.886C107.888 102.67 106.902 101.684 105.686 101.684C104.47 101.684 103.485 102.67 103.485 103.886C103.485 105.102 104.47 106.088 105.686 106.088Z" fill="#E04B97"/>
<path d="M84.7862 76.7305C84.9069 76.7021 85.029 76.679 85.1524 76.66C85.2758 76.641 85.4033 76.6369 85.5295 76.6424C85.784 76.6466 86.0367 76.6849 86.281 76.7563C86.5272 76.8322 86.7598 76.9467 86.9701 77.0956C87.184 77.2431 87.3609 77.4381 87.4869 77.6654C87.496 77.6835 87.4977 77.7044 87.4916 77.7236C87.4855 77.7429 87.4721 77.759 87.4543 77.7686C87.4401 77.7759 87.4239 77.7785 87.408 77.7761C87.3922 77.7737 87.3775 77.7663 87.3662 77.755H87.358C87.1948 77.5973 87.0125 77.4605 86.8154 77.3479C86.6166 77.2367 86.4071 77.1458 86.1901 77.0766C86.0789 77.0467 85.9704 77.0128 85.8564 76.9938C85.7425 76.9748 85.6299 76.9558 85.5146 76.9368C85.3993 76.9178 85.2826 76.9164 85.1646 76.9029C85.0466 76.8893 84.9286 76.8961 84.8079 76.8839C84.7893 76.8829 84.7717 76.875 84.7585 76.8619C84.7453 76.8488 84.7374 76.8314 84.7362 76.8128C84.7351 76.7942 84.7407 76.7759 84.7522 76.7612C84.7636 76.7466 84.7801 76.7366 84.7984 76.7333L84.7862 76.7305Z" fill="#E8A48B"/>
<path d="M89.628 78.4823C89.7365 78.4565 89.8491 78.4362 89.9603 78.4185C90.0715 78.4009 90.1868 78.3968 90.3008 78.3982C90.5291 78.3968 90.7567 78.4223 90.979 78.4742C91.2057 78.5275 91.4232 78.6139 91.6247 78.7306C91.8321 78.8462 92.0096 79.0089 92.1428 79.2055C92.1536 79.2227 92.1572 79.2434 92.1529 79.2632C92.1486 79.283 92.1367 79.3003 92.1198 79.3114C92.1071 79.3203 92.0919 79.325 92.0764 79.325C92.0609 79.325 92.0457 79.3203 92.033 79.3114H92.0235C91.8583 79.1884 91.6794 79.0851 91.4904 79.0034C91.3001 78.9215 91.1032 78.8561 90.9017 78.808L90.7484 78.7727C90.6982 78.7618 90.6453 78.7564 90.5938 78.7456C90.492 78.7225 90.3862 78.7184 90.2818 78.7008C90.1773 78.6831 90.0702 78.6818 89.963 78.6696C89.8558 78.6574 89.7473 78.6587 89.6375 78.6451C89.6195 78.6429 89.6029 78.6343 89.5906 78.6211C89.5782 78.6078 89.571 78.5906 89.57 78.5726C89.569 78.5545 89.5744 78.5366 89.5853 78.5221C89.5961 78.5076 89.6117 78.4974 89.6293 78.4932L89.628 78.4823Z" fill="#E8A48B"/>
<path d="M145.606 95.4013C147.585 95.7079 148.679 96.2534 149.901 99.0296C151.072 101.693 153.605 107.149 154.354 110.623C155.103 114.097 154.923 115.915 152.286 116.017C149.345 116.137 147.143 109.829 146.682 106.867C146.199 103.769 145.57 100.955 145.57 100.955C144.796 100.89 144.029 100.766 143.274 100.585C142.199 100.313 141.214 101.229 140.867 100.696C140.519 100.163 141.663 99.3173 143.173 99.339C142.582 99.1975 141.966 99.2027 141.378 99.3539C140.328 99.5982 139.984 99.6429 139.872 99.2413C139.761 98.8397 141.093 98.1694 142.029 98.1463C142.965 98.1232 143.43 98.0689 143.43 98.0689C143.43 98.0689 141.769 97.746 140.93 98.1341C140.092 98.5222 139.421 98.9482 139.206 98.5045C138.992 98.0608 140.145 97.1707 141.426 96.8667C142.706 96.5628 142.992 96.6741 142.992 96.6741C142.992 96.6741 141.398 96.5587 140.551 96.9102C139.703 97.2616 139.339 97.5696 139.059 97.2209C138.778 96.8722 139.499 96.1706 140.78 95.7174C142.06 95.2642 143.285 95.0431 145.606 95.4013Z" fill="#F5CFBF"/>
<path d="M140.471 99.0581C140.471 99.054 140.471 99.0499 140.471 99.0459C140.478 98.9902 140.472 98.9336 140.453 98.8806C140.434 98.8276 140.404 98.7797 140.363 98.7406C140.346 98.7226 140.326 98.7075 140.304 98.6958C140.007 98.883 139.822 99.0839 139.867 99.2385C139.885 99.2524 139.904 99.2651 139.924 99.2765C139.933 99.2933 139.944 99.3085 139.958 99.3213C140.008 99.3739 140.077 99.4047 140.15 99.407C140.223 99.4093 140.294 99.3829 140.347 99.3335C140.419 99.2588 140.463 99.1614 140.471 99.0581Z" fill="#F4D5C2"/>
<path d="M140.812 100.596C140.887 100.641 140.977 100.656 141.064 100.639C141.15 100.621 141.227 100.571 141.278 100.499C141.322 100.413 141.335 100.314 141.314 100.219C141.293 100.124 141.24 100.039 141.163 99.9796C141.151 99.9681 141.138 99.9581 141.124 99.9497C140.873 100.159 140.751 100.392 140.812 100.596Z" fill="#F4D5C2"/>
<path d="M139.615 96.9575C139.642 96.9108 139.656 96.8572 139.654 96.8031C139.652 96.7489 139.634 96.6966 139.603 96.6522C139.572 96.6079 139.528 96.5739 139.478 96.5546C139.427 96.5352 139.372 96.5314 139.319 96.5437L139.266 96.5654C139.006 96.8205 138.916 97.0606 139.047 97.2235C139.088 97.2791 139.144 97.3226 139.208 97.3497L139.223 97.3375C139.386 97.2489 139.521 97.1176 139.615 96.9575Z" fill="#F4D5C2"/>
<path d="M139.657 98.5417C139.747 98.4798 139.811 98.3864 139.837 98.2798C139.852 98.2275 139.851 98.1721 139.835 98.1202C139.819 98.0683 139.789 98.022 139.748 97.9867C139.706 97.9516 139.655 97.9298 139.6 97.9243C139.546 97.9187 139.492 97.9296 139.444 97.9555C139.36 98.0031 139.292 98.0732 139.247 98.1577C139.211 98.2079 139.189 98.266 139.181 98.327C139.173 98.388 139.18 98.45 139.201 98.5078C139.223 98.5525 139.254 98.5922 139.292 98.6244C139.342 98.6493 139.399 98.6578 139.455 98.6489C139.494 98.6475 139.533 98.6371 139.568 98.6185C139.603 98.6 139.633 98.5737 139.657 98.5417Z" fill="#F4D5C2"/>
<path d="M82.6462 123.257C83.7951 123.097 85.0336 122.809 84.9088 122.307C84.8084 121.9 83.9932 121.854 83.1128 121.92C83.7775 121.753 84.2984 121.523 84.198 121.219C83.9525 120.449 79.8166 121.113 79.8166 121.113C79.8166 121.113 80.6129 120.736 80.8896 120.595C81.3236 120.372 81.8486 119.947 81.3521 119.633C80.8557 119.318 78.3543 120.113 74.8845 121.354C71.222 121.762 62.39 121.292 62.39 121.292C62.39 121.292 62.2449 119.139 63.3843 114.209C63.9554 111.741 66.0972 107.115 67.1105 105.038C67.1105 105.038 67.097 103.574 64.9035 101.872C63.6678 100.914 62.2788 100.814 61.8474 100.787C59.3249 104.152 57.5977 108.045 56.7959 112.174C55.4394 119.375 55.5887 125.569 59.9158 127.136C64.2429 128.703 76.0348 126.739 77.4034 126.551C78.7721 126.364 83.6283 125.941 83.5157 125.12C83.4587 124.705 82.7941 124.577 82.1484 124.554C83.3082 124.473 84.8532 124.261 84.8233 123.72C84.7976 123.262 83.6907 123.207 82.6462 123.257Z" fill="#F5CFBF"/>
<path d="M83.7108 120.928C83.6661 120.947 83.6245 120.973 83.5873 121.004C83.5294 121.028 83.4754 121.06 83.4273 121.101C83.4003 121.125 83.3786 121.155 83.3634 121.188C83.3482 121.221 83.3398 121.257 83.3388 121.294C83.3378 121.33 83.3441 121.366 83.3575 121.4C83.3708 121.434 83.3909 121.465 83.4164 121.491C83.488 121.548 83.5705 121.589 83.6587 121.613C83.7469 121.636 83.839 121.641 83.9292 121.627C84.1394 121.509 84.252 121.372 84.2005 121.22C84.1489 121.068 83.9753 120.985 83.7108 120.928Z" fill="#F4D5C2"/>
<path d="M83.9507 123.75C83.9331 124.041 84.1799 124.136 84.439 124.139C84.6845 124.028 84.8337 123.889 84.8242 123.717C84.8147 123.545 84.6398 123.424 84.3698 123.351C84.1582 123.412 83.9656 123.528 83.9507 123.75Z" fill="#F4D5C2"/>
<path d="M84.9098 122.312C84.8664 122.138 84.6887 122.031 84.4296 121.968C84.1882 122.078 83.9888 122.265 84.0552 122.519C84.1109 122.731 84.313 122.799 84.5341 122.791C84.8054 122.662 84.9573 122.502 84.9098 122.312Z" fill="#F4D5C2"/>
<path d="M83.5156 125.118C83.5094 125.07 83.4952 125.024 83.4735 124.982C83.2307 125.006 82.9771 125.035 82.7804 125.217C82.7219 125.263 82.6773 125.325 82.6517 125.396C82.6261 125.466 82.6204 125.542 82.6353 125.616C82.6431 125.645 82.655 125.673 82.6705 125.698C83.2077 125.536 83.5468 125.336 83.5156 125.118Z" fill="#F4D5C2"/>
<path d="M81.3571 119.637C81.2038 119.538 80.8552 119.548 80.3451 119.645C80.3486 119.7 80.3687 119.751 80.4027 119.794C80.4367 119.836 80.4829 119.866 80.535 119.881C80.8365 119.925 81.1436 119.908 81.4385 119.831C81.4679 119.825 81.4963 119.815 81.5226 119.8C81.4821 119.733 81.4252 119.677 81.3571 119.637Z" fill="#F4D5C2"/>
<path d="M21.0015 147.908H191V155.82C191 157.136 190.589 158.44 189.791 159.657C188.992 160.873 187.821 161.979 186.345 162.91C184.869 163.841 183.117 164.58 181.188 165.084C179.26 165.587 177.193 165.847 175.105 165.847H36.8953C32.6797 165.847 28.6367 164.791 25.6558 162.91C22.6748 161.03 21.0002 158.48 21.0002 155.82V147.908H21.0015Z" fill="#CDEFFF"/>
<path d="M110.774 151.883H110.793H124.131H124.15L124.213 151.818C124.228 151.802 124.237 151.782 124.241 151.761C124.245 151.739 124.242 151.717 124.234 151.697C124.225 151.677 124.211 151.66 124.192 151.649C124.174 151.637 124.153 151.63 124.131 151.63H110.793C110.771 151.63 110.75 151.636 110.732 151.648C110.713 151.66 110.699 151.677 110.69 151.697C110.682 151.717 110.679 151.739 110.683 151.761C110.687 151.782 110.698 151.802 110.713 151.818L110.774 151.883Z" fill="white"/>
<path d="M52.3696 130.614C52.1218 130.533 51.8638 130.487 51.6032 130.478C51.3549 130.467 51.1061 130.478 50.8598 130.512C50.3806 130.583 49.9147 130.725 49.4776 130.934C49.3691 130.986 49.2619 131.04 49.1561 131.097C49.0517 131.158 48.9513 131.223 48.8496 131.29C48.7478 131.356 48.6502 131.425 48.5552 131.499C48.4603 131.572 48.3694 131.653 48.2839 131.732L48.0126 131.978L47.759 132.237L47.508 132.495L47.2625 132.756C47.0997 132.929 46.9315 133.089 46.7714 133.26C46.6901 133.343 46.606 133.423 46.5232 133.503L46.3957 133.621L46.2763 133.744C46.1176 133.914 45.9508 134.071 45.7948 134.24C45.6388 134.408 45.4896 134.583 45.3336 134.751C45.1776 134.919 45.0406 135.104 44.89 135.278C44.7679 135.413 44.6581 135.56 44.5468 135.706V126.828C44.5804 126.801 44.6109 126.77 44.6377 126.736C44.9965 126.282 45.4186 125.881 45.8911 125.547C46.1244 125.379 46.3667 125.224 46.6168 125.082C46.74 125.007 46.8688 124.942 47.002 124.888C47.0685 124.859 47.1377 124.835 47.2055 124.809C47.2733 124.783 47.3412 124.766 47.4185 124.748C47.5619 124.709 47.7072 124.677 47.8539 124.653L48.0709 124.611C48.1428 124.597 48.2174 124.588 48.2866 124.572C48.3558 124.555 48.4223 124.542 48.4942 124.524C48.5661 124.507 48.6298 124.49 48.6963 124.47C48.8249 124.429 48.9512 124.382 49.0747 124.327C49.319 124.218 49.5472 124.076 49.753 123.905C49.9947 123.707 50.1995 123.468 50.358 123.198L50.3892 123.147C50.4011 123.127 50.4119 123.107 50.4217 123.086C50.4621 123 50.4852 122.907 50.4896 122.812C50.4941 122.718 50.4798 122.623 50.4477 122.534C50.4156 122.445 50.3662 122.363 50.3024 122.292C50.2386 122.222 50.1616 122.165 50.0758 122.125C49.9044 122.045 49.7212 121.994 49.5332 121.973C49.3601 121.954 49.1854 121.954 49.0123 121.973C48.686 122.01 48.3692 122.107 48.0777 122.258C47.9349 122.331 47.7987 122.415 47.6708 122.512C47.5404 122.609 47.4184 122.716 47.3059 122.833C47.0767 123.067 46.8718 123.327 46.6643 123.572C46.5598 123.692 46.4527 123.806 46.3455 123.918C46.2383 124.029 46.1203 124.128 46.0077 124.228C45.8952 124.329 45.7771 124.426 45.6646 124.527C45.552 124.627 45.4367 124.726 45.3214 124.821C45.0989 125.01 44.8765 125.197 44.6431 125.378C44.6451 125.346 44.6451 125.314 44.6431 125.283C44.5263 124.403 44.481 123.515 44.5075 122.627C44.536 121.744 44.5658 120.863 44.7896 119.984C44.8412 119.765 44.8995 119.547 44.9606 119.33C45.0216 119.113 45.0772 118.894 45.1315 118.68C45.2365 118.256 45.3063 117.824 45.3404 117.388C45.3585 117.174 45.3657 116.959 45.3621 116.744C45.3603 116.527 45.3458 116.311 45.3187 116.096C45.2926 115.876 45.2528 115.657 45.1993 115.441C45.1454 115.207 45.0672 114.98 44.966 114.763L44.9456 114.719C44.9037 114.636 44.8461 114.561 44.7761 114.499C44.7065 114.439 44.6257 114.392 44.5382 114.363C44.4507 114.333 44.3583 114.322 44.2662 114.328C44.1741 114.334 44.0842 114.358 44.0015 114.4C43.9189 114.441 43.8451 114.498 43.7845 114.567C43.6986 114.666 43.6201 114.77 43.5498 114.881C43.4811 114.986 43.4181 115.094 43.3613 115.206C43.2546 115.422 43.1639 115.645 43.09 115.874C43.0227 116.097 42.9693 116.323 42.9299 116.552C42.8951 116.777 42.8715 117.004 42.8594 117.231C42.8405 117.688 42.8691 118.146 42.9448 118.597C43.0194 119.052 43.1266 119.504 43.2161 119.954C43.4115 120.852 43.4399 121.743 43.4874 122.633C43.5132 123.333 43.5268 124.032 43.4874 124.73C43.208 124.47 42.9367 124.203 42.6586 123.941C42.4077 123.688 42.1459 123.447 41.8963 123.19C41.6368 122.935 41.394 122.663 41.1692 122.376C41.0539 122.24 40.9427 122.08 40.8247 121.937C40.7067 121.793 40.5886 121.646 40.4652 121.508C40.2181 121.236 39.9389 120.995 39.6337 120.79C39.3275 120.586 38.993 120.427 38.6407 120.32C38.4559 120.266 38.2666 120.229 38.0751 120.209C37.9742 120.198 37.8727 120.194 37.7712 120.196C37.6614 120.197 37.5517 120.205 37.443 120.221C37.3876 120.229 37.3334 120.244 37.2816 120.265C37.2017 120.297 37.129 120.345 37.0676 120.405C37.0062 120.466 36.9574 120.538 36.9239 120.617C36.8904 120.697 36.8728 120.782 36.8723 120.868C36.8718 120.954 36.8882 121.04 36.9207 121.12L36.9628 121.224C37.0393 121.401 37.1377 121.567 37.2558 121.719C37.362 121.861 37.4785 121.994 37.6044 122.118C37.8426 122.356 38.1091 122.562 38.3979 122.734C38.5404 122.822 38.6876 122.902 38.8388 122.973C38.9917 123.048 39.1484 123.115 39.3081 123.174C39.6296 123.299 39.9687 123.403 40.2929 123.536C40.6152 123.663 40.9227 123.825 41.2099 124.018C41.4893 124.216 41.7701 124.414 42.0238 124.637C42.5537 125.068 43.0216 125.57 43.4142 126.129L43.4223 126.142C43.4223 126.142 43.4223 126.15 43.4318 126.155V132.025L43.2324 131.82C43.1442 131.724 43.0452 131.638 42.9503 131.549L42.6668 131.277C42.6193 131.233 42.5732 131.185 42.5311 131.142L42.3833 131.014L42.0889 130.756L41.9424 130.621L41.7905 130.499L41.4866 130.252C41.2886 130.079 41.0797 129.935 40.8667 129.773C40.6538 129.61 40.4435 129.469 40.2346 129.31C40.0257 129.151 39.8141 128.995 39.6052 128.83C39.3963 128.664 39.1874 128.5 38.9758 128.333C38.7642 128.166 38.5472 128.01 38.3288 127.854C37.8919 127.551 37.4212 127.3 36.9262 127.106C36.4366 126.911 35.9257 126.775 35.4042 126.699C34.8677 126.616 34.3209 126.625 33.7873 126.725C33.6768 126.748 33.5745 126.8 33.4914 126.877C33.4084 126.953 33.3476 127.051 33.3157 127.159C33.2838 127.267 33.282 127.382 33.3103 127.491C33.3386 127.601 33.3961 127.7 33.4767 127.779L33.4929 127.796C33.6884 127.98 33.9004 128.147 34.1264 128.292C34.3394 128.439 34.5618 128.564 34.7789 128.679C35.2123 128.904 35.661 129.098 36.1218 129.26C36.3483 129.342 36.5816 129.409 36.8122 129.478C37.0428 129.547 37.2843 129.598 37.5217 129.656C37.759 129.714 38.0046 129.759 38.2433 129.82C38.482 129.881 38.7276 129.937 38.9595 130.017C39.1942 130.092 39.4235 130.182 39.6459 130.288C39.868 130.391 40.084 130.506 40.2929 130.633C40.7157 130.877 41.1201 131.152 41.5029 131.455C42.2737 132.051 42.9289 132.783 43.4359 133.615V140.065C43.1741 139.819 42.9191 139.569 42.6586 139.324C42.3982 139.078 42.1459 138.829 41.8963 138.572C41.6368 138.316 41.394 138.045 41.1692 137.758C41.0539 137.622 40.9427 137.462 40.8247 137.318C40.7067 137.175 40.5886 137.028 40.4652 136.89C40.2185 136.618 39.9392 136.377 39.6337 136.173C39.3279 135.968 38.9932 135.809 38.6407 135.702C38.4558 135.649 38.2665 135.612 38.0751 135.591C37.9741 135.581 37.8727 135.576 37.7712 135.577C37.6613 135.578 37.5516 135.587 37.443 135.605C37.3875 135.611 37.3333 135.626 37.2816 135.647C37.2017 135.679 37.129 135.727 37.0676 135.787C37.0062 135.848 36.9574 135.92 36.9239 135.999C36.8904 136.079 36.8728 136.164 36.8723 136.25C36.8718 136.336 36.8882 136.422 36.9207 136.501L36.9628 136.606C37.0393 136.783 37.1377 136.949 37.2558 137.101C37.362 137.243 37.4785 137.376 37.6044 137.5C37.8426 137.737 38.1091 137.944 38.3979 138.116C38.5404 138.204 38.6876 138.284 38.8388 138.355C38.9915 138.43 39.1482 138.497 39.3081 138.556C39.6296 138.681 39.9687 138.785 40.2929 138.918C40.615 139.045 40.9224 139.207 41.2099 139.4C41.4893 139.598 41.7701 139.796 42.0238 140.019C42.5537 140.45 43.0216 140.952 43.4142 141.511L43.4223 141.525L43.4318 141.537V147.81H44.5495V137.548C44.5588 137.534 44.5669 137.519 44.574 137.504L44.5848 137.478C44.939 136.703 45.4214 135.992 46.0118 135.377C46.1624 135.226 46.317 135.079 46.4703 134.932C46.6236 134.784 46.7959 134.66 46.9627 134.524C47.1286 134.391 47.3025 134.268 47.4836 134.157C47.6647 134.043 47.8548 133.944 48.052 133.861C48.151 133.819 48.2473 133.774 48.349 133.737L48.6556 133.636L48.9581 133.535L49.266 133.448C49.365 133.417 49.4654 133.386 49.5631 133.352C49.6607 133.318 49.7598 133.288 49.8574 133.257C49.9551 133.226 50.0487 133.187 50.1423 133.147C50.2359 133.108 50.3322 133.075 50.4258 133.035C50.7992 132.875 51.1617 132.692 51.511 132.485C51.8907 132.268 52.2447 132.009 52.5663 131.713L52.6016 131.679C52.6767 131.609 52.7332 131.521 52.7657 131.424C52.7932 131.345 52.8048 131.261 52.7998 131.177C52.7947 131.094 52.7732 131.012 52.7364 130.936C52.6995 130.861 52.6482 130.794 52.5852 130.738C52.5223 130.683 52.449 130.641 52.3696 130.614Z" fill="#292969"/>
</g>
<defs>
<linearGradient id="paint0_linear" x1="57.4136" y1="81.6896" x2="57.4136" y2="147.908" gradientUnits="userSpaceOnUse">
<stop stop-color="#56BFF0"/>
<stop offset="1" stop-color="#8E77E6"/>
</linearGradient>
<linearGradient id="paint1_linear" x1="153.166" y1="103.661" x2="152.14" y2="115.198" gradientUnits="userSpaceOnUse">
<stop stop-color="#F0C3A8"/>
<stop offset="1" stop-color="white"/>
</linearGradient>
<linearGradient id="paint2_linear" x1="-127364" y1="15945.8" x2="-127006" y2="17287.3" gradientUnits="userSpaceOnUse">
<stop stop-color="#F0C3A8"/>
<stop offset="1" stop-color="white"/>
</linearGradient>
<linearGradient id="paint3_linear" x1="7739.37" y1="19169.9" x2="7339.6" y2="20557.4" gradientUnits="userSpaceOnUse">
<stop stop-color="#F0C3A8"/>
<stop offset="1" stop-color="white"/>
</linearGradient>
<linearGradient id="paint4_linear" x1="7579.71" y1="11571.8" x2="7482.17" y2="11573.8" gradientUnits="userSpaceOnUse">
<stop stop-color="#F0C3A8"/>
<stop offset="1" stop-color="white"/>
</linearGradient>
<linearGradient id="paint5_linear" x1="105.5" y1="81.5107" x2="104" y2="86.972" gradientUnits="userSpaceOnUse">
<stop stop-color="white"/>
<stop offset="1" stop-color="#EB7373"/>
</linearGradient>
<linearGradient id="paint6_linear" x1="3390.73" y1="1792.12" x2="3406.67" y2="1814.68" gradientUnits="userSpaceOnUse">
<stop stop-color="#F0C3A8"/>
<stop offset="1" stop-color="white"/>
</linearGradient>
<linearGradient id="paint7_linear" x1="3656.39" y1="2014.44" x2="3674.58" y2="2041.26" gradientUnits="userSpaceOnUse">
<stop stop-color="#F0C3A8"/>
<stop offset="1" stop-color="white"/>
</linearGradient>
<linearGradient id="paint8_linear" x1="3236.46" y1="2139.87" x2="3296.13" y2="2119.65" gradientUnits="userSpaceOnUse">
<stop stop-color="#F0C3A8"/>
<stop offset="1" stop-color="white"/>
</linearGradient>
<linearGradient id="paint9_linear" x1="4939.96" y1="2408.12" x2="4957.96" y2="2465.82" gradientUnits="userSpaceOnUse">
<stop stop-color="white"/>
<stop offset="1" stop-color="#EB7373"/>
</linearGradient>
<clipPath id="clip0">
<path d="M0 0H200C206.627 0 212 5.37258 212 12V208C212 214.627 206.627 220 200 220H0V0Z" fill="white"/>
</clipPath>
</defs>
</svg>
