<svg width="212" height="220" viewBox="0 0 212 220" fill="none" xmlns="http://www.w3.org/2000/svg">
<g clip-path="url(#clip0)">
<path d="M178.843 165H43.7608C25.1553 165 32.7217 108.04 38.8123 118.147C52.2927 140.516 40.9343 49.6463 73.4158 77.3815C89.5633 91.1695 87.3947 49 115.885 49C140.775 49 132.123 127.394 158.801 97.7591C180.338 73.8365 204.716 165 178.843 165Z" fill="#F3F9FF"/>
<path d="M186.611 62.9116C186.39 62.9116 186.183 62.957 185.967 62.9764C185.24 60.8487 183.866 59.0016 182.037 57.6937C180.208 56.3858 178.016 55.6826 175.768 55.6826C173.519 55.6826 171.327 56.3858 169.498 57.6937C167.669 59.0016 166.295 60.8487 165.568 62.9764C165.353 62.957 165.145 62.9116 164.924 62.9116C163.975 62.9116 163.035 63.0986 162.158 63.4618C161.281 63.8251 160.484 64.3576 159.813 65.0289C159.141 65.7002 158.609 66.4971 158.246 67.3741C157.882 68.2512 157.695 69.1912 157.695 70.1405C157.695 71.0899 157.882 72.0299 158.246 72.9069C158.609 73.784 159.141 74.5809 159.813 75.2522C160.484 75.9235 161.281 76.4559 162.158 76.8192C163.035 77.1825 163.975 77.3695 164.924 77.3695H186.611C188.528 77.3695 190.367 76.6079 191.723 75.2522C193.078 73.8965 193.84 72.0578 193.84 70.1405C193.84 68.2233 193.078 66.3846 191.723 65.0289C190.367 63.6732 188.528 62.9116 186.611 62.9116V62.9116Z" fill="#F3F9FF"/>
<path d="M58.5164 167.41C58.5164 167.41 51.5021 131.313 26.6856 145.879C24.0342 148.367 30.0674 149.894 32.9885 149.466C36.7682 148.913 35.3973 154.014 39.5919 153.86C44.7374 153.671 44.2269 156.977 45.8617 161.207C47.0379 164.25 55.4003 162.672 58.5164 167.41Z" fill="#1277D7"/>
<path d="M57.4408 165.549C57.4408 165.549 53.6404 125.596 32.2358 136.57C30.3874 137.684 32.3064 141.557 38.4109 143.237C41.2016 144.005 40.2651 148.453 42.3637 151.098C44.6932 154.034 49.2667 153.08 49.919 157.843C50.3884 161.269 55.5172 159.839 57.4408 165.549Z" fill="#1B90FB"/>
<path d="M100.871 98.7326C100.871 98.7326 130.402 74.6625 154.668 98.09L138.88 98.6725L137.22 94.5047L137.772 99.5705L132.372 100.269L129.546 94.9827L129.381 97.9098L122.902 99.8573L122.772 96.0495C122.772 96.0495 120.523 98.0077 120.379 99.6832L113.134 100.393L113.396 97.492L112.022 100.489L100.871 98.7326Z" fill="#2CCD7F"/>
<path d="M116.68 93.6543C116.68 93.6543 136.055 57.382 160.047 86.7783L153.018 83.9491L154.913 86.8885L147.429 89.6361L142.545 84.1002C142.545 84.1002 145.049 89.1983 146.303 90.8457C144.676 91.9078 136.855 92.3569 136.855 92.3569L136.494 86.5919C136.494 86.5919 135.783 91.4432 136.189 93.6418L128.796 93.8053L128.106 89.9968L125.281 92.8368L116.68 93.6543Z" fill="#8AE6B9"/>
<path d="M117.066 94.9491C117.066 94.9491 128.05 53.1099 157.778 70.9563L150.06 73.1284L149.713 75.7283L143.735 80.7377L140.164 75.5278C140.164 75.5278 140.33 80.0831 141.908 81.12C140.556 82.7736 136.418 85.5699 136.418 85.5699L134.816 80.312C134.816 80.312 133.996 83.643 134.868 85.5396L128.89 90.1881L127.392 86.8975L127.965 90.8883L117.066 94.9491Z" fill="#1EAF69"/>
<path d="M117.045 94.9474C117.045 94.9474 128.467 42.462 152.275 57.4103L145.947 63.4118L141.366 61.3973L145.818 65.0598L142.261 70.1012L135.901 68.1437L138.106 70.6602L134.721 77.6106L131.591 74.6222C131.591 74.6222 131.437 78.078 132.661 79.5592L127.707 86.1379L125.598 83.5627L126.937 87.1378L117.045 94.9474Z" fill="#2CCD7F"/>
<path d="M103.857 49L75.389 64.9708L85.2976 70.8545C75.1255 84.3155 65.1306 92.7806 52.3387 100.193C43.7025 105.013 33.5516 109.056 23.8401 110.793C42.6143 111.898 67.9049 100.618 81.5398 87.9018C88.404 81.7029 89.3922 80.1516 93.3392 75.6296L103.457 81.6379L103.857 49Z" fill="#FFD125"/>
<path d="M113.699 70.5966L136.844 68.2588L136.93 162.461L113.784 164.799L113.699 70.5966Z" fill="#1F3C73"/>
<path d="M113.699 70.5963L101.998 65.5078L125.143 63.1699L136.844 68.2584L113.699 70.5963Z" fill="#162B52"/>
<path d="M113.784 164.799L102.084 159.71L101.998 65.5078L113.699 70.5963L113.784 164.799Z" fill="#112241"/>
<path d="M84.7312 87.1403L107.879 85.2197L107.877 165.49L84.7298 167.411L84.7312 87.1403Z" fill="#877CD8"/>
<path d="M84.7328 87.1404L73.0373 83.0202L96.1848 81.0996L107.88 85.2199L84.7328 87.1404Z" fill="#7266D5"/>
<path d="M84.7298 167.411L73.0343 163.291L73.0357 83.0205L84.7312 87.1408L84.7298 167.411Z" fill="#5F50D0"/>
<path d="M55.3544 110.869L78.4978 108.954L78.4965 168.085L55.3531 170L55.3544 110.869Z" fill="#45D48F"/>
<path d="M55.3554 110.869L43.6599 106.748L66.8033 104.833L78.4988 108.954L55.3554 110.869Z" fill="#2CCD7F"/>
<path d="M55.3531 170.001L43.6576 165.88L43.6589 106.749L55.3544 110.869L55.3531 170.001Z" fill="#1EAF69"/>
<path d="M40.1887 98.9445L45.0772 104.321C45.1092 104.356 45.1339 104.397 45.15 104.442C45.166 104.487 45.1731 104.534 45.1709 104.582C45.1686 104.629 45.157 104.676 45.1368 104.719C45.1166 104.762 45.0881 104.8 45.053 104.832H45.0529C44.982 104.896 44.8883 104.93 44.7926 104.926C44.6968 104.921 44.6067 104.879 44.5422 104.808L39.6537 99.4309C39.5892 99.3599 39.5555 99.2663 39.5601 99.1705C39.5647 99.0747 39.6071 98.9847 39.678 98.9202V98.9202C39.749 98.8557 39.8426 98.822 39.9384 98.8266C40.0342 98.8311 40.1242 98.8736 40.1887 98.9445V98.9445Z" fill="#1277D7"/>
<path d="M52.2153 117.078L53.3494 118.658L51.5649 120.317L50.3771 118.484L52.2153 117.078Z" fill="#F1B282"/>
<path d="M41.1739 117.763L39.4996 119.776L37.7487 118.405L39.5979 116.596L41.1739 117.763Z" fill="#F1B282"/>
<path d="M45.275 105.967C44.0162 107.276 39.42 116.544 39.42 116.544L41.2543 118.117L47.9131 109.524C48.0641 107.309 46.5339 104.658 45.275 105.967Z" fill="#0B224E"/>
<path d="M60.0479 106.777C59.4963 105.028 53.4493 104.299 53.4493 104.299C52.4087 104.235 44.3522 104.062 44.2179 107.284C44.1019 110.068 50.4372 118.68 50.4372 118.68L52.2649 117.565C52.2649 117.565 50.7533 112.081 49.0101 109.199C51.5383 109.695 54.1122 109.922 56.6882 109.873C61.1103 109.866 60.0479 106.777 60.0479 106.777Z" fill="#102B5E"/>
<path d="M57.9015 106.601C56.6346 105.444 53.9587 105.019 53.8269 104.969C52.0393 104.299 52.6507 103.356 52.6507 100.009C52.6507 98.8854 52.2785 97.1395 52.4008 96.0544C52.5323 94.8892 53.3456 92.435 56.3285 91.2598C56.3285 91.2598 59.6468 91.2935 60.4192 95.9597C61.1911 100.625 59.3886 101.241 60.9353 106.411C61.5396 108.431 59.4454 108.011 57.9015 106.601Z" fill="#1B90FB"/>
<path d="M58.4489 101.373C57.5964 102.243 54.3461 103.812 52.6723 104.3C52.6608 104.28 52.6502 104.258 52.6396 104.237C52.3602 103.666 52.3622 102.802 52.4629 101.788C52.4871 101.546 52.5591 100.862 52.6507 100.01C55.7675 98.9971 57.961 95.6244 59.3884 95.7005C59.3884 95.7005 60.0934 99.695 58.4489 101.373Z" fill="#1277D7"/>
<path d="M52.0393 105.023H44.7725C44.6766 105.023 44.5846 104.985 44.5168 104.917C44.449 104.849 44.4109 104.757 44.4109 104.661V104.661C44.4109 104.565 44.449 104.473 44.5168 104.406C44.5846 104.338 44.6766 104.3 44.7725 104.3H52.0393C52.1352 104.3 52.2272 104.338 52.295 104.406C52.3628 104.473 52.4009 104.565 52.4009 104.661C52.4009 104.757 52.3628 104.849 52.295 104.917C52.2272 104.985 52.1352 105.023 52.0393 105.023Z" fill="#1B90FB"/>
<path d="M50.0133 102.367C50.0133 102.367 48.4524 102.09 47.5712 102.694C46.69 103.299 46.1613 104.298 46.69 104.339C47.122 104.428 47.5673 104.428 47.9992 104.339C48.6035 104.205 48.1503 103.752 49.2077 103.727C50.2651 103.701 50.5421 103.022 50.5421 103.022C50.5421 103.022 50.5152 102.421 50.0133 102.367Z" fill="#F1B282"/>
<path d="M56.1324 95.4812C56.073 96.7581 56.4402 97.9519 54.4489 99.5395C52.5996 101.014 49.6575 102.036 49.6575 102.036L50.6354 103.727C50.6354 103.727 57.1395 101.725 58.0122 100.718C58.885 99.7108 59.3848 96.8965 59.3886 95.9512C59.3995 93.1744 56.341 90.993 56.1324 95.4812Z" fill="#1B90FB"/>
<path d="M49.8386 87.2609C49.7505 88.1236 50.1664 88.3772 50.208 88.7042C50.2497 89.0311 50.1353 89.7835 50.2627 90.0556C50.3902 90.3276 50.8227 90.1714 51.1018 90.4747C51.3808 90.7781 51.3943 91.3364 51.9027 91.5536C52.4111 91.7708 53.4919 91.1599 53.688 91.5091C54.3382 92.6675 54.0834 94.0615 54.3382 94.2413C54.5154 94.3664 57.4185 91.9506 56.9386 91.3658C56.3285 90.6223 55.9469 90.2213 55.7694 89.3253C55.5918 88.4293 54.5734 85.3086 53.3566 85.4395C52.1399 85.5705 49.9322 86.345 49.8386 87.2609Z" fill="#F1B282"/>
<path d="M56.7213 86.3325C57.0419 88.7049 56.4666 89.841 55.9698 89.9842C55.3343 90.1674 53.9982 87.6119 53.4026 87.844C52.9862 88.0063 52.5711 88.7407 52.2261 88.5655C51.9335 88.4168 52.0784 87.318 51.2634 87.6356C49.5707 88.2952 49.0364 87.6652 48.7183 86.8487C48.4926 85.8428 49.332 84.8835 50.6224 84.1976C51.7143 83.6171 53.0077 82.9673 53.9158 84.3013C53.9158 84.3013 56.3067 83.2648 56.7213 86.3325Z" fill="#0B224E"/>
<path d="M54.0301 92.4149C53.9584 92.0983 53.843 91.7932 53.6871 91.5084C53.548 91.2614 52.9629 91.4988 52.4545 91.5755C53.0571 91.4802 53.6397 91.2857 54.1788 91C54.2676 91.2308 54.3004 91.4794 54.2746 91.7254C54.2488 91.9713 54.165 92.2076 54.0301 92.4149V92.4149Z" fill="#CD916A"/>
<path d="M38.78 116.469C38.6359 117.042 39.2679 117.333 39.5902 117.642C39.9125 117.951 41.093 118.939 41.3602 118.616C41.6274 118.292 41.6066 117.92 41.7994 117.665C41.9922 117.41 42.5035 117.252 42.3302 116.862C42.1568 116.472 41.5393 116.349 41.1704 116.132C40.9006 115.974 40.1827 114.946 39.9592 115.039C39.7358 115.132 39.6975 115.555 39.5265 115.737C39.2728 116.007 38.8918 116.024 38.78 116.469Z" fill="#355AA2"/>
<path d="M52.9452 117.371C52.9979 117.96 52.3282 118.148 51.9614 118.404C51.5946 118.659 50.2741 119.45 50.0608 119.088C49.8476 118.727 49.9263 118.363 49.7758 118.081C49.6253 117.799 49.1449 117.563 49.3772 117.204C49.6094 116.846 50.2385 116.822 50.6368 116.665C50.928 116.551 51.7979 115.648 52.0041 115.775C52.2103 115.902 52.182 116.325 52.3224 116.532C52.5307 116.838 52.9043 116.914 52.9452 117.371Z" fill="#355AA2"/>
<path d="M53.0474 118.3C53.2235 118.136 53.6502 118.241 54.189 118.885C54.7277 119.53 55.2815 119.968 54.7395 120.479C54.399 120.799 52.2439 121.85 50.8763 122.89C50.3208 123.263 49.6404 123.402 48.9832 123.276C48.9213 123.265 48.8638 123.237 48.8171 123.195C48.7703 123.153 48.7363 123.098 48.7189 123.038C48.7028 122.98 48.7053 122.918 48.7258 122.862C48.7464 122.805 48.7841 122.756 48.8337 122.722C49.9717 121.926 50.0678 122.001 50.518 120.808C50.6063 120.465 50.7582 120.143 50.9659 119.856C51.2861 119.59 51.6839 119.761 52.1909 119.309C52.6979 118.857 52.7426 118.583 53.0474 118.3Z" fill="#0B224E"/>
<path d="M40.359 118.934C40.5847 119.017 40.684 119.445 40.3526 120.217C40.0213 120.989 39.8802 121.681 39.1798 121.428C38.7399 121.269 36.8289 119.821 35.2831 119.071C34.6993 118.744 34.2683 118.2 34.0838 117.557C34.0656 117.496 34.0647 117.432 34.0811 117.372C34.0975 117.311 34.1306 117.256 34.1765 117.213C34.2211 117.173 34.2772 117.147 34.337 117.14C34.3968 117.133 34.4574 117.144 34.5104 117.173C35.7344 117.829 35.7108 117.948 36.979 117.811C37.3243 117.735 37.6809 117.724 38.0301 117.78C38.4127 117.946 38.44 118.378 39.0721 118.626C39.7042 118.874 39.9685 118.79 40.359 118.934Z" fill="#0B224E"/>
<path fill-rule="evenodd" clip-rule="evenodd" d="M161.123 158.093C161.123 158.093 163.635 159.182 163.696 159.997L162.983 161.167C162.952 161.218 162.902 161.255 162.843 161.269C162.785 161.283 162.723 161.274 162.672 161.243L162.489 161.131C162.489 161.131 162.598 161.924 162.363 162.31C162.127 162.696 160.616 165.165 160.616 165.165C160.616 165.165 160.406 165.699 159.944 165.418C159.282 165.015 160.466 162.849 160.35 161.828C160.288 161.237 160.132 160.659 159.889 160.117L161.123 158.093Z" fill="#0B224E"/>
<path fill-rule="evenodd" clip-rule="evenodd" d="M151.302 166.744C151.302 166.744 151.68 169.456 151.016 169.933H149.645C149.616 169.933 149.586 169.927 149.559 169.916C149.531 169.904 149.506 169.887 149.485 169.866C149.464 169.845 149.448 169.821 149.436 169.793C149.425 169.766 149.419 169.736 149.419 169.707V169.493C149.419 169.493 148.799 169.998 148.346 169.998C147.894 169.998 144.999 169.992 144.999 169.992C144.999 169.992 144.434 170.09 144.434 169.549C144.434 168.775 146.9 168.659 147.711 168.028C148.183 167.667 148.595 167.234 148.932 166.744H151.302Z" fill="#0B224E"/>
<path d="M150.639 144.598C150.639 144.598 148.108 149.707 147.639 152.286C147.181 154.804 154.237 159.648 159.502 161.444C159.605 161.48 159.719 161.478 159.821 161.439C159.924 161.4 160.01 161.326 160.064 161.231L162.075 157.672C162.139 157.559 162.158 157.426 162.128 157.299C162.097 157.173 162.019 157.062 161.911 156.991L153.405 151.395L155.702 144.598H150.639Z" fill="#0B224E"/>
<path d="M158.28 143.285C158.374 146.426 155.291 153.27 154.981 156.317C154.712 158.957 152.917 165.574 152.442 167.295C152.411 167.408 152.338 167.504 152.239 167.566C152.139 167.627 152.02 167.649 151.906 167.626L148.347 166.92C148.274 166.906 148.205 166.877 148.144 166.834C148.083 166.792 148.031 166.738 147.992 166.675C147.952 166.612 147.926 166.542 147.915 166.468C147.904 166.395 147.908 166.32 147.927 166.248C148.383 164.514 149.757 159.259 150.03 157.817C150.358 156.083 149.889 148.626 150.873 145.066C151.858 141.507 158.28 143.285 158.28 143.285Z" fill="#102B5E"/>
<path d="M145.633 123.584C145.501 123.358 145.417 123.108 145.386 122.849C145.376 122.517 145.585 121.079 145.137 120.037C144.688 118.996 142.013 118.866 141.983 119.116C141.916 119.674 143.675 119.499 143.866 120.837C143.917 121.194 143.562 121.494 143.42 121.401C143.044 121.153 143.014 120.14 142.672 120.137C142.413 120.134 142.056 121.73 142.645 122.469C143.061 122.99 144.066 124.092 144.277 124.941C144.488 125.79 145.857 124.144 145.633 123.584Z" fill="#F1B282"/>
<path d="M146.179 123.297C146.139 123.238 146.077 123.197 146.007 123.184C145.937 123.17 145.865 123.185 145.806 123.225L143.556 124.738C143.49 124.782 143.444 124.851 143.428 124.929C143.412 125.007 143.427 125.088 143.47 125.155C144.377 126.565 148.862 133.44 150.239 133.736L152.472 130.371C152.472 130.371 147.652 125.464 146.179 123.297Z" fill="#1EAF69"/>
<path d="M148.327 123.127C148.019 123.937 148.354 124.29 148.31 124.616C148.265 124.943 147.96 125.64 148.013 125.936C148.065 126.232 148.523 126.193 148.714 126.558C148.905 126.923 148.773 127.466 149.208 127.808C149.643 128.149 150.926 127.827 150.944 128.228C150.962 128.628 151.088 130.142 151.088 130.142L154.187 129.62C154.187 129.62 153.459 127.569 153.52 126.658C153.581 125.746 153.406 122.468 152.197 122.28C150.988 122.091 148.655 122.266 148.327 123.127Z" fill="#F1B282"/>
<path d="M151.17 127.428C150.879 127.757 150.471 127.959 150.033 127.989C150.486 128.008 150.932 127.994 150.944 128.229C150.949 128.315 150.956 128.457 150.968 128.622C151.532 127.936 151.17 127.428 151.17 127.428Z" fill="#CD916A"/>
<path d="M151.458 124.81C151.012 125.067 151.421 123.479 150.902 123.322C150.384 123.164 147.752 124.589 147.299 122.872C146.845 121.155 148.65 120.057 149.544 119.823C150.437 119.588 153.909 118.897 154.766 122.161C155.622 125.425 153.488 126.389 153.184 126.138C152.879 125.888 153.388 123.698 151.458 124.81Z" fill="#0B224E"/>
<path d="M153.686 127.457C153.431 127.266 151.061 128.066 150.967 128.324C150.873 128.582 150.67 130.223 151.108 130.098C151.545 129.973 154.28 128.379 154.217 128.207C154.091 127.925 153.91 127.67 153.686 127.457V127.457Z" fill="#60DFA0"/>
<path d="M149.608 146.098C149.929 147.575 153.805 145.438 155.749 145.16C157.718 144.879 159.921 145.957 160.39 143.848C160.858 141.738 158.046 138.551 157.717 136.394C157.108 130.956 154.905 128.472 154.155 128.331C153.405 128.191 151.014 129.948 151.014 129.948C149.092 134.002 150.686 137.332 150.686 139.49C150.666 140.164 150.557 140.833 150.36 141.478C150.204 142.046 150.016 142.617 149.858 143.187C149.54 144.123 149.454 145.122 149.608 146.098V146.098Z" fill="#45D48F"/>
<path d="M149.858 143.188C151.586 142.766 155.219 141.719 155.999 140.207C157.03 138.207 154.389 133.535 154.389 133.535C155.186 137.238 154.811 141.317 151.858 141.507C151.359 141.533 150.858 141.524 150.36 141.479C150.204 142.046 150.016 142.618 149.858 143.188Z" fill="#1EAF69"/>
<path d="M144.985 83.6201L135.088 82.7716C134.63 82.7335 134.176 82.8783 133.825 83.1743C133.474 83.4703 133.254 83.8933 133.214 84.3508L127.196 154.732C127.156 155.19 127.3 155.644 127.596 155.995C127.891 156.347 128.314 156.566 128.771 156.606L138.669 157.451C139.126 157.49 139.58 157.346 139.932 157.051C140.283 156.755 140.503 156.332 140.542 155.875L142.045 138.283L142.173 136.78L142.194 136.562L142.263 135.731L143.326 123.306L143.489 121.418L143.593 120.199L143.683 119.15L146.561 85.4901C146.581 85.2637 146.555 85.0357 146.487 84.8191C146.418 84.6025 146.308 84.4016 146.161 84.2279C146.015 84.0541 145.836 83.911 145.634 83.8067C145.432 83.7024 145.212 83.639 144.985 83.6201V83.6201Z" fill="#FFD125"/>
<path d="M138.246 87.8727L132.952 87.4199L132.851 88.6021L138.144 89.0549L138.246 87.8727Z" fill="#F0B701"/>
<path d="M137.783 93.2819L132.489 92.8291L132.388 94.0113L137.682 94.4641L137.783 93.2819Z" fill="#F0B701"/>
<path d="M137.32 98.6901L132.027 98.2373L131.925 99.4195L137.219 99.8723L137.32 98.6901Z" fill="#F0B701"/>
<path d="M139.445 104.322L131.564 103.647L131.463 104.83L139.344 105.504L139.445 104.322Z" fill="#F0B701"/>
<path d="M136.395 109.508L131.101 109.056L131 110.238L136.294 110.691L136.395 109.508Z" fill="#F0B701"/>
<path d="M135.932 114.918L130.638 114.465L130.537 115.647L135.831 116.1L135.932 114.918Z" fill="#F0B701"/>
<path d="M135.47 120.326L130.176 119.873L130.075 121.055L135.369 121.508L135.47 120.326Z" fill="#F0B701"/>
<path d="M137.595 125.957L129.713 125.283L129.612 126.465L137.494 127.139L137.595 125.957Z" fill="#F0B701"/>
<path d="M134.544 131.144L129.251 130.691L129.149 131.874L134.443 132.326L134.544 131.144Z" fill="#F0B701"/>
<path d="M134.082 136.553L128.788 136.101L128.687 137.283L133.981 137.736L134.082 136.553Z" fill="#F0B701"/>
<path d="M136.207 142.183L128.325 141.509L128.224 142.691L136.106 143.365L136.207 142.183Z" fill="#F0B701"/>
<path d="M133.156 147.372L127.863 146.919L127.761 148.101L133.055 148.554L133.156 147.372Z" fill="#F0B701"/>
<path d="M144.663 137.418L144.583 138.969C143.763 138.698 142.928 138.472 142.083 138.291C142.069 138.287 142.059 138.287 142.045 138.284C141.172 138.093 139.721 136.292 139.836 136.175C139.95 136.057 140.417 136.247 141.086 136.635C141.415 136.826 141.806 136.878 142.173 136.781C142.245 136.765 142.314 136.742 142.381 136.711C142.381 136.711 142.308 136.653 142.194 136.563L142.263 135.731C142.395 135.787 142.533 135.849 142.665 135.912C143.382 136.247 144.663 137.418 144.663 137.418Z" fill="#F1B282"/>
<path d="M143.139 139.895C143.282 140.014 150.609 142.558 153.111 141.129C155.612 139.7 154.389 133.535 154.389 133.535L150.92 134.151L151.014 137.529C151.014 137.529 146.763 137.367 145.174 136.951C145.054 136.92 144.928 136.928 144.814 136.974C144.7 137.02 144.603 137.101 144.539 137.207C144.049 138.008 142.994 139.775 143.139 139.895Z" fill="#45D48F"/>
<path d="M143.489 121.418L143.326 123.305C143.063 122.969 142.807 122.675 142.644 122.467C142.055 121.73 142.412 120.133 142.672 120.137C143.015 120.14 143.042 121.151 143.42 121.401C143.441 121.414 143.465 121.42 143.489 121.418Z" fill="#F1B282"/>
</g>
<defs>
<clipPath id="clip0">
<path d="M0 0H200C206.627 0 212 5.37258 212 12V208C212 214.627 206.627 220 200 220H0V0Z" fill="white"/>
</clipPath>
</defs>
</svg>
