<svg width="212" height="220" viewBox="0 0 212 220" fill="none" xmlns="http://www.w3.org/2000/svg">
<g clip-path="url(#clip0)">
<path d="M28.8214 82.4515L27.5693 82.9417L38.221 110.008L39.473 109.518L28.8214 82.4515Z" fill="#C54C7C"/>
<path d="M172.44 115.49L47.4531 115.364L53.8252 70.2274L60.0501 66.8779L172.44 115.49Z" fill="white"/>
<path d="M29.9641 89.0123L27.4043 82.5145L50.131 61.2227L51.0599 62.191L45.7849 67.1252L48.0126 71.6275L29.9641 89.0123ZM28.9889 82.8708L30.4768 86.6437L46.3734 71.3466L44.7551 68.0852L28.9889 82.8708Z" fill="#C54C7C"/>
<path d="M66.0779 67.9301C65.2591 66.4094 63.9924 65.1756 62.4487 64.3953C60.9049 63.615 59.1583 63.3255 57.4445 63.5661L54.8427 58.741C54.4413 58.0006 53.7621 57.4491 52.9539 57.2071C52.1456 56.9651 51.2741 57.0524 50.5303 57.4498C50.16 57.647 49.8324 57.9151 49.5661 58.2387C49.2998 58.5622 49.1 58.935 48.9783 59.3356C48.8565 59.7362 48.815 60.1568 48.8563 60.5734C48.8976 60.99 49.0208 61.3944 49.2189 61.7635L51.8248 66.6138C50.694 67.9036 49.9841 69.5064 49.7896 71.2087C49.5951 72.911 49.9253 74.632 50.7362 76.1425L66.0779 67.9301Z" fill="#ED71A2"/>
<path d="M42.5777 112.375V112.371H42.6282L42.5777 109.009H35.075V112.375H30.4473V115.364H47.4534V112.375H42.5777Z" fill="#ED71A2"/>
<g opacity="0.15">
<path opacity="0.15" d="M53.0267 59.353L55.784 64.4884C57.5178 64.246 59.2849 64.5135 60.8685 65.2582C62.452 66.0028 63.7833 67.1922 64.699 68.6805L66.0777 67.9301C65.2589 66.4094 63.9922 65.1756 62.4484 64.3953C60.9047 63.615 59.1581 63.3255 57.4443 63.5661L54.8425 58.741C54.4411 58.0006 53.7619 57.4491 52.9536 57.2071C52.1454 56.9651 51.2739 57.0524 50.53 57.4498C50.4506 57.4919 50.3734 57.538 50.2988 57.5881C50.8653 57.6309 51.412 57.815 51.8886 58.1233C52.3653 58.4317 52.7566 58.8545 53.0267 59.353Z" fill="white"/>
</g>
<path d="M157.178 100.926H141.668C142.427 101.574 143.036 102.377 143.453 103.282C143.87 104.187 144.086 105.171 144.085 106.166C144.085 107.996 143.356 109.752 142.059 111.046C140.761 112.34 139.002 113.067 137.167 113.067H132.413C132.19 113.067 131.976 113.155 131.818 113.312C131.661 113.469 131.572 113.683 131.572 113.905C131.572 114.127 131.661 114.341 131.818 114.498C131.976 114.655 132.19 114.744 132.413 114.744H157.178C158.087 114.744 158.986 114.565 159.826 114.218C160.665 113.872 161.428 113.363 162.07 112.722C162.713 112.082 163.222 111.321 163.57 110.484C163.918 109.647 164.097 108.749 164.097 107.843C164.099 106.936 163.922 106.037 163.575 105.198C163.228 104.358 162.719 103.596 162.076 102.953C161.434 102.311 160.67 101.801 159.83 101.453C158.989 101.105 158.088 100.926 157.178 100.926Z" fill="#E6E0FF"/>
<path d="M157.242 115.481H132.022C131.833 115.467 131.656 115.382 131.527 115.244C131.398 115.105 131.326 114.922 131.326 114.733C131.326 114.544 131.398 114.362 131.527 114.223C131.656 114.084 131.833 113.999 132.022 113.985H157.242C158.878 113.985 160.448 113.336 161.605 112.182C162.762 111.028 163.412 109.463 163.412 107.831C163.412 106.199 162.762 104.633 161.605 103.479C160.448 102.325 158.878 101.677 157.242 101.677C157.052 101.663 156.875 101.578 156.746 101.439C156.617 101.3 156.545 101.118 156.545 100.928C156.545 100.739 156.617 100.557 156.746 100.418C156.875 100.279 157.052 100.194 157.242 100.18C159.276 100.18 161.227 100.986 162.666 102.421C164.104 103.856 164.912 105.802 164.912 107.831C164.912 109.86 164.104 111.806 162.666 113.241C161.227 114.675 159.276 115.481 157.242 115.481Z" fill="#C9C4E5"/>
<g opacity="0.19">
<path opacity="0.19" d="M144.034 105.349H164.496C163.976 103.842 162.998 102.534 161.697 101.607C160.397 100.68 158.839 100.182 157.241 100.18C157.042 100.18 156.852 100.259 156.712 100.399C156.571 100.539 156.493 100.728 156.493 100.926H141.668C142.986 102.051 143.831 103.63 144.034 105.349Z" fill="black"/>
</g>
<path d="M119.446 102.469H179.972C180.66 102.464 181.32 102.196 181.815 101.719C182.309 101.242 182.601 100.593 182.629 99.9077L184.016 60.2543C184.031 59.9218 183.978 59.5898 183.86 59.2784C183.742 58.967 183.561 58.6829 183.33 58.4432C183.098 58.2036 182.82 58.0135 182.512 57.8845C182.205 57.7555 181.874 57.6903 181.54 57.6929H121.014C120.325 57.6967 119.665 57.9649 119.169 58.442C118.674 58.919 118.381 59.5681 118.353 60.2543L116.966 99.9077C116.951 100.241 117.005 100.573 117.123 100.885C117.241 101.196 117.422 101.481 117.654 101.72C117.886 101.96 118.165 102.15 118.473 102.279C118.781 102.407 119.112 102.472 119.446 102.469Z" fill="#F687B3"/>
<path d="M117.185 93.7034L116.966 99.9077C116.951 100.241 117.005 100.573 117.123 100.885C117.241 101.196 117.422 101.481 117.654 101.72C117.886 101.96 118.165 102.15 118.473 102.279C118.781 102.408 119.112 102.472 119.446 102.469H179.972C180.66 102.464 181.32 102.196 181.815 101.719C182.309 101.242 182.601 100.593 182.629 99.9077L182.843 93.7034H117.185Z" fill="#C9C4E5"/>
<path d="M117.626 102.469H178.152C178.84 102.465 179.5 102.197 179.995 101.72C180.49 101.243 180.781 100.594 180.808 99.9077L182.199 60.2544C182.214 59.9215 182.161 59.5891 182.043 59.2774C181.925 58.9658 181.744 58.6814 181.512 58.4417C181.28 58.202 181.001 58.012 180.693 57.8833C180.385 57.7546 180.054 57.6898 179.72 57.693H119.193C118.505 57.6978 117.846 57.9665 117.351 58.4434C116.857 58.9203 116.565 59.5688 116.537 60.2544L115.15 99.9077C115.135 100.24 115.188 100.572 115.306 100.884C115.424 101.195 115.604 101.479 115.836 101.719C116.068 101.958 116.346 102.149 116.653 102.278C116.961 102.407 117.292 102.472 117.626 102.469Z" fill="#F687B3"/>
<path d="M117.996 93.7454H178.442L179.628 59.8059H119.186L117.996 93.7454Z" fill="white"/>
<path d="M115.368 93.7034L115.15 99.9077C115.135 100.24 115.188 100.572 115.306 100.884C115.424 101.195 115.604 101.479 115.836 101.719C116.068 101.958 116.346 102.149 116.653 102.278C116.961 102.407 117.292 102.472 117.626 102.469H178.152C178.84 102.465 179.5 102.197 179.995 101.72C180.49 101.243 180.781 100.594 180.808 99.9077L181.027 93.7034H115.368Z" fill="#E6E0FF"/>
<path d="M146.443 97.8871C146.434 98.0981 146.468 98.3089 146.543 98.5064C146.618 98.704 146.732 98.8843 146.879 99.0364C147.026 99.1886 147.203 99.3093 147.398 99.3913C147.593 99.4733 147.803 99.5149 148.015 99.5136C148.451 99.5086 148.868 99.3372 149.181 99.0346C149.493 98.732 149.678 98.3213 149.696 97.8871C149.705 97.676 149.671 97.4653 149.596 97.2677C149.521 97.0701 149.407 96.8898 149.26 96.7377C149.113 96.5856 148.936 96.4649 148.741 96.3828C148.546 96.3008 148.336 96.2592 148.124 96.2605C147.687 96.2603 147.267 96.4301 146.953 96.7337C146.639 97.0374 146.456 97.4511 146.443 97.8871Z" fill="#C9C4E5"/>
<path d="M178.476 92.6888H120.14L121.199 62.4468H179.535L178.476 92.6888Z" fill="#E6E0FF"/>
<path d="M179.485 63.8848H118.946L119.089 59.8142H179.628L179.485 63.8848Z" fill="#4D0041"/>
<path d="M178.963 78.7962H172.516L173.037 63.8848H179.485L178.963 78.7962Z" fill="#570F4B"/>
<path d="M178.156 62.6271C178.131 62.6267 178.106 62.6213 178.083 62.6113C178.06 62.6012 178.039 62.5866 178.022 62.5684L176.883 61.3904C176.856 61.3536 176.843 61.3085 176.847 61.2632C176.851 61.2179 176.872 61.1756 176.904 61.144C176.937 61.1124 176.98 61.0936 177.025 61.0911C177.071 61.0886 177.116 61.1026 177.152 61.1305L178.291 62.3085C178.326 62.3444 178.345 62.3925 178.345 62.4426C178.345 62.4927 178.326 62.5408 178.291 62.5768C178.254 62.6105 178.206 62.6286 178.156 62.6271Z" fill="#F687B3"/>
<path d="M176.976 62.6272C176.938 62.6267 176.902 62.6152 176.871 62.5942C176.84 62.5731 176.817 62.5435 176.803 62.509C176.789 62.4745 176.785 62.4367 176.793 62.4003C176.801 62.3639 176.819 62.3305 176.845 62.3044L178.068 61.1264C178.085 61.1051 178.106 61.0875 178.13 61.075C178.154 61.0625 178.18 61.0552 178.207 61.0537C178.235 61.0523 178.262 61.0566 178.287 61.0665C178.312 61.0763 178.335 61.0915 178.354 61.1109C178.372 61.1303 178.387 61.1535 178.396 61.1789C178.405 61.2044 178.409 61.2315 178.406 61.2584C178.404 61.2853 178.396 61.3114 178.382 61.3349C178.369 61.3584 178.351 61.3788 178.329 61.3947L177.106 62.5727C177.089 62.59 177.069 62.6038 177.046 62.6132C177.024 62.6225 177 62.6273 176.976 62.6272Z" fill="#F687B3"/>
<path d="M170.653 71.0491H158.216L158.27 69.4016H170.712L170.653 71.0491Z" fill="#4D0041"/>
<path d="M170.44 77.2157H157.998L158.229 70.634H170.671L170.44 77.2157Z" fill="#F687B3"/>
<path d="M130.463 76.2599H123.128L123.162 75.2874H130.5L130.463 76.2599Z" fill="#4D0041"/>
<path d="M130.337 79.8944H123.002L123.136 76.0125H130.475L130.337 79.8944Z" fill="#F687B3"/>
<path d="M130.303 80.8671H122.964L123.002 79.8945H130.336L130.303 80.8671Z" fill="#4D0041"/>
<path d="M130.177 84.5057H122.838L122.972 80.6196H130.311L130.177 84.5057Z" fill="#F687B3"/>
<path d="M175.848 62.6355H174.276L174.331 61.0676H175.895L175.848 62.6355ZM174.663 62.2624H175.504L175.533 61.424H174.692L174.663 62.2624Z" fill="#F687B3"/>
<path d="M178.442 93.7034H117.903L117.975 91.6702H178.514L178.442 93.7034Z" fill="#4D0041"/>
<path d="M120.833 91.6702H117.975L118.946 63.8848H121.804L120.833 91.6702Z" fill="#C54C7C"/>
<path d="M121.06 66.3832H119.518L119.572 64.8447H121.115L121.06 66.3832Z" fill="#F687B3"/>
<path d="M120.963 69.1711H119.421L119.476 67.6326H121.018L120.963 69.1711Z" fill="#F687B3"/>
<path d="M120.863 71.9545H119.324L119.375 70.416H120.917L120.863 71.9545Z" fill="#F687B3"/>
<path d="M120.766 74.7424H119.224L119.278 73.2039H120.821L120.766 74.7424Z" fill="#F687B3"/>
<path d="M120.67 77.5258H119.127L119.182 75.9873H120.724L120.67 77.5258Z" fill="#F687B3"/>
<path d="M120.573 80.3137H119.03L119.085 78.7751H120.627L120.573 80.3137Z" fill="#F687B3"/>
<path d="M179.379 66.924H172.932L172.953 66.3623H179.4L179.379 66.924Z" fill="#F687B3"/>
<path d="M179.274 69.9634H172.826L172.847 69.4016H179.291L179.274 69.9634Z" fill="#F687B3"/>
<path d="M179.165 73.0027H172.718L172.739 72.4409H179.187L179.165 73.0027Z" fill="#F687B3"/>
<path d="M179.06 76.042H172.612L172.633 75.4802H179.081L179.06 76.042Z" fill="#F687B3"/>
<path d="M154.812 88.9368H132.435L133.216 66.6179H155.594L154.812 88.9368Z" fill="white"/>
<path d="M145.917 80.5066H141.403L140.491 82.5733H137.41L142.496 71.9253H145.472L149.835 82.5607H146.691L145.917 80.5066ZM145.11 78.2847L143.849 74.8766L142.357 78.2847H145.11Z" fill="#F687B3"/>
<path d="M138.348 72.4576H137.255L137.293 71.3677H138.386L138.348 72.4576Z" fill="#F687B3"/>
<path d="M150.625 72.4576H149.532L149.574 71.3677H150.667L150.625 72.4576Z" fill="#F687B3"/>
<path d="M150.256 83.0177H149.163L149.205 81.9277H150.298L150.256 83.0177Z" fill="#F687B3"/>
<path d="M137.978 83.0177H136.885L136.923 81.9277H138.015L137.978 83.0177Z" fill="#F687B3"/>
<path d="M149.836 82.6025H137.331L137.709 71.812H150.222L149.836 82.6025ZM137.562 82.372H149.609L149.97 72.0426H137.932L137.562 82.372Z" fill="#F687B3"/>
<path d="M137.882 114.308H112.049V115.481H137.882V114.308Z" fill="#C54C7C"/>
<path d="M125.17 114.312C125.102 114.325 125.033 114.325 124.965 114.311C124.897 114.297 124.833 114.27 124.775 114.231C124.718 114.192 124.669 114.142 124.632 114.084C124.594 114.025 124.569 113.961 124.557 113.893L124.284 112.572C124.258 112.435 124.287 112.293 124.366 112.177C124.445 112.062 124.566 111.982 124.704 111.956C124.772 111.943 124.841 111.944 124.909 111.958C124.977 111.972 125.041 112 125.098 112.038C125.155 112.077 125.204 112.127 125.241 112.185C125.279 112.243 125.305 112.307 125.318 112.375L125.591 113.7C125.603 113.767 125.603 113.837 125.589 113.904C125.574 113.972 125.547 114.036 125.508 114.093C125.469 114.15 125.419 114.198 125.361 114.236C125.303 114.273 125.238 114.299 125.17 114.312Z" fill="#F687B3"/>
<path d="M125.411 112.882L124.39 113.092L122.481 103.777C122.467 103.709 122.467 103.639 122.481 103.572C122.495 103.504 122.522 103.439 122.561 103.382C122.6 103.325 122.651 103.276 122.709 103.239C122.768 103.202 122.833 103.177 122.902 103.165C122.97 103.152 123.04 103.152 123.108 103.166C123.176 103.18 123.241 103.207 123.298 103.246C123.356 103.285 123.405 103.335 123.443 103.393C123.481 103.451 123.507 103.516 123.519 103.584L125.411 112.882Z" fill="#C54C7C"/>
<path d="M50.5805 170H48.4789V133.365C48.4789 127.546 44.8935 122.813 40.4928 122.813H38.6434C34.2384 122.813 30.6573 127.546 30.6573 133.365V170H28.5557V133.365C28.5557 126.393 33.0867 120.717 38.6434 120.717H40.4928C46.062 120.717 50.5805 126.393 50.5805 133.365V170Z" fill="#C54C7C"/>
<path d="M40.5641 116.58H38.5508V121.765H40.5641V116.58Z" fill="#C54C7C"/>
<path d="M183.461 170H181.36V133.365C181.36 127.546 177.774 122.813 173.374 122.813H171.524C167.119 122.813 163.538 127.546 163.538 133.365V170H161.437V133.365C161.437 126.393 165.963 120.717 171.524 120.717H173.374C178.943 120.717 183.461 126.393 183.461 133.365V170Z" fill="#C54C7C"/>
<path d="M173.449 116.58H171.436V121.765H173.449V116.58Z" fill="#C54C7C"/>
<path d="M187 115.49H25V117.67H187V115.49Z" fill="#F687B3"/>
<path d="M104.899 115.481H95.6857C95.307 115.496 94.9292 115.434 94.575 115.3C94.2208 115.165 93.8975 114.961 93.6244 114.699C93.3513 114.437 93.134 114.122 92.9856 113.775C92.8372 113.427 92.7607 113.053 92.7607 112.675C92.7607 112.297 92.8372 111.923 92.9856 111.575C93.134 111.227 93.3513 110.913 93.6244 110.651C93.8975 110.389 94.2208 110.184 94.575 110.05C94.9292 109.915 95.307 109.853 95.6857 109.868H104.899C105.278 109.853 105.656 109.915 106.01 110.05C106.364 110.184 106.687 110.389 106.96 110.651C107.233 110.913 107.451 111.227 107.599 111.575C107.748 111.923 107.824 112.297 107.824 112.675C107.824 113.053 107.748 113.427 107.599 113.775C107.451 114.122 107.233 114.437 106.96 114.699C106.687 114.961 106.364 115.165 106.01 115.3C105.656 115.434 105.278 115.496 104.899 115.481Z" fill="#FE8770"/>
<path d="M100.919 72.0679H99.8174V67.0374H101.251L102.318 69.9718C102.402 70.1918 102.435 70.4279 102.414 70.6623C102.393 70.8967 102.319 71.1234 102.198 71.3252C102.077 71.527 101.911 71.6987 101.713 71.8274C101.516 71.956 101.291 72.0383 101.057 72.0679H100.919Z" fill="#FE8D77"/>
<path d="M96.8455 80.6489H91.457V62.061H101.263C101.427 62.061 101.024 74.4572 100.881 75.5974C100.595 77.857 99.5944 80.6489 96.8455 80.6489Z" fill="#FE9B88"/>
<g opacity="0.15">
<path opacity="0.15" d="M99.8174 62.061V78.9134C100.394 77.8925 100.752 76.7634 100.868 75.5974C101.011 74.4572 101.415 62.061 101.251 62.061H99.8174Z" fill="white"/>
</g>
<path d="M91.852 88.0272H87.8379V71.4851H96.362V81.7349L91.852 88.0272Z" fill="#FE9B88"/>
<path d="M91.0319 80.7498C88.9882 80.7498 87.0281 79.9403 85.5825 78.4994C84.137 77.0584 83.3244 75.104 83.3232 73.0656V72.0679H91.0319V80.7498Z" fill="#FE9B88"/>
<path d="M91.1332 58.7537H84.5467C82.4714 58.7537 80.7891 60.4316 80.7891 62.5014V74.4113C80.7891 76.4811 82.4714 78.159 84.5467 78.159H91.1332C93.2085 78.159 94.8908 76.4811 94.8908 74.4113V62.5014C94.8908 60.4316 93.2085 58.7537 91.1332 58.7537Z" fill="#570F4B"/>
<path d="M101.793 52C101.091 51.9996 100.401 52.1724 99.7823 52.503C99.164 52.8337 98.6374 53.3118 98.2495 53.8948H88.3426C87.2798 53.896 86.261 54.3178 85.5099 55.0677C84.7588 55.8176 84.3369 56.8342 84.3369 57.8941V64.023H100.973C102.081 64.0152 103.156 63.6494 104.037 62.9805C104.919 62.3115 105.559 61.3756 105.862 60.313C106.073 59.5164 106.161 58.6921 106.122 57.869C106.142 57.0048 106.073 56.1409 105.916 55.2908C105.701 54.3592 105.177 53.5272 104.429 52.9299C103.68 52.3326 102.751 52.0049 101.793 52Z" fill="#570F4B"/>
<path d="M94.6598 72.0678C94.2156 72.0624 93.7911 71.884 93.477 71.5707C93.1629 71.2574 92.984 70.834 92.9785 70.391V68.5758C92.9785 68.131 93.1556 67.7045 93.471 67.3901C93.7863 67.0756 94.2139 66.8989 94.6598 66.8989C95.1077 66.8989 95.5375 67.0749 95.8561 67.3888C96.1748 67.7027 96.3566 68.1291 96.3621 68.5758V70.37C96.361 70.82 96.1813 71.2512 95.8623 71.5693C95.5433 71.8875 95.1109 72.0667 94.6598 72.0678Z" fill="#FE9B88"/>
<path d="M92.8105 61.3569H98.1654V66.0144C98.1654 67.0539 97.7514 68.0509 97.0144 68.786C96.2774 69.5211 95.2777 69.934 94.2354 69.934H92.8105V61.3569Z" fill="#570F4B"/>
<path d="M101.499 65.9432H101.045C101.005 65.9437 100.966 65.9364 100.93 65.9217C100.893 65.9069 100.86 65.885 100.832 65.8573C100.804 65.8295 100.782 65.7965 100.768 65.7601C100.753 65.7237 100.746 65.6848 100.746 65.6455C100.746 65.6065 100.754 65.5677 100.769 65.5316C100.784 65.4955 100.806 65.4627 100.834 65.4351C100.861 65.4074 100.894 65.3855 100.93 65.3706C100.967 65.3556 101.005 65.3479 101.045 65.3479H101.499C101.538 65.3479 101.576 65.3556 101.613 65.3706C101.649 65.3855 101.682 65.4074 101.71 65.4351C101.737 65.4627 101.759 65.4955 101.774 65.5316C101.789 65.5677 101.797 65.6065 101.797 65.6455C101.797 65.6846 101.789 65.7233 101.774 65.7594C101.759 65.7956 101.737 65.8284 101.71 65.856C101.682 65.8836 101.649 65.9056 101.613 65.9205C101.576 65.9355 101.538 65.9432 101.499 65.9432Z" fill="#570F4B"/>
<path d="M98.2117 71.5732V64.0273L96.3623 67.9302V81.7223H98.2117C99.1793 81.7223 100.107 81.3389 100.792 80.6565C101.476 79.9741 101.86 79.0486 101.86 78.0835V75.2119C101.86 74.8784 101.727 74.5585 101.491 74.3227C101.254 74.0868 100.934 73.9543 100.599 73.9543C100.285 73.9565 99.9735 73.8965 99.6829 73.7776C99.3922 73.6587 99.1281 73.4834 98.906 73.2619C98.6839 73.0403 98.5081 72.7769 98.3889 72.487C98.2697 72.1971 98.2095 71.8865 98.2117 71.5732Z" fill="#570F4B"/>
<g opacity="0.15">
<path opacity="0.15" d="M95.6135 66.0145C95.6185 66.86 95.349 67.6845 94.8452 68.3646C94.3413 69.0447 93.6303 69.5438 92.8184 69.7874V69.9551H94.2432C95.2855 69.9551 96.2852 69.5421 97.0222 68.807C97.7592 68.0719 98.1732 67.075 98.1732 66.0354V64.0232H95.6135V66.0145Z" fill="white"/>
</g>
<g opacity="0.15">
<path opacity="0.15" d="M106.122 57.8691C106.142 57.005 106.072 56.1411 105.916 55.2909C105.79 54.7182 105.546 54.1781 105.198 53.7054C104.85 53.2328 104.407 52.8381 103.897 52.547C103.387 52.2558 102.821 52.0746 102.236 52.0151C101.651 51.9555 101.061 52.019 100.502 52.2013C101.202 52.428 101.831 52.8305 102.33 53.3702C102.828 53.9099 103.179 54.5685 103.348 55.2826C103.504 56.1327 103.573 56.9966 103.554 57.8607C103.596 58.6862 103.511 59.5134 103.301 60.3131C102.999 61.3757 102.359 62.3117 101.477 62.9806C100.596 63.6495 99.5206 64.0153 98.4131 64.0231H100.973C102.08 64.0153 103.156 63.6495 104.037 62.9806C104.918 62.3117 105.558 61.3757 105.861 60.3131C106.073 59.5165 106.161 58.6923 106.122 57.8691Z" fill="white"/>
</g>
<path d="M108.909 116.601C102.949 116.601 98.1616 110.61 95.7237 105.022C93.8365 100.692 92.3611 96.6378 90.6462 91.9636L90.4234 91.3557C90.2903 91.0082 90.2279 90.6378 90.2397 90.2661C90.2515 89.8943 90.3373 89.5286 90.4922 89.1902C90.6471 88.8518 90.8679 88.5476 91.1418 88.2951C91.4157 88.0427 91.7372 87.8471 92.0876 87.7198C92.438 87.5924 92.8103 87.5359 93.1828 87.5534C93.5553 87.571 93.9206 87.6622 94.2575 87.8219C94.5943 87.9816 94.8959 88.2065 95.1447 88.4836C95.3936 88.7606 95.5847 89.0843 95.7069 89.4357L95.9296 90.0436C97.6109 94.6549 99.0568 98.6123 100.877 102.788C102.491 106.481 106.156 111.688 109.678 110.904C112.919 110.183 120.254 107.6 120.329 107.571L120.645 107.483C122.476 107.142 124.339 107.002 126.201 107.064C126.576 107.066 126.947 107.142 127.292 107.29C127.637 107.437 127.949 107.651 128.209 107.92C128.47 108.189 128.673 108.508 128.809 108.857C128.944 109.206 129.008 109.578 128.997 109.952C128.985 110.326 128.899 110.694 128.743 111.034C128.587 111.374 128.365 111.68 128.089 111.933C127.813 112.186 127.488 112.382 127.135 112.508C126.782 112.634 126.408 112.689 126.033 112.668C124.694 112.632 123.354 112.723 122.032 112.941C120.855 113.36 114.222 115.657 110.906 116.395C110.25 116.539 109.58 116.608 108.909 116.601Z" fill="#FE9B88"/>
<path d="M94.6218 105.206C94.5881 105.11 91.1415 95.1831 89.4014 90.4124L96.7234 87.7546C98.4887 92.584 101.952 102.565 101.986 102.666L94.6218 105.206Z" fill="#F687B3"/>
<path d="M93.8314 127.345L65.6699 126.725L67.057 89.9095C67.4521 85.361 73.076 80.9258 77.6322 81.2821L89.6072 82.2379C91.7963 82.4143 93.8256 83.4504 95.249 85.1185C96.6725 86.7866 97.3736 88.9501 97.1982 91.1336L93.8314 127.345Z" fill="#F687B3"/>
<path d="M120.139 166.143H116.668L116.176 156.476L121.27 156.506L121.547 164.768C121.542 165.136 121.391 165.487 121.127 165.745C120.863 166.002 120.508 166.146 120.139 166.143Z" fill="#FE9B88"/>
<path d="M116.38 162.608L119.116 162.651C119.362 162.655 119.597 162.757 119.768 162.933C119.94 163.11 120.034 163.347 120.03 163.593L120.006 165.072L115.412 164.999L115.436 163.519C115.44 163.273 115.542 163.039 115.719 162.868C115.896 162.698 116.134 162.604 116.38 162.608Z" fill="#4D0041"/>
<path d="M125.062 164.63L116.954 164.584C116.753 164.583 116.554 164.621 116.368 164.697C116.182 164.772 116.012 164.884 115.87 165.025C115.727 165.166 115.613 165.333 115.535 165.518C115.457 165.703 115.417 165.901 115.416 166.101L115.395 169.925L125.032 169.979L128.702 170V168.323C128.706 167.842 128.616 167.365 128.435 166.919C128.255 166.473 127.988 166.067 127.649 165.724C127.311 165.381 126.909 165.108 126.465 164.92C126.021 164.732 125.544 164.634 125.062 164.63Z" fill="#570F4B"/>
<path d="M122.094 164.626H121.834L115.441 164.592L115.411 169.941L121.8 169.975L125.049 169.996H125.469V168.319C125.481 167.391 125.139 166.494 124.512 165.808C123.886 165.123 123.021 164.7 122.094 164.626Z" fill="#4D0041"/>
<path d="M114.428 159.654L113.528 137.167C113.248 135.649 112.42 134.285 111.202 133.333C109.983 132.381 108.458 131.906 106.912 131.998H106.761H106.606C101.003 131.923 91.8397 131.814 91.1041 131.827L90.8604 123.103C91.5623 123.078 101.969 123.208 106.58 123.27C110.312 123.085 113.979 124.291 116.868 126.654C119.758 129.016 121.663 132.366 122.212 136.052L122.25 136.291V136.539L123.17 159.319L114.428 159.654Z" fill="#4D0041"/>
<path d="M131.871 148.117L128.437 148.633L126.008 139.226L131.052 138.467L133.044 146.528C133.072 146.709 133.064 146.894 133.02 147.072C132.976 147.25 132.898 147.418 132.789 147.566C132.68 147.713 132.543 147.838 132.385 147.933C132.228 148.027 132.053 148.09 131.871 148.117Z" fill="#FE9B88"/>
<path d="M128.46 144.938L129.683 144.765C130.125 144.703 130.573 144.818 130.929 145.085C131.286 145.353 131.521 145.75 131.583 146.19L131.683 146.892L127.105 147.537L127.006 146.836C126.975 146.616 126.988 146.392 127.044 146.177C127.1 145.962 127.199 145.76 127.335 145.583C127.47 145.407 127.639 145.259 127.832 145.148C128.025 145.037 128.239 144.966 128.46 144.938Z" fill="#4D0041"/>
<path d="M136.498 145.862L128.483 147.065C128.284 147.095 128.093 147.163 127.921 147.266C127.749 147.37 127.599 147.506 127.479 147.667C127.36 147.828 127.273 148.011 127.225 148.206C127.176 148.4 127.167 148.602 127.197 148.8L127.768 152.573L137.297 151.144L140.929 150.595L140.676 148.918C140.527 147.961 140.004 147.102 139.221 146.529C138.437 145.956 137.458 145.716 136.498 145.862Z" fill="#570F4B"/>
<path d="M133.561 146.323L133.3 146.365L126.995 147.312L127.794 152.603L134.099 151.655L137.31 151.173L137.73 151.11L137.478 149.434C137.34 148.517 136.86 147.687 136.133 147.11C135.406 146.532 134.487 146.251 133.561 146.323Z" fill="#4D0041"/>
<path d="M125.037 143.309C125.007 143.137 121.502 125.58 112.381 125.58C108.287 125.58 92.9031 129.378 84.1646 131.768L81.8486 123.35C84.2781 122.688 105.773 116.852 112.381 116.852C128.929 116.852 133.464 140.747 133.649 141.749L125.037 143.309Z" fill="#570F4B"/>
<path d="M113.561 136.84C113.33 135.276 112.518 133.855 111.287 132.858C110.056 131.862 108.494 131.362 106.912 131.458L106.433 126.523C120.669 122.331 121.03 127.781 122.211 135.524L113.561 136.84Z" fill="#4D0041"/>
<path d="M67.7051 112.895H95.6858V125.094C95.6858 126.161 95.475 127.218 95.0655 128.205C94.6559 129.191 94.0555 130.087 93.2987 130.842C92.542 131.596 91.6435 132.195 90.6547 132.604C89.6659 133.012 88.6061 133.222 87.5358 133.222H75.1111C73.1469 133.222 71.2632 132.444 69.8743 131.059C68.4854 129.674 67.7051 127.795 67.7051 125.836V112.895Z" fill="#570F4B"/>
<path d="M83.6977 165.724C83.3477 165.724 83.012 165.585 82.7645 165.339C82.517 165.092 82.3779 164.757 82.3779 164.408V148.029C82.3969 147.693 82.5441 147.378 82.7891 147.147C83.0341 146.916 83.3585 146.787 83.6956 146.787C84.0328 146.787 84.3572 146.916 84.6022 147.147C84.8472 147.378 84.9943 147.693 85.0133 148.029V164.408C85.0133 164.756 84.8749 165.09 84.6283 165.337C84.3817 165.584 84.047 165.723 83.6977 165.724Z" fill="#ACA7C4"/>
<path d="M86.2369 163.859H81.1553C80.308 163.859 79.6211 164.544 79.6211 165.389V168.466C79.6211 169.311 80.308 169.996 81.1553 169.996H86.2369C87.0842 169.996 87.7711 169.311 87.7711 168.466V165.389C87.7711 164.544 87.0842 163.859 86.2369 163.859Z" fill="#F687B3"/>
<path d="M99.6405 165.724C99.2908 165.723 98.9558 165.584 98.7085 165.337C98.4612 165.091 98.3218 164.757 98.3207 164.408V162.769L83.6977 162.802C83.3477 162.802 83.012 162.664 82.7645 162.417C82.517 162.17 82.3779 161.835 82.3779 161.486C82.3779 161.137 82.517 160.802 82.7645 160.555C83.012 160.308 83.3477 160.17 83.6977 160.17L99.6405 160.132C99.9905 160.132 100.326 160.271 100.574 160.517C100.821 160.764 100.96 161.099 100.96 161.448V164.408C100.959 164.757 100.82 165.091 100.573 165.337C100.325 165.584 99.9902 165.723 99.6405 165.724Z" fill="#ACA7C4"/>
<path d="M102.183 163.859H97.1015C96.2543 163.859 95.5674 164.544 95.5674 165.389V168.466C95.5674 169.311 96.2543 169.996 97.1015 169.996H102.183C103.031 169.996 103.717 169.311 103.717 168.466V165.389C103.717 164.544 103.031 163.859 102.183 163.859Z" fill="#F687B3"/>
<path d="M97.0301 163.863C96.6361 163.88 96.264 164.048 95.9915 164.333C95.7189 164.617 95.567 164.995 95.5674 165.389V168.47C95.5674 168.859 95.7224 169.232 95.9983 169.507C96.2742 169.783 96.6483 169.937 97.0385 169.937C97.4287 169.937 97.8028 169.783 98.0787 169.507C98.3546 169.232 98.5096 168.859 98.5096 168.47V165.389C98.5088 164.993 98.3542 164.613 98.0783 164.328C97.8024 164.044 97.4267 163.877 97.0301 163.863Z" fill="#ED71A2"/>
<path d="M67.7807 165.724C67.4311 165.723 67.096 165.584 66.8487 165.337C66.6015 165.091 66.462 164.757 66.4609 164.408V161.448C66.4626 161.099 66.6032 160.764 66.8518 160.517C66.9723 160.393 67.1174 160.294 67.278 160.227C67.4386 160.161 67.6112 160.128 67.7849 160.132L83.7277 160.17C84.0778 160.17 84.4134 160.308 84.661 160.555C84.9085 160.802 85.0475 161.137 85.0475 161.486C85.0475 161.835 84.9085 162.17 84.661 162.417C84.4134 162.664 84.0778 162.802 83.7277 162.802L69.1048 162.769V164.408C69.1036 164.757 68.9637 165.092 68.7155 165.339C68.4673 165.586 68.1312 165.724 67.7807 165.724Z" fill="#ACA7C4"/>
<path d="M70.3193 170H65.6958C65.1696 170 64.665 169.792 64.293 169.42C63.9209 169.049 63.7119 168.546 63.7119 168.021V165.389C63.7119 164.983 63.8735 164.594 64.1612 164.307C64.449 164.02 64.8392 163.859 65.2461 163.859H70.3193C70.7262 163.859 71.1164 164.02 71.4042 164.307C71.6919 164.594 71.8535 164.983 71.8535 165.389V168.466C71.8541 168.667 71.8148 168.866 71.7379 169.053C71.6611 169.239 71.5482 169.408 71.4056 169.55C71.2631 169.693 71.0938 169.806 70.9074 169.883C70.721 169.96 70.5212 170 70.3193 170Z" fill="#F687B3"/>
<path d="M70.3943 163.863C70.7887 163.88 71.1612 164.048 71.4344 164.332C71.7076 164.617 71.8605 164.995 71.8612 165.389V168.47C71.8612 168.859 71.7062 169.232 71.4303 169.507C71.1544 169.783 70.7802 169.937 70.3901 169.937C69.9999 169.937 69.6257 169.783 69.3498 169.507C69.0739 169.232 68.9189 168.859 68.9189 168.47V165.389C68.9187 164.993 69.0724 164.613 69.3476 164.329C69.6228 164.044 69.998 163.877 70.3943 163.863Z" fill="#ED71A2"/>
<path d="M83.6976 153.449C83.4378 153.45 83.1805 153.399 82.9403 153.301C82.7002 153.202 82.4819 153.057 82.298 152.874C82.1141 152.691 81.9682 152.473 81.8687 152.234C81.7692 151.995 81.7179 151.738 81.7179 151.479V135.549C81.7056 135.282 81.7476 135.016 81.8414 134.766C81.9353 134.516 82.0789 134.288 82.2638 134.094C82.4486 133.901 82.6708 133.748 82.9169 133.643C83.163 133.538 83.4279 133.484 83.6955 133.484C83.9632 133.484 84.2281 133.538 84.4741 133.643C84.7202 133.748 84.9424 133.901 85.1273 134.094C85.3121 134.288 85.4558 134.516 85.5496 134.766C85.6434 135.016 85.6855 135.282 85.6731 135.549V151.479C85.6731 152.002 85.465 152.503 85.0945 152.872C84.724 153.242 84.2216 153.449 83.6976 153.449Z" fill="#F687B3"/>
<path d="M86.6654 143.497H80.7305V156.396H86.6654V143.497Z" fill="#ED71A2"/>
<path d="M61.261 136.882H101.002V138.882C101.002 139.428 100.785 139.951 100.398 140.337C100.011 140.723 99.4858 140.94 98.9385 140.94H63.2491C62.7173 140.94 62.2074 140.73 61.8314 140.355C61.4554 139.98 61.2441 139.471 61.2441 138.941V136.882H61.261Z" fill="#ED71A2"/>
<path d="M101.002 131.697H61.2607V138.274H101.002V131.697Z" fill="#E6E0FF"/>
<path d="M107.383 136.438L101.007 138.274V131.697H106.891C107.119 131.697 107.344 131.741 107.554 131.828C107.764 131.915 107.955 132.042 108.116 132.202C108.277 132.363 108.404 132.553 108.491 132.763C108.578 132.972 108.623 133.197 108.623 133.424V134.778C108.624 135.151 108.504 135.514 108.28 135.814C108.057 136.113 107.742 136.332 107.383 136.438Z" fill="#C9C4E5"/>
<path d="M97.0013 127.664H66.0111L64.5273 85.3022H95.5176L97.0013 127.664Z" fill="#C9C4E5"/>
<path d="M91.9444 127.664H60.9541L59.4746 85.3022H90.4649L91.9444 127.664Z" fill="#E6E0FF"/>
<path d="M88.6534 125.408H64.2748C63.9805 125.405 63.6986 125.29 63.4874 125.085C63.2761 124.881 63.1517 124.603 63.1399 124.31L61.8789 88.6518C61.8727 88.5095 61.8955 88.3673 61.9459 88.234C61.9964 88.1007 62.0735 87.979 62.1726 87.8763C62.2716 87.7736 62.3905 87.692 62.5221 87.6365C62.6537 87.581 62.7953 87.5528 62.9382 87.5535H87.3167C87.611 87.5565 87.8929 87.6721 88.1042 87.8765C88.3154 88.081 88.4398 88.3585 88.4516 88.6518L89.7126 124.31C89.7188 124.452 89.696 124.595 89.6456 124.728C89.5951 124.861 89.518 124.983 89.419 125.086C89.3199 125.188 89.201 125.27 89.0694 125.325C88.9378 125.381 88.7962 125.409 88.6534 125.408Z" fill="#C9C4E5"/>
<path d="M88.5614 82.9338H67.827L67.373 70.0137H88.1075L88.5614 82.9338Z" fill="#C9C4E5"/>
<path d="M85.1773 82.9338H64.4429L63.9932 70.0137H84.7276L85.1773 82.9338Z" fill="#E6E0FF"/>
<path d="M77.4559 91.406H73.1098C72.8147 91.404 72.5318 91.2889 72.3197 91.0843C72.1076 90.8798 71.9826 90.6016 71.9707 90.3076L71.5126 77.2072C71.5069 77.0648 71.5302 76.9228 71.5812 76.7897C71.6322 76.6566 71.7098 76.5352 71.8092 76.4329C71.9086 76.3306 72.0279 76.2495 72.1597 76.1945C72.2915 76.1395 72.4331 76.1118 72.576 76.1131H76.9179C77.2122 76.1149 77.4946 76.2295 77.7066 76.4332C77.9186 76.6368 78.044 76.9139 78.057 77.2072L78.5151 90.3076C78.5214 90.45 78.4986 90.5921 78.4481 90.7255C78.3976 90.8588 78.3205 90.9805 78.2215 91.0832C78.1224 91.1859 78.0035 91.2674 77.8719 91.3229C77.7403 91.3784 77.5988 91.4067 77.4559 91.406Z" fill="#F687B3"/>
<path d="M79.1622 120.013H74.8119C74.206 120.013 73.7148 120.503 73.7148 121.107V141.531C73.7148 142.136 74.206 142.626 74.8119 142.626H79.1622C79.7681 142.626 80.2592 142.136 80.2592 141.531V121.107C80.2592 120.503 79.7681 120.013 79.1622 120.013Z" fill="#F687B3"/>
<path d="M79.0994 79.1777H70.8737C70.5794 79.1758 70.297 79.0612 70.085 78.8575C69.873 78.6539 69.7476 78.3768 69.7346 78.0835L69.6211 74.8682C69.6148 74.7254 69.6378 74.5829 69.6885 74.4493C69.7392 74.3157 69.8167 74.1938 69.9162 74.0911C70.0157 73.9883 70.1351 73.9068 70.2672 73.8516C70.3993 73.7964 70.5413 73.7685 70.6845 73.7698H78.9102C79.2045 73.7728 79.4864 73.8885 79.6976 74.0929C79.9089 74.2973 80.0332 74.5749 80.0451 74.8682L80.1586 78.0835C80.1643 78.2255 80.141 78.3672 80.0903 78.5001C80.0396 78.6329 79.9624 78.7541 79.8634 78.8563C79.7644 78.9586 79.6457 79.0398 79.5144 79.095C79.383 79.1502 79.2419 79.1783 79.0994 79.1777Z" fill="#F687B3"/>
<g opacity="0.19">
<path opacity="0.19" d="M78.204 81.3493H71.6596L71.584 79.1777H78.1242L78.204 81.3493Z" fill="black"/>
</g>
</g>
<defs>
<clipPath id="clip0">
<rect width="162" height="118" fill="white" transform="translate(25 52)"/>
</clipPath>
</defs>
</svg>
