<svg width="212" height="220" viewBox="0 0 212 220" fill="none" xmlns="http://www.w3.org/2000/svg">
<g clip-path="url(#clip0)">
<path opacity="0.68" d="M106.138 61.6824H72.7822V84.9319H106.138V61.6824Z" fill="#313F4D"/>
<path d="M104.563 62.4141H74.3555V84.2377H104.563V62.4141Z" fill="white"/>
<path opacity="0.34" d="M100.503 63.8437C101.537 63.2919 102.608 62.8142 103.708 62.4141H82.0723C82.5678 62.6729 83.0414 62.9722 83.4883 63.309C85.7479 65.0041 87.6761 67.8292 90.7417 67.8937C94.2818 67.9733 97.4829 65.3757 100.503 63.8437Z" fill="#FCD66A"/>
<path opacity="0.34" d="M90.4779 78.7544C86.516 78.8909 84.4146 75.7472 83.1981 72.3836C82.4449 70.3435 81.7218 68.6901 79.7221 67.6169C78.0719 66.7527 76.1745 66.4939 74.3555 66.885V84.2302H104.559V71.5152C99.9796 73.8663 95.7654 78.5762 90.4779 78.7544Z" fill="#FCD66A"/>
<path opacity="0.68" d="M88.1512 88.3938H72.3301V109.072H88.1512V88.3938Z" fill="#D2A120"/>
<path d="M87.4099 89.0464H73.0801V108.454H87.4099V89.0464Z" fill="white"/>
<path opacity="0.16" d="M75.6817 96.953C76.1883 97.3086 76.5548 97.832 76.7174 98.4319C77.045 96.9719 77.6099 95.6523 79.557 95.9632C80.1149 96.044 80.6455 96.2583 81.1042 96.5882C81.5629 96.9182 81.9364 97.354 82.1932 97.8593C82.2917 98.0882 82.3649 98.3272 82.4116 98.5722C82.8523 97.4611 83.5414 96.5358 84.8106 96.278C85.2746 96.1874 85.7536 96.2137 86.205 96.3546C86.6564 96.4955 87.0662 96.7467 87.3979 97.0857V89.0464H73.0869V96.5738C73.5187 96.4276 73.9785 96.3858 74.4292 96.4517C74.88 96.5175 75.3091 96.6893 75.6817 96.953Z" fill="#5C473E"/>
<path opacity="0.16" d="M85.8384 100.074C85.7292 99.9221 85.5183 99.395 85.3489 99.2926C85.3158 99.3994 85.2742 99.5034 85.2246 99.6035C84.7839 100.567 84.6973 101.674 84.3998 102.687C84.1889 103.415 83.319 104.037 82.5469 103.745C80.6149 103.013 79.8655 101.295 79.5567 99.3343C79.5591 99.3028 79.5591 99.2711 79.5567 99.2395C79.555 99.2597 79.555 99.28 79.5567 99.3002C79.5803 100.048 79.4075 100.788 79.0558 101.447C78.3026 102.743 76.1974 103.521 74.9697 102.421C74.5135 101.959 74.2221 101.357 74.1411 100.711C74.0809 100.415 74.1411 99.8045 73.9566 99.5732C73.9152 99.194 73.8285 99.2167 73.7043 99.6528C73.5483 99.7678 73.419 99.9155 73.3254 100.086C73.2317 100.256 73.176 100.445 73.162 100.639C73.1496 100.739 73.1308 100.837 73.1055 100.935V108.47H87.4164V101.314C86.772 101.081 86.2189 100.647 85.8384 100.074Z" fill="#5C473E"/>
<path opacity="0.68" d="M106.111 88.3938H90.29V109.072H106.111V88.3938Z" fill="#313F4D"/>
<path d="M105.369 89.0464H91.0391V108.454H105.369V89.0464Z" fill="white"/>
<path opacity="0.43" d="M97.705 89.0464H91.0391V95.0531C93.3363 93.1381 95.5395 91.1169 97.705 89.0464Z" fill="#FCD66A"/>
<path opacity="0.43" d="M91.0391 98.9097V101.124C91.9919 100.191 92.9635 99.2662 93.9238 98.3409C96.9216 95.4513 99.9508 92.5933 103.011 89.7669C103.267 89.5242 103.531 89.2853 103.791 89.0464H102.01C98.477 92.4745 94.8955 95.8495 91.0391 98.9097Z" fill="#FCD66A"/>
<path opacity="0.43" d="M104.601 92.4102C101.369 95.4135 98.1682 98.4472 94.9972 101.511C93.6904 102.778 92.4061 104.283 91.0391 105.683V108.47H105.35V91.7048L104.601 92.4102Z" fill="#FCD66A"/>
<path opacity="0.68" d="M120.4 61.6179H108.854V83.6615H120.4V61.6179Z" fill="#313F4D"/>
<path d="M119.85 62.3118H109.396V83.0054H119.85V62.3118Z" fill="white"/>
<path opacity="0.28" d="M115.643 69.3802C113.699 69.9452 111.413 69.7177 109.402 69.2778V70.1727C110.264 70.088 111.133 70.2182 111.933 70.5519C113.643 71.208 114.991 72.5049 116.675 71.2345C117.804 70.3889 118.659 69.2588 119.861 68.5269V67.613C118.414 68.015 117.1 68.9517 115.643 69.3802Z" fill="#D2A120"/>
<path opacity="0.28" d="M116.555 65.7209C117.595 65.1788 118.706 64.7844 119.854 64.5491V62.3118H109.396V66.1608C111.919 66.7865 114.209 66.8547 116.555 65.7209Z" fill="#D2A120"/>
<path opacity="0.28" d="M114.909 76.2289C116.792 75.9331 118.389 74.4466 119.854 73.1307V72.3723C119.21 73.0419 118.501 73.6441 117.737 74.1698C117.162 74.5274 116.517 74.7582 115.847 74.8471C115.176 74.936 114.495 74.8809 113.847 74.6855C112.461 74.2684 110.68 72.6871 109.396 73.3658V74.3708C111.305 74.8979 112.89 76.5474 114.909 76.2289Z" fill="#D2A120"/>
<path opacity="0.28" d="M116.208 79.0276C114.932 79.4149 113.571 79.4149 112.295 79.0276C111.279 78.6977 110.394 77.8445 109.396 77.4615V83.0132H119.854V77.0254C118.774 77.9165 117.537 78.5957 116.208 79.0276Z" fill="#D2A120"/>
<path opacity="0.68" d="M70.3639 61.6179H38.7217V108.765H70.3639V61.6179Z" fill="#D2A120"/>
<path d="M68.8687 63.1042H40.2129V107.362H68.8687V63.1042Z" fill="white"/>
<path opacity="0.65" d="M40.2846 94.302L49.6959 83.6423L57.9285 94.1541L68.8123 84.5297L68.8726 107.362H40.2168L40.2846 94.302Z" fill="#CD8025"/>
<path opacity="0.64" d="M54.6969 77.719C56.4836 77.719 57.932 76.2606 57.932 74.4615C57.932 72.6625 56.4836 71.2041 54.6969 71.2041C52.9103 71.2041 51.4619 72.6625 51.4619 74.4615C51.4619 76.2606 52.9103 77.719 54.6969 77.719Z" fill="#D2A120"/>
<path d="M38.7217 61.6179L40.2168 63.1044H68.8726L70.3639 61.6179H38.7217Z" fill="#D2A120"/>
<path d="M38.7217 108.769L40.2168 107.362H68.8726L70.3639 108.769H38.7217Z" fill="#D2A120"/>
<path opacity="0.68" d="M120.4 86.7253H108.854V108.769H120.4V86.7253Z" fill="#D2A120"/>
<path d="M119.85 87.4194H109.396V108.113H119.85V87.4194Z" fill="white"/>
<path d="M111.312 108.227H120.101L114.848 98.5533L113.616 104.355L109.293 95.6523L109.395 108.113L111.312 108.227Z" fill="#FCD66A"/>
<path d="M155.396 113.331H42.6186C39.8877 113.331 37.6738 115.56 37.6738 118.31V142.072C37.6738 144.821 39.8877 147.051 42.6186 147.051H155.396C158.127 147.051 160.341 144.821 160.341 142.072V118.31C160.341 115.56 158.127 113.331 155.396 113.331Z" fill="#FCD66A"/>
<path d="M164.812 146.573H30.2666V159.337H123.295V170.115H171.045V148.363H164.812V146.573Z" fill="#FCD66A"/>
<path opacity="0.19" d="M127.905 161.563C127.458 161.577 127.011 161.525 126.579 161.407C125.771 161.229 125.041 160.791 124.5 160.16C123.932 159.583 123.601 158.811 123.574 157.998V154.828H30.2666V161.309H123.288V170.114H171.045V161.563H127.905Z" fill="#D2A120"/>
<path d="M123.416 159.436H28.4287V161.639H123.416V159.436Z" fill="#D2A120"/>
<path opacity="0.35" d="M165.083 152.386C163.547 152.686 161.694 152.504 160.564 151.844C159.332 151.207 158.99 150.13 159.532 149.246V147.036H37.2637V151.863L123.416 152.079L123.679 155.018L171.225 154.737L171.489 152.5L165.083 152.386Z" fill="#FEF2DE"/>
<path d="M171.046 167.327H123.296V170.114H171.046V167.327Z" fill="#D2A120"/>
<path d="M28.9904 160.361C28.9904 160.361 29.2503 165.913 31.3066 165.962C33.3628 166.011 32.4816 159.337 32.4816 159.337C32.4816 159.337 28.5235 158.685 28.9904 160.361Z" fill="#D2A120"/>
<path d="M158.011 126.967C157.144 127.05 156.288 127.22 155.454 127.476C155.225 127.548 155.006 127.635 154.776 127.707C154.4 127.908 154.001 128.086 153.624 128.329C153.492 128.412 153.021 128.746 152.826 128.879L152.377 129.281C152.095 129.55 151.831 129.834 151.564 130.122C151.462 130.232 151.368 130.346 151.274 130.464C150.789 131.158 150.35 131.884 149.96 132.637C149.907 132.735 149.7 133.179 149.583 133.395C149.466 133.611 149.289 134.135 149.259 134.226C148.679 135.892 148.243 137.606 147.956 139.349C147.922 139.553 147.802 140.433 147.798 140.418C147.757 140.797 147.715 141.146 147.681 141.51C147.602 142.371 147.549 143.236 147.512 144.104C147.474 145.06 147.458 146.015 147.463 146.971L160.007 154.642L165.491 127.771C163.024 127.328 160.538 126.861 158.011 126.967Z" fill="#FCD66A"/>
<path d="M44.6827 140.578C44.1253 136.816 42.6829 132.531 40.6379 129.311C39.7489 127.982 38.6775 126.785 37.4556 125.758L29.9688 128.488L39.365 152.045L44.9388 146.702C45.0551 144.657 44.9693 142.606 44.6827 140.578Z" fill="#FCD66A"/>
<path opacity="0.19" d="M158.011 126.967C157.144 127.05 156.288 127.22 155.454 127.476C155.225 127.548 155.006 127.635 154.776 127.707C154.4 127.908 154.001 128.086 153.624 128.329C153.492 128.412 153.021 128.746 152.826 128.879L152.377 129.281C152.095 129.55 151.831 129.834 151.564 130.122C151.462 130.232 151.368 130.346 151.274 130.464C150.789 131.158 150.35 131.884 149.96 132.637C149.907 132.735 149.7 133.179 149.583 133.395C149.466 133.611 149.289 134.135 149.259 134.226C148.679 135.892 148.243 137.606 147.956 139.349C147.922 139.553 147.802 140.433 147.798 140.418C147.757 140.797 147.715 141.146 147.681 141.51C147.602 142.371 147.549 143.236 147.512 144.104C147.474 145.06 147.458 146.015 147.463 146.971L160.007 154.642L165.491 127.771C163.024 127.328 160.538 126.861 158.011 126.967Z" fill="#D2A120"/>
<path opacity="0.19" d="M44.6827 140.578C44.1253 136.816 42.6829 132.531 40.6379 129.311C39.7489 127.982 38.6775 126.785 37.4556 125.758L29.9688 128.488L39.365 152.045L44.9388 146.702C45.0551 144.657 44.9693 142.606 44.6827 140.578Z" fill="#D2A120"/>
<path d="M38.9705 159.288C39.0656 158.901 39.1149 158.503 39.1174 158.105V132.409C39.1174 129.781 37.0837 127.631 34.5981 127.631H32.5192C30.0337 127.631 28 129.781 28 132.409V158.105C28.0024 158.503 28.0517 158.901 28.1469 159.288H38.9705Z" fill="#FCD66A"/>
<path d="M171.037 159.288C171.133 158.901 171.182 158.503 171.184 158.105V132.409C171.184 129.781 169.151 127.631 166.665 127.631H164.601C162.116 127.631 160.082 129.781 160.082 132.409V158.105C160.084 158.503 160.134 158.901 160.229 159.288H171.037Z" fill="#FCD66A"/>
<g opacity="0.35">
<path opacity="0.35" d="M123.461 146.656H123.084V154.828L80.7915 154.696V146.656H80.4149V154.696L39.335 154.567V154.946L80.4149 155.075V161.097H80.7915V155.075L123.084 155.207V161.097H123.461V155.207H123.623V154.828H123.461V146.656Z" fill="#D2A120"/>
<path opacity="0.35" d="M124.31 161.26L124.31 161.64L171.031 161.73L171.032 161.351L124.31 161.26Z" fill="#D2A120"/>
</g>
<path d="M123.334 170.842C123.334 170.842 123.428 179.151 125.485 179.268C127.541 179.386 126.859 169.382 126.859 169.382C126.859 169.382 122.92 168.328 123.334 170.842Z" fill="#D2A120"/>
<path d="M166.983 170.027C166.983 170.027 167.077 178.336 169.133 178.453C171.189 178.571 170.508 168.567 170.508 168.567C170.508 168.567 166.568 167.513 166.983 170.027Z" fill="#D2A120"/>
<path d="M55.6346 138.196C56.7193 143.903 53.4202 149.072 48.0009 149.079C42.4309 149.079 37.7949 143.672 37.7949 137.703C37.7949 132.424 41.5271 128.746 46.0388 128.981C50.4488 129.201 54.663 133.107 55.6346 138.196Z" fill="#FEF2DE"/>
<g style="mix-blend-mode:multiply" opacity="0.52">
<path d="M38.7779 137.741C38.7251 132.633 42.1673 129.019 46.4643 129.019C46.325 129.019 46.1819 128.993 46.0388 128.985C41.5195 128.761 37.7949 132.44 37.7949 137.707C37.7949 143.664 42.4309 149.083 48.0009 149.083C48.1779 149.083 48.3549 149.083 48.5244 149.064C43.203 148.723 38.8381 143.482 38.7779 137.741Z" fill="#D2A120"/>
</g>
<path d="M53.42 130.995C53.42 130.995 50.4712 125.06 52.4371 126.38C54.4029 127.699 56.0374 129.034 56.0374 129.034C56.0374 129.034 67.8289 125.735 75.0333 129.364C75.0333 129.364 76.9954 124.745 77.6695 126.065C78.3437 127.384 76.6866 130.995 76.6866 130.995C76.6866 130.995 77.0142 143.854 75.7037 146.823C75.7037 146.823 78.3399 149.477 77.0142 150.448C75.6886 151.419 74.3968 149.132 74.3968 149.132C74.3968 149.132 60.6433 149.132 55.0771 148.143C55.0771 148.143 53.1112 149.792 51.8006 149.792C50.49 149.792 54.0941 146.163 54.0941 146.163C54.0941 146.163 52.1094 131.984 53.42 130.995Z" fill="#CD8025"/>
<path opacity="0.31" d="M55.337 140.221C55.2453 141.435 55.2667 142.655 55.4011 143.865C55.4588 144.397 55.6338 144.908 55.9132 145.363C55.981 145.484 56.0262 145.568 56.0526 145.628L56.1919 145.769C56.2672 145.845 56.7568 146.228 56.7531 146.25C56.9602 146.379 57.1711 146.501 57.3858 146.611C57.5081 146.669 57.6338 146.72 57.7624 146.762C58.5573 147.016 59.369 147.214 60.1915 147.354L60.312 147.377L60.5455 147.399C60.9861 147.445 61.4305 147.483 61.8711 147.513C63.6374 147.634 65.4112 147.653 67.1812 147.737C70.1652 147.918 73.1599 147.765 76.1105 147.282C75.8695 147.001 75.6925 146.823 75.6925 146.823C77.0031 143.854 76.6754 130.995 76.6754 130.995C76.6754 130.995 78.3136 127.369 77.6583 126.065C77.0031 124.76 75.0221 129.364 75.0221 129.364C67.8177 125.735 56.0262 129.034 56.0262 129.034C56.0262 129.034 55.7588 128.818 55.3107 128.473C55.8379 132.329 55.4387 136.3 55.337 140.221Z" fill="white"/>
<path d="M140.393 129.603C140.393 129.603 131.973 146.561 134.247 147.475C136.522 148.389 151.315 153.433 152.908 151.832C154.501 150.232 158.599 132.584 158.599 132.584C158.599 132.584 145.173 128.458 140.393 129.603Z" fill="#FEF2DE"/>
<path opacity="0.13" d="M139.911 129.603C139.911 129.603 132.112 146.561 134.217 147.475C136.322 148.389 150.034 153.433 151.507 151.832C152.979 150.232 156.779 132.584 156.779 132.584C156.779 132.584 144.34 128.458 139.911 129.603Z" fill="#CD8025"/>
<g opacity="0.24">
<path opacity="0.24" d="M145.617 136.387C145.636 136.429 145.659 136.387 145.666 136.387C145.621 136.334 145.61 136.391 145.617 136.387Z" fill="#4C5965"/>
<path opacity="0.24" d="M145.18 135.712L145.199 135.719L145.116 135.629L145.18 135.712Z" fill="#4C5965"/>
<path opacity="0.24" d="M144.834 135.045C144.815 135.132 144.965 135.28 145.011 135.405V135.424L145.078 135.454C144.988 135.323 144.906 135.187 144.834 135.045Z" fill="#4C5965"/>
<path opacity="0.24" d="M144.751 134.643C144.751 134.673 144.695 134.575 144.789 134.725L144.751 134.643Z" fill="#4C5965"/>
<path opacity="0.24" d="M144.785 134.711C144.823 134.779 144.785 134.655 144.785 134.711V134.711Z" fill="#4C5965"/>
<path opacity="0.24" d="M144.605 134.392L144.673 134.475C144.673 134.453 144.631 134.37 144.673 134.396C144.597 134.306 144.597 134.332 144.605 134.392Z" fill="#4C5965"/>
<path opacity="0.24" d="M144.524 134.324L144.555 134.369C144.555 134.369 144.551 134.347 144.524 134.324Z" fill="#4C5965"/>
<path opacity="0.24" d="M144.642 134.46L144.574 134.37C144.574 134.389 144.574 134.396 144.604 134.411C144.567 134.411 144.593 134.426 144.642 134.46Z" fill="#4C5965"/>
<path opacity="0.24" d="M144.642 134.525C144.661 134.582 144.687 134.651 144.623 134.567C144.725 134.738 144.747 134.696 144.642 134.525Z" fill="#4C5965"/>
<path opacity="0.24" d="M144.766 135.045L144.784 135.12L144.833 135.169C144.811 135.146 144.777 135.045 144.766 135.045Z" fill="#4C5965"/>
<path opacity="0.24" d="M144.329 133.809C144.329 133.809 144.329 133.854 144.311 133.869L144.356 133.929C144.344 133.906 144.318 133.82 144.329 133.809Z" fill="#4C5965"/>
<path opacity="0.24" d="M144.311 133.869L144.239 133.775C144.284 133.869 144.3 133.88 144.311 133.869Z" fill="#4C5965"/>
<path opacity="0.24" d="M144.461 134.34L144.586 134.484L144.446 134.305L144.461 134.34Z" fill="#4C5965"/>
<path opacity="0.24" d="M144.127 133.421L144.183 133.467L144.093 133.384L144.127 133.421Z" fill="#4C5965"/>
<path opacity="0.24" d="M143.987 133.168C144.028 133.198 143.987 133.088 144.024 133.13C143.988 133.068 143.944 133.012 143.893 132.963C143.936 133.025 143.968 133.094 143.987 133.168Z" fill="#4C5965"/>
<path opacity="0.24" d="M143.824 132.887C143.845 132.914 143.867 132.939 143.892 132.963C143.873 132.935 143.85 132.909 143.824 132.887Z" fill="#4C5965"/>
<path opacity="0.24" d="M144.152 133.599C144.163 133.569 144.163 133.536 144.152 133.505V133.562V133.599Z" fill="#4C5965"/>
<path opacity="0.24" d="M144.129 133.562L144.088 133.475L144.129 133.562Z" fill="#4C5965"/>
<path opacity="0.24" d="M144.157 133.612C144.157 133.612 144.152 133.607 144.157 133.612V133.612Z" fill="#4C5965"/>
<path opacity="0.24" d="M144.348 134.058C144.299 134.005 144.216 133.892 144.257 134.024C144.299 134.058 144.265 133.983 144.348 134.058Z" fill="#4C5965"/>
<path opacity="0.24" d="M144.148 133.68L144.197 133.789C144.197 133.789 144.197 133.759 144.228 133.789L144.148 133.68Z" fill="#4C5965"/>
<path opacity="0.24" d="M144.111 133.63L144.149 133.679L144.13 133.638L144.111 133.63Z" fill="#4C5965"/>
<path opacity="0.24" d="M143.889 133.084C143.853 133.04 143.821 132.991 143.795 132.94C143.821 133.005 143.851 133.069 143.882 133.13C143.912 133.19 143.93 133.149 143.889 133.084Z" fill="#4C5965"/>
<path opacity="0.24" d="M144.006 133.319C144.006 133.319 144.001 133.324 144.006 133.319V133.319Z" fill="#4C5965"/>
<path opacity="0.24" d="M143.497 132.371V132.382H143.504L143.497 132.371Z" fill="#4C5965"/>
<path opacity="0.24" d="M143.888 133.149C143.9 133.185 143.923 133.218 143.952 133.243C143.929 133.213 143.911 133.175 143.888 133.137C143.865 133.1 143.888 133.149 143.888 133.149Z" fill="#4C5965"/>
<path opacity="0.24" d="M143.727 132.735C143.727 132.762 143.727 132.792 143.753 132.822C143.779 132.852 143.738 132.739 143.727 132.735Z" fill="#4C5965"/>
<path opacity="0.24" d="M143.998 133.289C143.998 133.289 144.002 133.282 143.998 133.289V133.289Z" fill="#4C5965"/>
<path opacity="0.24" d="M143.997 133.289C143.983 133.27 143.966 133.252 143.948 133.236L143.997 133.308V133.289Z" fill="#4C5965"/>
<path opacity="0.24" d="M143.222 132.299C143.252 132.299 143.342 132.402 143.369 132.523C143.395 132.644 143.497 132.5 143.497 132.383C143.497 132.383 143.474 132.383 143.403 132.296C143.403 132.341 143.493 132.55 143.421 132.474C143.331 132.337 143.369 132.352 143.346 132.277C143.346 132.352 143.203 132.121 143.173 132.178L143.252 132.296C143.252 132.296 143.211 132.261 143.222 132.299Z" fill="#4C5965"/>
<path opacity="0.24" d="M143.602 132.588L143.628 132.63C143.606 132.575 143.591 132.518 143.583 132.459C143.534 132.394 143.515 132.383 143.504 132.383L143.613 132.603L143.602 132.588Z" fill="#4C5965"/>
<path opacity="0.24" d="M143.734 132.826C143.685 132.807 143.617 132.709 143.621 132.792C143.689 132.917 143.693 132.868 143.746 132.94C143.629 132.735 143.791 132.989 143.746 132.83C143.772 132.868 143.791 132.906 143.813 132.94L143.768 132.823H143.749C143.723 132.762 143.749 132.823 143.749 132.823L143.625 132.622C143.656 132.693 143.692 132.761 143.734 132.826Z" fill="#4C5965"/>
<path opacity="0.24" d="M144.134 133.949C144.134 133.949 144.123 133.907 144.134 133.949V133.949Z" fill="#4C5965"/>
<path opacity="0.24" d="M144.107 133.854C144.13 133.871 144.148 133.895 144.159 133.922C144.159 133.972 144.159 133.922 144.137 133.922C144.114 133.922 144.212 134.017 144.178 133.922C144.151 133.858 144.136 133.788 144.137 133.718C144.116 133.76 144.105 133.807 144.107 133.854Z" fill="#4C5965"/>
<path opacity="0.24" d="M143.911 133.338L143.806 133.171L143.824 133.274C143.889 133.365 143.889 133.331 143.911 133.338Z" fill="#4C5965"/>
<path opacity="0.24" d="M143.505 132.345L143.546 132.352L143.448 132.273L143.505 132.345Z" fill="#4C5965"/>
<path opacity="0.24" d="M143.38 132.121L143.41 132.117L143.365 132.064L143.38 132.121Z" fill="#4C5965"/>
<path opacity="0.24" d="M135.901 135.481L135.935 135.53C135.925 135.513 135.914 135.496 135.901 135.481Z" fill="#4C5965"/>
<path opacity="0.24" d="M135.709 135.113C135.709 135.113 135.716 135.128 135.709 135.113V135.113Z" fill="#4C5965"/>
<path opacity="0.24" d="M139.016 130.438C138.929 130.438 138.827 130.456 138.854 130.483H138.892C138.931 130.462 138.973 130.447 139.016 130.438Z" fill="#4C5965"/>
<path opacity="0.24" d="M135.351 132.621H135.377L135.415 132.565L135.351 132.621Z" fill="#4C5965"/>
<path opacity="0.24" d="M135.366 132.77L135.257 132.803L135.366 132.77Z" fill="#4C5965"/>
<path opacity="0.24" d="M136.993 137.476L137.053 137.521C137.004 137.427 137.012 137.476 136.993 137.476Z" fill="#4C5965"/>
<path opacity="0.24" d="M142.157 129.823C142.134 129.755 142.112 129.702 142.093 129.656C142.115 129.736 142.123 129.816 142.157 129.823Z" fill="#4C5965"/>
<path opacity="0.24" d="M135.514 135.504C135.536 135.534 135.548 135.541 135.555 135.538C135.563 135.534 135.517 135.492 135.514 135.504Z" fill="#4C5965"/>
<path opacity="0.24" d="M142.006 129.47V129.508C142.032 129.553 142.062 129.595 142.092 129.656C142.079 129.588 142.05 129.524 142.006 129.47Z" fill="#4C5965"/>
<path opacity="0.24" d="M144.924 136.964L144.841 137.013C144.871 137.001 144.899 136.984 144.924 136.964Z" fill="#4C5965"/>
<path opacity="0.24" d="M142.918 131.211C142.944 131.256 142.918 131.211 142.918 131.211V131.211Z" fill="#4C5965"/>
<path opacity="0.24" d="M142.925 131.503H142.898C142.903 131.501 142.907 131.5 142.912 131.5C142.916 131.5 142.921 131.501 142.925 131.503Z" fill="#4C5965"/>
<path opacity="0.24" d="M142.944 131.29C142.937 131.267 142.928 131.244 142.918 131.222L142.944 131.29Z" fill="#4C5965"/>
<path opacity="0.24" d="M142.951 131.271L142.97 131.313C142.97 131.313 142.978 131.313 142.951 131.271Z" fill="#4C5965"/>
<path opacity="0.24" d="M142.88 131.143L142.918 131.222L142.88 131.143Z" fill="#4C5965"/>
<path opacity="0.24" d="M138.819 139.944C138.872 139.903 138.853 139.918 138.819 139.944V139.944Z" fill="#4C5965"/>
<path opacity="0.24" d="M137.946 131.404L137.95 131.397L137.942 131.4L137.946 131.404Z" fill="#4C5965"/>
<path opacity="0.24" d="M137.787 131.514C137.824 131.46 137.878 131.419 137.942 131.401L137.84 131.348L137.787 131.514Z" fill="#4C5965"/>
<path opacity="0.24" d="M135.367 132.77C135.358 132.772 135.349 132.772 135.341 132.77C135.341 132.77 135.333 132.77 135.367 132.77Z" fill="#4C5965"/>
<path opacity="0.24" d="M140.921 129.812C140.897 129.815 140.873 129.815 140.85 129.812C140.85 129.812 140.876 129.834 140.921 129.812Z" fill="#4C5965"/>
<path opacity="0.24" d="M143.192 131.696L143.128 131.598C143.147 131.627 143.16 131.661 143.166 131.696C143.166 131.696 143.173 131.662 143.192 131.696Z" fill="#4C5965"/>
<path opacity="0.24" d="M143.463 132.701C143.463 132.701 143.463 132.731 143.49 132.746C143.471 132.671 143.433 132.633 143.463 132.701Z" fill="#4C5965"/>
<path opacity="0.24" d="M143.136 131.848C143.109 131.871 143.155 131.932 143.196 132.004C143.241 131.988 143.188 131.92 143.136 131.848Z" fill="#4C5965"/>
<path opacity="0.24" d="M143.207 132.011L143.245 132.075C143.245 132.075 143.233 132.056 143.207 132.011Z" fill="#4C5965"/>
<path opacity="0.24" d="M142.811 131.066C142.811 131.104 142.856 131.066 142.856 131.093C142.913 131.112 142.695 130.874 142.811 131.066Z" fill="#4C5965"/>
<path opacity="0.24" d="M143.075 131.958L143.094 131.912L143.045 131.886L143.075 131.958Z" fill="#4C5965"/>
<path opacity="0.24" d="M142.797 131.37L142.85 131.491C142.85 131.491 142.85 131.491 142.876 131.518C142.842 131.446 142.808 131.363 142.797 131.37Z" fill="#4C5965"/>
<path opacity="0.24" d="M142.875 131.518C142.89 131.549 142.909 131.579 142.931 131.605C142.915 131.574 142.896 131.545 142.875 131.518Z" fill="#4C5965"/>
<path opacity="0.24" d="M142.98 131.802L142.969 131.764L142.928 131.681L142.98 131.802Z" fill="#4C5965"/>
<path opacity="0.24" d="M142.148 130.114L142.073 129.993C142.054 129.993 142.073 130.027 142.096 130.072C142.118 130.118 142.148 130.148 142.148 130.114Z" fill="#4C5965"/>
<path opacity="0.24" d="M142.257 130.554C142.252 130.532 142.252 130.509 142.257 130.487L142.212 130.505L142.257 130.554Z" fill="#4C5965"/>
<path opacity="0.24" d="M142.054 130.194C142.035 130.194 141.922 130.028 142.009 130.194C142.028 130.19 142.103 130.311 142.054 130.194Z" fill="#4C5965"/>
<path opacity="0.24" d="M140.665 129.796L140.699 129.781L140.657 129.713L140.665 129.796Z" fill="#4C5965"/>
<path opacity="0.24" d="M139.091 130.85C139.245 130.79 139.091 130.79 139.245 130.741C139.271 130.707 139.128 130.782 139.155 130.741C139.076 130.812 139.023 130.827 139.091 130.85Z" fill="#4C5965"/>
<path opacity="0.24" d="M139.154 130.748L139.196 130.714L139.154 130.748Z" fill="#4C5965"/>
<path opacity="0.24" d="M145.293 136.816L145.398 136.778L145.323 136.789L145.293 136.816Z" fill="#4C5965"/>
<path opacity="0.24" d="M145.451 136.667L145.496 136.698L145.534 136.626C145.51 136.646 145.481 136.66 145.451 136.667Z" fill="#4C5965"/>
<path opacity="0.24" d="M135.355 134.26C135.355 134.283 135.355 134.305 135.386 134.35L135.355 134.26Z" fill="#4C5965"/>
<path opacity="0.24" d="M136.01 135.579L135.998 135.557L135.979 135.621L136.01 135.579Z" fill="#4C5965"/>
<path opacity="0.24" d="M136.635 136.649C136.616 136.604 136.578 136.554 136.556 136.509C136.616 136.604 136.593 136.687 136.635 136.649Z" fill="#4C5965"/>
</g>
<g opacity="0.24">
<path opacity="0.24" d="M152.25 138.15C152.269 138.196 152.292 138.15 152.299 138.169C152.254 138.101 152.243 138.158 152.25 138.15Z" fill="#4C5965"/>
<path opacity="0.24" d="M151.814 137.479L151.833 137.486L151.75 137.396L151.814 137.479Z" fill="#4C5965"/>
<path opacity="0.24" d="M151.468 136.816C151.468 136.907 151.6 137.051 151.645 137.195V137.221L151.713 137.252C151.62 137.113 151.538 136.967 151.468 136.816Z" fill="#4C5965"/>
<path opacity="0.24" d="M151.384 136.41C151.384 136.44 151.328 136.342 151.422 136.493L151.384 136.41Z" fill="#4C5965"/>
<path opacity="0.24" d="M151.422 136.474C151.46 136.546 151.422 136.422 151.422 136.474V136.474Z" fill="#4C5965"/>
<path opacity="0.24" d="M151.237 136.159L151.304 136.242C151.304 136.216 151.263 136.133 151.304 136.159C151.229 136.073 151.229 136.095 151.237 136.159Z" fill="#4C5965"/>
<path opacity="0.24" d="M151.158 136.091L151.188 136.136C151.188 136.136 151.185 136.11 151.158 136.091Z" fill="#4C5965"/>
<path opacity="0.24" d="M151.26 136.227L151.188 136.137C151.188 136.137 151.188 136.163 151.219 136.178C151.2 136.182 151.226 136.182 151.26 136.227Z" fill="#4C5965"/>
<path opacity="0.24" d="M151.282 136.289C151.282 136.345 151.328 136.418 151.26 136.334C151.361 136.505 151.38 136.463 151.282 136.289Z" fill="#4C5965"/>
<path opacity="0.24" d="M151.399 136.808L151.422 136.887L151.467 136.936C151.445 136.909 151.422 136.796 151.399 136.808Z" fill="#4C5965"/>
<path opacity="0.24" d="M150.963 135.575C150.963 135.575 150.963 135.621 150.963 135.636L151.008 135.696C150.978 135.658 150.951 135.587 150.963 135.575Z" fill="#4C5965"/>
<path opacity="0.24" d="M150.945 135.636L150.873 135.542C150.918 135.632 150.933 135.647 150.945 135.636Z" fill="#4C5965"/>
<path opacity="0.24" d="M151.094 136.103L151.218 136.251L151.079 136.073L151.094 136.103Z" fill="#4C5965"/>
<path opacity="0.24" d="M150.759 135.188L150.815 135.23L150.725 135.147L150.759 135.188Z" fill="#4C5965"/>
<path opacity="0.24" d="M150.62 134.931C150.661 134.965 150.62 134.855 150.661 134.893C150.623 134.833 150.577 134.778 150.525 134.73C150.571 134.789 150.603 134.858 150.62 134.931Z" fill="#4C5965"/>
<path opacity="0.24" d="M150.458 134.665L150.526 134.741C150.506 134.713 150.484 134.688 150.458 134.665Z" fill="#4C5965"/>
<path opacity="0.24" d="M150.763 135.328L150.718 135.242L150.763 135.328Z" fill="#4C5965"/>
<path opacity="0.24" d="M150.981 135.825C150.936 135.772 150.853 135.659 150.89 135.791C150.932 135.825 150.909 135.746 150.981 135.825Z" fill="#4C5965"/>
<path opacity="0.24" d="M150.781 135.447L150.83 135.556C150.83 135.556 150.83 135.526 150.86 135.556L150.781 135.447Z" fill="#4C5965"/>
<path opacity="0.24" d="M150.743 135.397L150.781 135.446L150.762 135.405L150.743 135.397Z" fill="#4C5965"/>
<path opacity="0.24" d="M150.529 134.851C150.489 134.807 150.456 134.757 150.431 134.703C150.457 134.768 150.487 134.836 150.517 134.897C150.532 134.901 150.562 134.916 150.529 134.851Z" fill="#4C5965"/>
<path opacity="0.24" d="M150.639 135.086C150.639 135.086 150.634 135.091 150.639 135.086V135.086Z" fill="#4C5965"/>
<path opacity="0.24" d="M150.133 134.138L150.13 134.149H150.137L150.133 134.138Z" fill="#4C5965"/>
<path opacity="0.24" d="M150.518 134.908C150.532 134.944 150.553 134.977 150.582 135.002L150.518 134.897C150.518 134.897 150.51 134.893 150.518 134.908Z" fill="#4C5965"/>
<path opacity="0.24" d="M150.359 134.502C150.359 134.529 150.378 134.559 150.386 134.589C150.382 134.562 150.371 134.506 150.359 134.502Z" fill="#4C5965"/>
<path opacity="0.24" d="M150.635 135.044L150.582 134.991C150.598 135.017 150.615 135.041 150.635 135.063V135.044Z" fill="#4C5965"/>
<path opacity="0.24" d="M149.856 134.066C149.889 134.066 149.976 134.169 150.002 134.29C150.029 134.412 150.131 134.267 150.131 134.15C150.131 134.15 150.108 134.15 150.036 134.063C150.036 134.108 150.127 134.317 150.055 134.241C149.965 134.104 150.002 134.12 149.98 134.044C149.98 134.12 149.837 133.888 149.807 133.945L149.889 134.059C149.889 134.059 149.844 134.029 149.856 134.066Z" fill="#4C5965"/>
<path opacity="0.24" d="M150.236 134.355L150.262 134.396C150.24 134.342 150.226 134.284 150.221 134.226C150.168 134.161 150.149 134.15 150.138 134.15L150.247 134.366L150.236 134.355Z" fill="#4C5965"/>
<path opacity="0.24" d="M150.367 134.593C150.318 134.574 150.25 134.476 150.254 134.559C150.322 134.684 150.326 134.635 150.378 134.703C150.262 134.502 150.427 134.757 150.378 134.597C150.403 134.631 150.425 134.667 150.446 134.703L150.401 134.59H150.382C150.356 134.525 150.382 134.59 150.382 134.59L150.258 134.389C150.289 134.46 150.326 134.528 150.367 134.593Z" fill="#4C5965"/>
<path opacity="0.24" d="M150.769 135.715C150.769 135.715 150.755 135.69 150.769 135.715V135.715Z" fill="#4C5965"/>
<path opacity="0.24" d="M150.74 135.621C150.765 135.638 150.783 135.661 150.793 135.689C150.793 135.739 150.793 135.689 150.77 135.689C150.748 135.689 150.85 135.78 150.812 135.689C150.784 135.625 150.77 135.555 150.77 135.485C150.749 135.527 150.739 135.574 150.74 135.621Z" fill="#4C5965"/>
<path opacity="0.24" d="M150.544 135.105L150.438 134.938L150.457 135.041C150.518 135.128 150.525 135.098 150.544 135.105Z" fill="#4C5965"/>
<path opacity="0.24" d="M150.138 134.111L150.179 134.119L150.085 134.04L150.138 134.111Z" fill="#4C5965"/>
<path opacity="0.24" d="M150.013 133.888L150.047 133.88L149.998 133.831L150.013 133.888Z" fill="#4C5965"/>
<path opacity="0.24" d="M142.533 137.248L142.571 137.297L142.533 137.248Z" fill="#4C5965"/>
<path opacity="0.24" d="M142.341 136.88C142.341 136.88 142.348 136.894 142.341 136.88V136.88Z" fill="#4C5965"/>
<path opacity="0.24" d="M145.649 132.204C145.562 132.204 145.46 132.223 145.487 132.246H145.524C145.564 132.226 145.605 132.212 145.649 132.204Z" fill="#4C5965"/>
<path opacity="0.24" d="M142.007 134.385L142.041 134.328L142.007 134.385Z" fill="#4C5965"/>
<path opacity="0.24" d="M142.007 134.536L141.897 134.57L142.007 134.536Z" fill="#4C5965"/>
<path opacity="0.24" d="M143.627 139.242L143.687 139.284C143.638 139.194 143.646 139.242 143.627 139.242Z" fill="#4C5965"/>
<path opacity="0.24" d="M148.786 131.59C148.768 131.532 148.747 131.475 148.722 131.419C148.748 131.507 148.756 131.582 148.786 131.59Z" fill="#4C5965"/>
<path opacity="0.24" d="M142.146 137.271C142.169 137.297 142.184 137.308 142.188 137.304C142.192 137.301 142.15 137.259 142.146 137.271Z" fill="#4C5965"/>
<path opacity="0.24" d="M148.628 131.251V131.289C148.66 131.335 148.689 131.383 148.715 131.433C148.701 131.366 148.671 131.304 148.628 131.251Z" fill="#4C5965"/>
<path opacity="0.24" d="M151.557 138.731L151.475 138.78C151.504 138.766 151.532 138.75 151.557 138.731Z" fill="#4C5965"/>
<path opacity="0.24" d="M149.539 132.978C149.565 133.023 149.539 132.978 149.539 132.978V132.978Z" fill="#4C5965"/>
<path opacity="0.24" d="M149.558 133.27C149.558 133.27 149.539 133.27 149.531 133.27C149.535 133.268 149.54 133.268 149.544 133.268C149.549 133.268 149.553 133.268 149.558 133.27Z" fill="#4C5965"/>
<path opacity="0.24" d="M148.123 131.105C148.123 131.105 148.134 131.108 148.123 131.105V131.105Z" fill="#4C5965"/>
<path opacity="0.24" d="M149.576 133.054C149.576 133.035 149.576 133.012 149.55 132.99L149.576 133.054Z" fill="#4C5965"/>
<path opacity="0.24" d="M149.584 133.039L149.603 133.08C149.603 133.08 149.61 133.076 149.584 133.039Z" fill="#4C5965"/>
<path opacity="0.24" d="M149.513 132.91C149.528 132.935 149.541 132.961 149.55 132.989L149.513 132.91Z" fill="#4C5965"/>
<path opacity="0.24" d="M145.453 141.711C145.506 141.67 145.487 141.681 145.453 141.711V141.711Z" fill="#4C5965"/>
<path opacity="0.24" d="M144.579 133.167L144.582 133.164L144.575 133.167H144.579Z" fill="#4C5965"/>
<path opacity="0.24" d="M144.421 133.281C144.457 133.226 144.512 133.186 144.575 133.167L144.474 133.111L144.421 133.281Z" fill="#4C5965"/>
<path opacity="0.24" d="M142.008 134.518C141.999 134.52 141.99 134.52 141.981 134.518C141.981 134.518 141.966 134.529 142.008 134.518Z" fill="#4C5965"/>
<path opacity="0.24" d="M147.554 131.575C147.532 131.586 147.507 131.592 147.482 131.594C147.482 131.594 147.505 131.601 147.554 131.575Z" fill="#4C5965"/>
<path opacity="0.24" d="M149.825 133.463L149.761 133.365C149.779 133.395 149.793 133.428 149.802 133.463C149.802 133.463 149.806 133.429 149.825 133.463Z" fill="#4C5965"/>
<path opacity="0.24" d="M150.096 134.468C150.096 134.468 150.096 134.498 150.126 134.509C150.104 134.434 150.066 134.396 150.096 134.468Z" fill="#4C5965"/>
<path opacity="0.24" d="M149.769 133.615C149.742 133.637 149.787 133.698 149.833 133.766C149.874 133.755 149.821 133.687 149.769 133.615Z" fill="#4C5965"/>
<path opacity="0.24" d="M149.841 133.786C149.855 133.806 149.868 133.827 149.878 133.85C149.916 133.85 149.867 133.823 149.841 133.786Z" fill="#4C5965"/>
<path opacity="0.24" d="M149.445 132.829C149.445 132.867 149.494 132.829 149.49 132.859C149.539 132.878 149.328 132.652 149.445 132.829Z" fill="#4C5965"/>
<path opacity="0.24" d="M149.709 133.721L149.728 133.679L149.679 133.653L149.709 133.721Z" fill="#4C5965"/>
<path opacity="0.24" d="M149.43 133.148L149.482 133.269C149.482 133.269 149.482 133.269 149.513 133.292C149.475 133.212 149.441 133.148 149.43 133.148Z" fill="#4C5965"/>
<path opacity="0.24" d="M149.513 133.281C149.527 133.313 149.544 133.344 149.565 133.372L149.513 133.281Z" fill="#4C5965"/>
<path opacity="0.24" d="M149.614 133.569L149.603 133.531L149.562 133.448L149.614 133.569Z" fill="#4C5965"/>
<path opacity="0.24" d="M148.786 131.889L148.711 131.768C148.692 131.768 148.711 131.802 148.733 131.843C148.756 131.885 148.786 131.915 148.786 131.889Z" fill="#4C5965"/>
<path opacity="0.24" d="M148.891 132.321C148.885 132.299 148.885 132.276 148.891 132.254L148.846 132.272L148.891 132.321Z" fill="#4C5965"/>
<path opacity="0.24" d="M148.688 131.957C148.669 131.957 148.556 131.796 148.643 131.957C148.661 131.957 148.741 132.078 148.688 131.957Z" fill="#4C5965"/>
<path opacity="0.24" d="M147.301 131.563L147.331 131.544L147.29 131.48L147.301 131.563Z" fill="#4C5965"/>
<path opacity="0.24" d="M145.723 132.617C145.878 132.557 145.723 132.557 145.882 132.508C145.908 132.47 145.761 132.549 145.791 132.508C145.708 132.579 145.656 132.594 145.723 132.617Z" fill="#4C5965"/>
<path opacity="0.24" d="M145.792 132.515L145.83 132.481C145.815 132.49 145.802 132.501 145.792 132.515Z" fill="#4C5965"/>
<path opacity="0.24" d="M151.931 138.582L152.032 138.545L151.957 138.556L151.931 138.582Z" fill="#4C5965"/>
<path opacity="0.24" d="M152.085 138.431L152.13 138.465L152.168 138.393C152.145 138.408 152.108 138.434 152.085 138.431Z" fill="#4C5965"/>
<path opacity="0.24" d="M142.007 136.023C142.007 136.023 142.007 136.064 142.037 136.113L142.007 136.023Z" fill="#4C5965"/>
<path opacity="0.24" d="M142.643 137.346L142.632 137.324L142.613 137.388L142.643 137.346Z" fill="#4C5965"/>
<path opacity="0.24" d="M143.269 138.416C143.25 138.37 143.212 138.321 143.189 138.276C143.25 138.37 143.227 138.458 143.269 138.416Z" fill="#4C5965"/>
</g>
<g opacity="0.24">
<path opacity="0.24" d="M159.421 140.061C159.44 140.107 159.463 140.061 159.47 140.061C159.425 140.009 159.414 140.065 159.421 140.061Z" fill="#4C5965"/>
<path opacity="0.24" d="M158.983 139.386L159.002 139.394L158.919 139.307L158.983 139.386Z" fill="#4C5965"/>
<path opacity="0.24" d="M158.637 138.727C158.637 138.814 158.769 138.962 158.814 139.106V139.133L158.882 139.167C158.79 139.026 158.708 138.879 158.637 138.727Z" fill="#4C5965"/>
<path opacity="0.24" d="M158.555 138.318C158.555 138.348 158.498 138.25 158.593 138.404V138.385L158.555 138.318Z" fill="#4C5965"/>
<path opacity="0.24" d="M158.577 138.386C158.615 138.454 158.577 138.333 158.577 138.386V138.386Z" fill="#4C5965"/>
<path opacity="0.24" d="M158.407 138.079L158.475 138.162C158.475 138.135 158.434 138.052 158.475 138.079C158.4 137.98 158.4 138.006 158.407 138.079Z" fill="#4C5965"/>
<path opacity="0.24" d="M158.329 138.003L158.359 138.044C158.359 138.044 158.355 138.022 158.329 138.003Z" fill="#4C5965"/>
<path opacity="0.24" d="M158.426 138.139L158.358 138.044C158.358 138.063 158.358 138.071 158.389 138.09C158.37 138.078 158.396 138.101 158.426 138.139Z" fill="#4C5965"/>
<path opacity="0.24" d="M158.45 138.2C158.45 138.257 158.495 138.325 158.431 138.242C158.529 138.416 158.551 138.371 158.45 138.2Z" fill="#4C5965"/>
<path opacity="0.24" d="M158.577 138.719L158.6 138.795L158.645 138.847C158.615 138.836 158.577 138.708 158.577 138.719Z" fill="#4C5965"/>
<path opacity="0.24" d="M158.132 137.483C158.132 137.483 158.132 137.528 158.113 137.543L158.159 137.603C158.147 137.566 158.121 137.498 158.132 137.483Z" fill="#4C5965"/>
<path opacity="0.24" d="M158.114 137.543L158.042 137.453C158.087 137.543 158.102 137.555 158.114 137.543Z" fill="#4C5965"/>
<path opacity="0.24" d="M158.264 138.014L158.388 138.162L158.249 137.984L158.264 138.014Z" fill="#4C5965"/>
<path opacity="0.24" d="M157.929 137.096L157.986 137.141L157.896 137.058L157.929 137.096Z" fill="#4C5965"/>
<path opacity="0.24" d="M157.79 136.842C157.832 136.873 157.79 136.766 157.828 136.804C157.792 136.744 157.748 136.689 157.696 136.641C157.742 136.701 157.774 136.769 157.79 136.842Z" fill="#4C5965"/>
<path opacity="0.24" d="M157.628 136.562C157.628 136.588 157.669 136.611 157.696 136.641C157.677 136.611 157.654 136.585 157.628 136.562Z" fill="#4C5965"/>
<path opacity="0.24" d="M157.955 137.274C157.965 137.243 157.965 137.21 157.955 137.18V137.236V137.274Z" fill="#4C5965"/>
<path opacity="0.24" d="M157.933 137.236L157.892 137.149L157.933 137.236Z" fill="#4C5965"/>
<path opacity="0.24" d="M158.151 137.733C158.102 137.684 158.02 137.567 158.061 137.703C158.102 137.733 158.08 137.658 158.151 137.733Z" fill="#4C5965"/>
<path opacity="0.24" d="M157.951 137.354L158 137.467C158 137.467 158 137.433 158.03 137.467L157.951 137.354Z" fill="#4C5965"/>
<path opacity="0.24" d="M157.914 137.309L157.952 137.354L157.933 137.316L157.914 137.309Z" fill="#4C5965"/>
<path opacity="0.24" d="M157.696 136.763C157.66 136.717 157.628 136.667 157.602 136.615C157.628 136.679 157.658 136.744 157.688 136.804C157.718 136.865 157.733 136.827 157.696 136.763Z" fill="#4C5965"/>
<path opacity="0.24" d="M157.303 136.05L157.3 136.06H157.307L157.303 136.05Z" fill="#4C5965"/>
<path opacity="0.24" d="M157.688 136.819C157.701 136.855 157.723 136.888 157.752 136.913L157.688 136.804C157.688 136.804 157.68 136.804 157.688 136.819Z" fill="#4C5965"/>
<path opacity="0.24" d="M157.53 136.41C157.53 136.44 157.53 136.466 157.557 136.5C157.553 136.47 157.542 136.413 157.53 136.41Z" fill="#4C5965"/>
<path opacity="0.24" d="M157.802 136.962C157.823 136.941 157.823 136.941 157.802 136.962V136.962Z" fill="#4C5965"/>
<path opacity="0.24" d="M157.801 136.963L157.752 136.914L157.801 136.986V136.963Z" fill="#4C5965"/>
<path opacity="0.24" d="M157.026 135.974C157.056 135.974 157.146 136.076 157.172 136.197C157.199 136.319 157.3 136.175 157.3 136.061C157.3 136.061 157.278 136.061 157.206 135.97C157.206 136.015 157.297 136.224 157.225 136.148C157.154 136.072 157.172 136.027 157.15 135.951C157.15 136.027 157.007 135.799 156.977 135.856L157.056 135.97C157.056 135.97 157.014 135.936 157.026 135.974Z" fill="#4C5965"/>
<path opacity="0.24" d="M157.407 136.266L157.433 136.307C157.411 136.253 157.397 136.195 157.391 136.137C157.339 136.068 157.32 136.061 157.309 136.061L157.418 136.277L157.407 136.266Z" fill="#4C5965"/>
<path opacity="0.24" d="M157.538 136.505C157.489 136.505 157.421 136.387 157.425 136.467C157.493 136.596 157.497 136.543 157.549 136.615C157.432 136.41 157.598 136.664 157.549 136.505C157.576 136.543 157.594 136.581 157.617 136.615L157.572 136.501C157.545 136.44 157.572 136.501 157.572 136.501L157.448 136.304C157.474 136.372 157.504 136.439 157.538 136.505Z" fill="#4C5965"/>
<path opacity="0.24" d="M157.94 137.623C157.94 137.623 157.926 137.598 157.94 137.623V137.623Z" fill="#4C5965"/>
<path opacity="0.24" d="M157.91 137.529C157.933 137.548 157.952 137.573 157.963 137.601C157.963 137.646 157.963 137.601 157.94 137.601C157.918 137.601 158.016 137.696 157.982 137.601C157.954 137.536 157.94 137.466 157.94 137.396C157.92 137.437 157.91 137.483 157.91 137.529Z" fill="#4C5965"/>
<path opacity="0.24" d="M157.715 137.013L157.609 136.85L157.628 136.948C157.688 137.039 157.696 137.009 157.715 137.013Z" fill="#4C5965"/>
<path opacity="0.24" d="M157.309 136.019L157.35 136.027L157.256 135.951L157.309 136.019Z" fill="#4C5965"/>
<path opacity="0.24" d="M157.184 135.799L157.214 135.791L157.169 135.742L157.184 135.799Z" fill="#4C5965"/>
<path opacity="0.24" d="M149.704 139.159L149.742 139.205C149.732 139.187 149.719 139.172 149.704 139.159Z" fill="#4C5965"/>
<path opacity="0.24" d="M149.512 138.788C149.512 138.788 149.537 138.802 149.512 138.788V138.788Z" fill="#4C5965"/>
<path opacity="0.24" d="M152.819 134.112C152.732 134.112 152.63 134.131 152.657 134.157L152.694 134.176C152.732 134.149 152.774 134.127 152.819 134.112Z" fill="#4C5965"/>
<path opacity="0.24" d="M149.162 136.296H149.188L149.226 136.243L149.162 136.296Z" fill="#4C5965"/>
<path opacity="0.24" d="M149.162 136.444L149.053 136.478C149.09 136.47 149.127 136.459 149.162 136.444Z" fill="#4C5965"/>
<path opacity="0.24" d="M150.796 141.154L150.856 141.195C150.807 141.112 150.815 141.15 150.796 141.154Z" fill="#4C5965"/>
<path opacity="0.24" d="M155.96 133.501C155.943 133.443 155.921 133.386 155.896 133.331C155.918 133.418 155.941 133.494 155.96 133.501Z" fill="#4C5965"/>
<path opacity="0.24" d="M149.316 139.178C149.339 139.208 149.354 139.22 149.358 139.212C149.362 139.204 149.32 139.171 149.316 139.178Z" fill="#4C5965"/>
<path opacity="0.24" d="M155.797 133.149V133.187C155.828 133.234 155.857 133.284 155.884 133.335C155.87 133.266 155.841 133.202 155.797 133.149Z" fill="#4C5965"/>
<path opacity="0.24" d="M156.461 141.469H156.48C156.48 141.469 156.472 141.461 156.461 141.469Z" fill="#4C5965"/>
<path opacity="0.24" d="M158.727 140.642L158.645 140.687C158.674 140.676 158.702 140.66 158.727 140.642Z" fill="#4C5965"/>
<path opacity="0.24" d="M156.721 134.885C156.747 134.93 156.721 134.885 156.721 134.885V134.885Z" fill="#4C5965"/>
<path opacity="0.24" d="M156.728 135.181C156.728 135.181 156.728 135.181 156.701 135.181C156.705 135.18 156.71 135.179 156.714 135.179C156.719 135.179 156.723 135.18 156.728 135.181Z" fill="#4C5965"/>
<path opacity="0.24" d="M156.747 134.965C156.747 134.965 156.747 134.923 156.721 134.901L156.747 134.965Z" fill="#4C5965"/>
<path opacity="0.24" d="M156.754 134.946V134.991C156.754 134.991 156.78 134.987 156.754 134.946Z" fill="#4C5965"/>
<path opacity="0.24" d="M156.694 134.821C156.71 134.846 156.723 134.872 156.732 134.9L156.694 134.821Z" fill="#4C5965"/>
<path opacity="0.24" d="M152.622 143.619C152.675 143.581 152.656 143.592 152.622 143.619V143.619Z" fill="#4C5965"/>
<path opacity="0.24" d="M151.749 135.079L151.752 135.075L151.745 135.079H151.749Z" fill="#4C5965"/>
<path opacity="0.24" d="M151.592 135.193C151.627 135.136 151.682 135.096 151.746 135.079L151.645 135.022L151.592 135.193Z" fill="#4C5965"/>
<path opacity="0.24" d="M149.162 136.429C149.162 136.429 149.162 136.429 149.136 136.429C149.11 136.429 149.136 136.436 149.162 136.429Z" fill="#4C5965"/>
<path opacity="0.24" d="M154.724 133.486C154.7 133.49 154.676 133.49 154.652 133.486C154.652 133.486 154.675 133.528 154.724 133.486Z" fill="#4C5965"/>
<path opacity="0.24" d="M156.996 135.37L156.932 135.272C156.95 135.302 156.963 135.335 156.969 135.37C156.969 135.37 156.977 135.34 156.996 135.37Z" fill="#4C5965"/>
<path opacity="0.24" d="M157.267 136.375C157.267 136.375 157.267 136.409 157.297 136.421C157.275 136.345 157.237 136.308 157.267 136.375Z" fill="#4C5965"/>
<path opacity="0.24" d="M156.939 135.526C156.912 135.549 156.957 135.61 156.999 135.678C157.044 135.666 156.991 135.594 156.939 135.526Z" fill="#4C5965"/>
<path opacity="0.24" d="M157.011 135.693C157.025 135.715 157.037 135.738 157.048 135.761C157.071 135.761 157.037 135.731 157.011 135.693Z" fill="#4C5965"/>
<path opacity="0.24" d="M156.615 134.741C156.615 134.779 156.664 134.741 156.66 134.767C156.717 134.786 156.498 134.564 156.615 134.741Z" fill="#4C5965"/>
<path opacity="0.24" d="M156.878 135.632L156.897 135.587L156.848 135.56L156.878 135.632Z" fill="#4C5965"/>
<path opacity="0.24" d="M156.6 135.045L156.652 135.161C156.652 135.161 156.652 135.161 156.679 135.188C156.645 135.12 156.611 135.045 156.6 135.045Z" fill="#4C5965"/>
<path opacity="0.24" d="M156.694 135.193C156.71 135.225 156.729 135.255 156.751 135.283C156.734 135.251 156.716 135.221 156.694 135.193Z" fill="#4C5965"/>
<path opacity="0.24" d="M156.785 135.48L156.774 135.442L156.732 135.36L156.785 135.48Z" fill="#4C5965"/>
<path opacity="0.24" d="M155.94 133.8L155.865 133.679C155.846 133.679 155.865 133.71 155.888 133.755C155.91 133.8 155.94 133.823 155.94 133.8Z" fill="#4C5965"/>
<path opacity="0.24" d="M156.062 134.233C156.056 134.209 156.056 134.185 156.062 134.161L156.017 134.18L156.062 134.233Z" fill="#4C5965"/>
<path opacity="0.24" d="M155.858 133.869C155.858 133.869 155.726 133.703 155.813 133.869C155.832 133.869 155.911 133.989 155.858 133.869Z" fill="#4C5965"/>
<path opacity="0.24" d="M154.471 133.47L154.501 133.455L154.46 133.387L154.471 133.47Z" fill="#4C5965"/>
<path opacity="0.24" d="M152.893 134.528C153.048 134.464 152.893 134.468 153.052 134.415C153.078 134.381 152.931 134.457 152.961 134.415C152.878 134.487 152.826 134.506 152.893 134.528Z" fill="#4C5965"/>
<path opacity="0.24" d="M152.962 134.423L153 134.389C152.977 134.408 152.966 134.415 152.962 134.423Z" fill="#4C5965"/>
<path opacity="0.24" d="M159.098 140.49L159.203 140.456L159.128 140.464L159.098 140.49Z" fill="#4C5965"/>
<path opacity="0.24" d="M159.256 140.353L159.301 140.383L159.339 140.316C159.313 140.333 159.285 140.346 159.256 140.353Z" fill="#4C5965"/>
<path opacity="0.24" d="M149.162 137.934C149.162 137.957 149.162 137.98 149.192 138.025L149.162 137.934Z" fill="#4C5965"/>
<path opacity="0.24" d="M149.813 139.258L149.802 139.235L149.783 139.295L149.813 139.258Z" fill="#4C5965"/>
<path opacity="0.24" d="M150.437 140.323C150.419 140.277 150.381 140.232 150.358 140.187C150.419 140.277 150.396 140.353 150.437 140.323Z" fill="#4C5965"/>
</g>
<g opacity="0.24">
<path opacity="0.24" d="M143.486 144.525C143.504 144.566 143.523 144.525 143.535 144.525C143.489 144.457 143.478 144.525 143.486 144.525Z" fill="#4C5965"/>
<path opacity="0.24" d="M143.045 143.834L143.064 143.842L142.981 143.751L143.045 143.834Z" fill="#4C5965"/>
<path opacity="0.24" d="M142.699 143.171C142.699 143.262 142.835 143.41 142.88 143.55V143.577L142.948 143.607C142.857 143.466 142.774 143.321 142.699 143.171Z" fill="#4C5965"/>
<path opacity="0.24" d="M142.619 142.765C142.619 142.795 142.563 142.697 142.657 142.848L142.619 142.765Z" fill="#4C5965"/>
<path opacity="0.24" d="M142.654 142.833C142.692 142.901 142.654 142.777 142.654 142.833V142.833Z" fill="#4C5965"/>
<path opacity="0.24" d="M142.474 142.514L142.538 142.597C142.538 142.575 142.501 142.492 142.538 142.514C142.463 142.428 142.463 142.454 142.474 142.514Z" fill="#4C5965"/>
<path opacity="0.24" d="M142.384 142.447L142.418 142.492C142.418 142.492 142.421 142.465 142.384 142.447Z" fill="#4C5965"/>
<path opacity="0.24" d="M142.493 142.583L142.425 142.492C142.425 142.492 142.425 142.519 142.455 142.534C142.436 142.534 142.459 142.545 142.493 142.583Z" fill="#4C5965"/>
<path opacity="0.24" d="M142.514 142.628C142.514 142.689 142.559 142.757 142.495 142.674C142.593 142.86 142.612 142.818 142.514 142.628Z" fill="#4C5965"/>
<path opacity="0.24" d="M142.632 143.167L142.654 143.242L142.703 143.291C142.677 143.265 142.647 143.152 142.632 143.167Z" fill="#4C5965"/>
<path opacity="0.24" d="M142.198 141.931C142.198 141.931 142.198 141.976 142.176 141.991L142.225 142.051C142.213 142.014 142.183 141.942 142.198 141.931Z" fill="#4C5965"/>
<path opacity="0.24" d="M142.176 141.991L142.104 141.897C142.15 141.991 142.169 142.002 142.176 141.991Z" fill="#4C5965"/>
<path opacity="0.24" d="M142.33 142.462L142.455 142.606L142.312 142.428L142.33 142.462Z" fill="#4C5965"/>
<path opacity="0.24" d="M141.995 141.544L142.047 141.585L141.957 141.506L141.995 141.544Z" fill="#4C5965"/>
<path opacity="0.24" d="M141.855 141.29C141.896 141.321 141.855 141.211 141.893 141.252C141.854 141.192 141.81 141.137 141.761 141.085C141.804 141.148 141.836 141.217 141.855 141.29Z" fill="#4C5965"/>
<path opacity="0.24" d="M141.689 141.01L141.761 141.085C141.739 141.058 141.715 141.033 141.689 141.01Z" fill="#4C5965"/>
<path opacity="0.24" d="M142.007 141.684L141.962 141.597L142.007 141.684Z" fill="#4C5965"/>
<path opacity="0.24" d="M142.024 141.734C142.024 141.734 142.007 141.73 142.024 141.734V141.734Z" fill="#4C5965"/>
<path opacity="0.24" d="M142.217 142.18C142.168 142.128 142.085 142.015 142.123 142.147C142.164 142.18 142.145 142.105 142.217 142.18Z" fill="#4C5965"/>
<path opacity="0.24" d="M142.006 141.802L142.055 141.911C142.055 141.911 142.055 141.881 142.089 141.911L142.006 141.802Z" fill="#4C5965"/>
<path opacity="0.24" d="M141.976 141.753L142.013 141.802L141.994 141.76L141.976 141.753Z" fill="#4C5965"/>
<path opacity="0.24" d="M141.762 141.207C141.725 141.162 141.692 141.114 141.664 141.062C141.69 141.127 141.721 141.191 141.754 141.252C141.754 141.252 141.796 141.271 141.762 141.207Z" fill="#4C5965"/>
<path opacity="0.24" d="M141.875 141.442C141.875 141.442 141.87 141.447 141.875 141.442V141.442Z" fill="#4C5965"/>
<path opacity="0.24" d="M141.366 140.494V140.504H141.37L141.366 140.494Z" fill="#4C5965"/>
<path opacity="0.24" d="M141.754 141.263C141.767 141.3 141.789 141.333 141.818 141.358C141.794 141.324 141.772 141.289 141.754 141.252C141.754 141.252 141.743 141.252 141.754 141.263Z" fill="#4C5965"/>
<path opacity="0.24" d="M141.596 140.858C141.602 140.887 141.61 140.916 141.622 140.944C141.63 140.918 141.607 140.861 141.596 140.858Z" fill="#4C5965"/>
<path opacity="0.24" d="M141.867 141.411C141.871 141.4 141.867 141.404 141.867 141.411V141.411Z" fill="#4C5965"/>
<path opacity="0.24" d="M141.866 141.411L141.817 141.358C141.832 141.383 141.848 141.407 141.866 141.43V141.411Z" fill="#4C5965"/>
<path opacity="0.24" d="M141.091 140.422C141.121 140.422 141.212 140.524 141.238 140.645C141.264 140.767 141.362 140.623 141.366 140.505C141.366 140.505 141.34 140.505 141.268 140.418C141.268 140.463 141.358 140.672 141.268 140.596C141.181 140.46 141.219 140.475 141.197 140.399C141.197 140.475 141.053 140.243 141.02 140.3L141.102 140.414C141.102 140.414 141.08 140.384 141.091 140.422Z" fill="#4C5965"/>
<path opacity="0.24" d="M141.471 140.71L141.497 140.752C141.475 140.697 141.46 140.639 141.452 140.581C141.399 140.517 141.384 140.505 141.373 140.505L141.482 140.725L141.471 140.71Z" fill="#4C5965"/>
<path opacity="0.24" d="M141.6 140.949C141.555 140.93 141.487 140.831 141.487 140.915C141.559 141.04 141.559 140.99 141.612 141.059C141.495 140.858 141.661 141.112 141.612 140.952C141.636 140.988 141.659 141.025 141.679 141.062L141.638 140.945H141.619C141.593 140.88 141.619 140.945 141.619 140.945L141.495 140.744C141.526 140.814 141.561 140.882 141.6 140.949Z" fill="#4C5965"/>
<path opacity="0.24" d="M141.976 141.976C141.999 141.994 142.017 142.017 142.028 142.045C142.028 142.094 142.028 142.045 142.006 142.045C141.983 142.045 142.081 142.136 142.047 142.045C142.02 141.98 142.004 141.91 142.002 141.84C141.984 141.883 141.975 141.93 141.976 141.976Z" fill="#4C5965"/>
<path opacity="0.24" d="M141.776 141.461L141.671 141.294L141.694 141.396C141.75 141.491 141.758 141.453 141.776 141.461Z" fill="#4C5965"/>
<path opacity="0.24" d="M141.37 140.467L141.415 140.474L141.317 140.395L141.37 140.467Z" fill="#4C5965"/>
<path opacity="0.24" d="M141.249 140.243L141.279 140.235L141.23 140.187L141.249 140.243Z" fill="#4C5965"/>
<path opacity="0.24" d="M133.771 143.603L133.804 143.652L133.771 143.603Z" fill="#4C5965"/>
<path opacity="0.24" d="M133.578 143.236H133.56C133.56 143.236 133.586 143.251 133.578 143.236Z" fill="#4C5965"/>
<path opacity="0.24" d="M136.885 138.56C136.798 138.56 136.693 138.579 136.719 138.605H136.757C136.797 138.585 136.84 138.569 136.885 138.56Z" fill="#4C5965"/>
<path opacity="0.24" d="M133.22 140.732H133.246L133.28 140.676L133.22 140.732Z" fill="#4C5965"/>
<path opacity="0.24" d="M133.231 140.892L133.126 140.926C133.162 140.917 133.197 140.906 133.231 140.892Z" fill="#4C5965"/>
<path opacity="0.24" d="M134.851 145.598L134.915 145.643C134.873 145.549 134.877 145.598 134.851 145.598Z" fill="#4C5965"/>
<path opacity="0.24" d="M140.025 137.945C140.006 137.888 139.984 137.832 139.957 137.779C139.98 137.862 139.987 137.938 140.025 137.945Z" fill="#4C5965"/>
<path opacity="0.24" d="M133.383 143.626C133.405 143.656 133.417 143.664 133.424 143.66C133.432 143.656 133.387 143.615 133.383 143.626Z" fill="#4C5965"/>
<path opacity="0.24" d="M139.859 137.592V137.63C139.894 137.676 139.923 137.725 139.946 137.778C139.935 137.709 139.905 137.645 139.859 137.592Z" fill="#4C5965"/>
<path opacity="0.24" d="M140.526 145.916H140.545C140.545 145.916 140.534 145.909 140.526 145.916Z" fill="#4C5965"/>
<path opacity="0.24" d="M142.794 145.086L142.707 145.135C142.737 145.121 142.766 145.105 142.794 145.086Z" fill="#4C5965"/>
<path opacity="0.24" d="M140.786 139.333C140.813 139.378 140.786 139.333 140.786 139.333V139.333Z" fill="#4C5965"/>
<path opacity="0.24" d="M140.809 139.409L140.786 139.345C140.792 139.367 140.8 139.388 140.809 139.409Z" fill="#4C5965"/>
<path opacity="0.24" d="M140.815 139.394L140.834 139.435C140.834 139.435 140.846 139.431 140.815 139.394Z" fill="#4C5965"/>
<path opacity="0.24" d="M140.749 139.265L140.787 139.344L140.749 139.265Z" fill="#4C5965"/>
<path opacity="0.24" d="M136.686 148.067C136.734 148.025 136.734 148.04 136.686 148.067V148.067Z" fill="#4C5965"/>
<path opacity="0.24" d="M135.811 139.527L135.818 139.523H135.811V139.527Z" fill="#4C5965"/>
<path opacity="0.24" d="M135.653 139.637C135.69 139.58 135.747 139.54 135.812 139.523L135.71 139.47L135.653 139.637Z" fill="#4C5965"/>
<path opacity="0.24" d="M133.231 140.873H133.209C133.209 140.873 133.201 140.884 133.231 140.873Z" fill="#4C5965"/>
<path opacity="0.24" d="M138.79 137.93C138.767 137.935 138.742 137.935 138.719 137.93C138.719 137.93 138.738 137.957 138.79 137.93Z" fill="#4C5965"/>
<path opacity="0.24" d="M141.061 139.818L140.997 139.72C141.015 139.75 141.027 139.783 141.035 139.818C141.035 139.818 141.042 139.784 141.061 139.818Z" fill="#4C5965"/>
<path opacity="0.24" d="M141.328 140.823C141.339 140.838 141.349 140.853 141.358 140.869C141.335 140.793 141.302 140.752 141.328 140.823Z" fill="#4C5965"/>
<path opacity="0.24" d="M141.001 139.974C140.979 139.997 141.02 140.058 141.065 140.13C141.107 140.111 141.054 140.042 141.001 139.974Z" fill="#4C5965"/>
<path opacity="0.24" d="M141.072 140.141L141.11 140.205C141.129 140.205 141.099 140.179 141.072 140.141Z" fill="#4C5965"/>
<path opacity="0.24" d="M140.681 139.189C140.681 139.227 140.726 139.189 140.726 139.215C140.726 139.242 140.56 139.012 140.681 139.189Z" fill="#4C5965"/>
<path opacity="0.24" d="M140.94 140.08L140.963 140.035L140.914 140.008L140.94 140.08Z" fill="#4C5965"/>
<path opacity="0.24" d="M140.666 139.492L140.719 139.614C140.719 139.614 140.719 139.614 140.745 139.64C140.707 139.568 140.674 139.485 140.666 139.492Z" fill="#4C5965"/>
<path opacity="0.24" d="M140.744 139.64C140.758 139.671 140.775 139.701 140.797 139.727C140.782 139.697 140.764 139.668 140.744 139.64Z" fill="#4C5965"/>
<path opacity="0.24" d="M140.846 139.924L140.835 139.887L140.797 139.804L140.846 139.924Z" fill="#4C5965"/>
<path opacity="0.24" d="M140.018 138.244L139.938 138.124C139.938 138.124 139.938 138.157 139.961 138.199C139.984 138.24 140.014 138.27 140.018 138.244Z" fill="#4C5965"/>
<path opacity="0.24" d="M140.122 138.677C140.117 138.654 140.117 138.631 140.122 138.609L140.081 138.628L140.122 138.677Z" fill="#4C5965"/>
<path opacity="0.24" d="M139.919 138.313C139.919 138.313 139.791 138.151 139.878 138.313C139.897 138.313 139.972 138.433 139.919 138.313Z" fill="#4C5965"/>
<path opacity="0.24" d="M138.535 137.918L138.565 137.899L138.523 137.835L138.535 137.918Z" fill="#4C5965"/>
<path opacity="0.24" d="M136.956 138.972C137.114 138.912 136.956 138.912 137.114 138.863C137.141 138.825 136.994 138.904 137.024 138.863C136.945 138.935 136.892 138.95 136.956 138.972Z" fill="#4C5965"/>
<path opacity="0.24" d="M137.023 138.871L137.065 138.837C137.049 138.845 137.035 138.857 137.023 138.871Z" fill="#4C5965"/>
<path opacity="0.24" d="M143.162 144.938L143.264 144.9L143.192 144.911L143.162 144.938Z" fill="#4C5965"/>
<path opacity="0.24" d="M143.316 144.786L143.365 144.82L143.399 144.748C143.376 144.769 143.347 144.782 143.316 144.786Z" fill="#4C5965"/>
<path opacity="0.24" d="M133.225 142.378C133.225 142.401 133.225 142.424 133.251 142.469L133.225 142.378Z" fill="#4C5965"/>
<path opacity="0.24" d="M133.875 143.702L133.864 143.679L133.849 143.743L133.875 143.702Z" fill="#4C5965"/>
<path opacity="0.24" d="M134.504 144.771C134.481 144.726 134.444 144.676 134.425 144.631C134.474 144.726 134.474 144.809 134.504 144.771Z" fill="#4C5965"/>
</g>
<g opacity="0.24">
<path opacity="0.24" d="M150.117 146.273C150.117 146.318 150.155 146.273 150.166 146.292C150.121 146.224 150.11 146.281 150.117 146.273Z" fill="#4C5965"/>
<path opacity="0.24" d="M149.681 145.601L149.7 145.609L149.613 145.518L149.681 145.601Z" fill="#4C5965"/>
<path opacity="0.24" d="M149.331 144.938C149.331 145.029 149.467 145.173 149.512 145.317V145.344L149.576 145.374C149.486 145.234 149.405 145.088 149.331 144.938Z" fill="#4C5965"/>
<path opacity="0.24" d="M149.252 144.525C149.252 144.559 149.196 144.461 149.29 144.612V144.593L149.252 144.525Z" fill="#4C5965"/>
<path opacity="0.24" d="M149.285 144.597C149.323 144.668 149.285 144.544 149.285 144.597V144.597Z" fill="#4C5965"/>
<path opacity="0.24" d="M149.105 144.282L149.169 144.364C149.169 144.338 149.132 144.255 149.169 144.282C149.098 144.195 149.094 144.218 149.105 144.282Z" fill="#4C5965"/>
<path opacity="0.24" d="M149.022 144.214L149.056 144.259C149.056 144.259 149.053 144.233 149.022 144.214Z" fill="#4C5965"/>
<path opacity="0.24" d="M149.123 144.35L149.056 144.259C149.056 144.259 149.056 144.286 149.086 144.301C149.067 144.301 149.09 144.312 149.123 144.35Z" fill="#4C5965"/>
<path opacity="0.24" d="M149.161 144.411C149.18 144.468 149.206 144.54 149.161 144.457C149.225 144.627 149.244 144.586 149.161 144.411Z" fill="#4C5965"/>
<path opacity="0.24" d="M149.264 144.931L149.286 145.01L149.335 145.059C149.309 145.032 149.279 144.904 149.264 144.931Z" fill="#4C5965"/>
<path opacity="0.24" d="M148.83 143.698C148.83 143.698 148.83 143.743 148.808 143.755L148.857 143.819C148.845 143.766 148.815 143.71 148.83 143.698Z" fill="#4C5965"/>
<path opacity="0.24" d="M148.808 143.766L148.736 143.676C148.785 143.766 148.785 143.766 148.808 143.766Z" fill="#4C5965"/>
<path opacity="0.24" d="M148.962 144.225L149.086 144.373L148.943 144.195L148.962 144.225Z" fill="#4C5965"/>
<path opacity="0.24" d="M148.627 143.307L148.679 143.353L148.589 143.27L148.627 143.307Z" fill="#4C5965"/>
<path opacity="0.24" d="M148.488 143.053C148.529 143.087 148.488 142.977 148.525 143.015C148.488 142.956 148.444 142.901 148.394 142.852C148.436 142.913 148.468 142.981 148.488 143.053Z" fill="#4C5965"/>
<path opacity="0.24" d="M148.322 142.773L148.394 142.852C148.373 142.823 148.349 142.796 148.322 142.773Z" fill="#4C5965"/>
<path opacity="0.24" d="M148.653 143.489C148.662 143.458 148.662 143.426 148.653 143.395V143.447V143.489Z" fill="#4C5965"/>
<path opacity="0.24" d="M148.63 143.451L148.585 143.364L148.63 143.451Z" fill="#4C5965"/>
<path opacity="0.24" d="M148.656 143.501C148.656 143.501 148.649 143.497 148.656 143.501V143.501Z" fill="#4C5965"/>
<path opacity="0.24" d="M148.849 143.948C148.8 143.895 148.717 143.782 148.755 143.914C148.785 143.944 148.785 143.869 148.849 143.948Z" fill="#4C5965"/>
<path opacity="0.24" d="M148.646 143.569L148.695 143.679C148.695 143.679 148.695 143.648 148.729 143.679L148.646 143.569Z" fill="#4C5965"/>
<path opacity="0.24" d="M148.607 143.52L148.645 143.569L148.626 143.528L148.607 143.52Z" fill="#4C5965"/>
<path opacity="0.24" d="M148.407 142.974C148.37 142.928 148.337 142.878 148.31 142.826C148.336 142.892 148.366 142.957 148.4 143.019C148.4 143.019 148.43 143.038 148.407 142.974Z" fill="#4C5965"/>
<path opacity="0.24" d="M148.507 143.205C148.507 143.205 148.502 143.21 148.507 143.205V143.205Z" fill="#4C5965"/>
<path opacity="0.24" d="M147.998 142.261V142.272H148.005L147.998 142.261Z" fill="#4C5965"/>
<path opacity="0.24" d="M148.386 143.031C148.399 143.067 148.421 143.099 148.45 143.125L148.386 143.019C148.386 143.019 148.375 143.008 148.386 143.031Z" fill="#4C5965"/>
<path opacity="0.24" d="M148.228 142.629C148.228 142.655 148.228 142.685 148.254 142.715C148.25 142.685 148.239 142.629 148.228 142.629Z" fill="#4C5965"/>
<path opacity="0.24" d="M148.498 143.178C148.484 143.159 148.467 143.141 148.449 143.125C148.464 143.15 148.48 143.174 148.498 143.197V143.178Z" fill="#4C5965"/>
<path opacity="0.24" d="M147.723 142.189C147.753 142.189 147.843 142.291 147.87 142.413C147.896 142.534 147.998 142.39 147.998 142.272C147.998 142.272 147.975 142.272 147.9 142.185C147.9 142.227 147.99 142.439 147.918 142.359C147.847 142.28 147.87 142.242 147.847 142.166C147.847 142.242 147.704 142.011 147.67 142.067L147.753 142.181C147.753 142.181 147.711 142.151 147.723 142.189Z" fill="#4C5965"/>
<path opacity="0.24" d="M148.104 142.477L148.13 142.519C148.109 142.464 148.094 142.406 148.085 142.348C148.032 142.284 148.017 142.272 148.006 142.272L148.115 142.488L148.104 142.477Z" fill="#4C5965"/>
<path opacity="0.24" d="M148.232 142.716C148.187 142.697 148.119 142.598 148.119 142.678C148.191 142.807 148.191 142.758 148.243 142.826C148.13 142.625 148.292 142.879 148.243 142.72C148.267 142.754 148.288 142.789 148.307 142.826L148.266 142.712H148.247C148.221 142.648 148.247 142.712 148.247 142.712L148.123 142.511C148.155 142.581 148.192 142.65 148.232 142.716Z" fill="#4C5965"/>
<path opacity="0.24" d="M148.635 143.838C148.635 143.838 148.624 143.813 148.635 143.838V143.838Z" fill="#4C5965"/>
<path opacity="0.24" d="M148.607 143.744C148.631 143.761 148.649 143.785 148.66 143.812C148.66 143.857 148.66 143.812 148.638 143.812C148.615 143.812 148.713 143.903 148.679 143.812C148.651 143.748 148.636 143.68 148.634 143.611C148.616 143.653 148.608 143.698 148.607 143.744Z" fill="#4C5965"/>
<path opacity="0.24" d="M148.408 143.228L148.303 143.061L148.325 143.164C148.382 143.251 148.408 143.221 148.408 143.228Z" fill="#4C5965"/>
<path opacity="0.24" d="M148.002 142.234L148.047 142.237L147.949 142.162L148.002 142.234Z" fill="#4C5965"/>
<path opacity="0.24" d="M147.881 142.01L147.911 142.003L147.866 141.954L147.881 142.01Z" fill="#4C5965"/>
<path opacity="0.24" d="M140.402 145.371L140.436 145.416L140.402 145.371Z" fill="#4C5965"/>
<path opacity="0.24" d="M140.21 145.002H140.191C140.21 145.014 140.218 145.017 140.21 145.002Z" fill="#4C5965"/>
<path opacity="0.24" d="M143.512 140.327C143.425 140.327 143.323 140.346 143.346 140.369H143.384C143.424 140.348 143.467 140.334 143.512 140.327Z" fill="#4C5965"/>
<path opacity="0.24" d="M139.852 142.507H139.878L139.912 142.45L139.852 142.507Z" fill="#4C5965"/>
<path opacity="0.24" d="M139.863 142.659L139.758 142.689L139.863 142.659Z" fill="#4C5965"/>
<path opacity="0.24" d="M141.49 147.365L141.554 147.406C141.505 147.316 141.509 147.365 141.49 147.365Z" fill="#4C5965"/>
<path opacity="0.24" d="M146.657 139.712C146.638 139.654 146.615 139.597 146.589 139.542C146.615 139.629 146.623 139.705 146.657 139.712Z" fill="#4C5965"/>
<path opacity="0.24" d="M140.015 145.393C140.037 145.419 140.049 145.431 140.056 145.427C140.064 145.423 140.018 145.382 140.015 145.393Z" fill="#4C5965"/>
<path opacity="0.24" d="M146.491 139.36V139.398C146.525 139.443 146.554 139.491 146.578 139.542C146.568 139.474 146.537 139.41 146.491 139.36Z" fill="#4C5965"/>
<path opacity="0.24" d="M149.425 146.853L149.339 146.902C149.37 146.89 149.399 146.873 149.425 146.853Z" fill="#4C5965"/>
<path opacity="0.24" d="M147.418 141.112C147.444 141.161 147.418 141.112 147.418 141.112V141.112Z" fill="#4C5965"/>
<path opacity="0.24" d="M147.441 141.176C147.436 141.154 147.428 141.132 147.418 141.112L147.441 141.176Z" fill="#4C5965"/>
<path opacity="0.24" d="M147.452 141.161L147.471 141.203C147.471 141.203 147.479 141.199 147.452 141.161Z" fill="#4C5965"/>
<path opacity="0.24" d="M147.381 141.032C147.395 141.058 147.408 141.084 147.419 141.111L147.381 141.032Z" fill="#4C5965"/>
<path opacity="0.24" d="M143.32 149.834C143.373 149.792 143.35 149.804 143.32 149.834V149.834Z" fill="#4C5965"/>
<path opacity="0.24" d="M142.446 141.29L142.449 141.287L142.442 141.29H142.446Z" fill="#4C5965"/>
<path opacity="0.24" d="M142.284 141.404C142.322 141.348 142.378 141.308 142.442 141.29L142.341 141.233L142.284 141.404Z" fill="#4C5965"/>
<path opacity="0.24" d="M139.863 142.629C139.86 142.631 139.856 142.632 139.852 142.632C139.848 142.632 139.844 142.631 139.841 142.629C139.841 142.629 139.833 142.651 139.863 142.629Z" fill="#4C5965"/>
<path opacity="0.24" d="M145.422 139.698C145.4 139.709 145.375 139.715 145.351 139.716C145.351 139.716 145.369 139.724 145.422 139.698Z" fill="#4C5965"/>
<path opacity="0.24" d="M147.693 141.585L147.629 141.487C147.647 141.517 147.66 141.55 147.667 141.585C147.667 141.585 147.674 141.551 147.693 141.585Z" fill="#4C5965"/>
<path opacity="0.24" d="M147.961 142.591C147.961 142.591 147.98 142.621 147.991 142.632C147.968 142.557 147.934 142.519 147.961 142.591Z" fill="#4C5965"/>
<path opacity="0.24" d="M147.633 141.738C147.61 141.76 147.656 141.821 147.697 141.889C147.738 141.87 147.686 141.81 147.633 141.738Z" fill="#4C5965"/>
<path opacity="0.24" d="M147.708 141.908L147.742 141.972C147.742 141.972 147.731 141.946 147.708 141.908Z" fill="#4C5965"/>
<path opacity="0.24" d="M147.313 140.952C147.313 140.99 147.358 140.952 147.358 140.982C147.415 141.001 147.196 140.775 147.313 140.952Z" fill="#4C5965"/>
<path opacity="0.24" d="M147.572 141.843L147.595 141.802L147.546 141.776L147.572 141.843Z" fill="#4C5965"/>
<path opacity="0.24" d="M147.298 141.26L147.351 141.381C147.351 141.381 147.351 141.381 147.377 141.403C147.339 141.332 147.305 141.252 147.298 141.26Z" fill="#4C5965"/>
<path opacity="0.24" d="M147.376 141.404C147.389 141.437 147.409 141.468 147.432 141.494L147.376 141.404Z" fill="#4C5965"/>
<path opacity="0.24" d="M147.481 141.691L147.47 141.654L147.429 141.571L147.481 141.691Z" fill="#4C5965"/>
<path opacity="0.24" d="M146.65 140.011L146.574 139.891C146.555 139.891 146.574 139.925 146.593 139.966C146.612 140.008 146.65 140.038 146.65 140.011Z" fill="#4C5965"/>
<path opacity="0.24" d="M146.758 140.444C146.751 140.422 146.751 140.398 146.758 140.376L146.713 140.395L146.758 140.444Z" fill="#4C5965"/>
<path opacity="0.24" d="M146.552 140.08C146.552 140.08 146.424 139.918 146.511 140.08C146.526 140.08 146.605 140.201 146.552 140.08Z" fill="#4C5965"/>
<path opacity="0.24" d="M145.166 139.685L145.2 139.667L145.158 139.599L145.166 139.685Z" fill="#4C5965"/>
<path opacity="0.24" d="M143.587 140.732C143.745 140.672 143.587 140.672 143.745 140.619C143.772 140.585 143.629 140.661 143.655 140.619C143.576 140.702 143.512 140.732 143.587 140.732Z" fill="#4C5965"/>
<path opacity="0.24" d="M143.655 140.638L143.697 140.6L143.655 140.638Z" fill="#4C5965"/>
<path opacity="0.24" d="M149.794 146.705L149.896 146.667L149.824 146.679L149.794 146.705Z" fill="#4C5965"/>
<path opacity="0.24" d="M149.952 146.553L149.997 146.587L150.031 146.516C150.012 146.531 149.971 146.557 149.952 146.553Z" fill="#4C5965"/>
<path opacity="0.24" d="M139.856 144.146C139.856 144.164 139.856 144.187 139.887 144.236L139.856 144.146Z" fill="#4C5965"/>
<path opacity="0.24" d="M140.507 145.469L140.499 145.447L140.48 145.511L140.507 145.469Z" fill="#4C5965"/>
<path opacity="0.24" d="M141.137 146.538C141.114 146.493 141.076 146.444 141.058 146.398C141.114 146.493 141.095 146.576 141.137 146.538Z" fill="#4C5965"/>
</g>
<g opacity="0.24">
<path opacity="0.24" d="M157.288 148.184C157.307 148.226 157.326 148.184 157.337 148.184C157.292 148.132 157.281 148.188 157.288 148.184Z" fill="#4C5965"/>
<path opacity="0.24" d="M156.853 147.509L156.868 147.517L156.785 147.426L156.853 147.509Z" fill="#4C5965"/>
<path opacity="0.24" d="M156.502 146.85C156.502 146.937 156.638 147.085 156.683 147.21V147.236L156.751 147.271C156.668 147.13 156.543 146.956 156.502 146.85Z" fill="#4C5965"/>
<path opacity="0.24" d="M156.422 146.44C156.422 146.471 156.366 146.373 156.46 146.527L156.422 146.44Z" fill="#4C5965"/>
<path opacity="0.24" d="M156.457 146.508C156.495 146.576 156.457 146.455 156.457 146.508V146.508Z" fill="#4C5965"/>
<path opacity="0.24" d="M156.276 146.193L156.34 146.272C156.34 146.25 156.303 146.167 156.34 146.193C156.269 146.103 156.265 146.129 156.276 146.193Z" fill="#4C5965"/>
<path opacity="0.24" d="M156.192 146.125L156.226 146.167C156.226 146.167 156.223 146.144 156.192 146.125Z" fill="#4C5965"/>
<path opacity="0.24" d="M156.294 146.261L156.227 146.167C156.227 146.186 156.227 146.193 156.257 146.212C156.238 146.208 156.26 146.223 156.294 146.261Z" fill="#4C5965"/>
<path opacity="0.24" d="M156.318 146.323C156.318 146.38 156.363 146.448 156.299 146.364C156.397 146.539 156.416 146.493 156.318 146.323Z" fill="#4C5965"/>
<path opacity="0.24" d="M156.435 146.842L156.457 146.917L156.506 146.966C156.48 146.944 156.45 146.831 156.435 146.842Z" fill="#4C5965"/>
<path opacity="0.24" d="M156.001 145.606C156.001 145.606 156.001 145.651 155.979 145.666L156.027 145.726C156.016 145.689 155.986 145.621 156.001 145.606Z" fill="#4C5965"/>
<path opacity="0.24" d="M155.979 145.662L155.907 145.572C155.941 145.662 155.971 145.662 155.979 145.662Z" fill="#4C5965"/>
<path opacity="0.24" d="M156.133 146.137L156.257 146.285L156.114 146.106L156.133 146.137Z" fill="#4C5965"/>
<path opacity="0.24" d="M155.797 145.219L155.85 145.264L155.76 145.181L155.797 145.219Z" fill="#4C5965"/>
<path opacity="0.24" d="M155.658 144.965C155.699 144.995 155.658 144.889 155.695 144.927C155.657 144.868 155.613 144.814 155.563 144.764C155.607 144.825 155.638 144.893 155.658 144.965Z" fill="#4C5965"/>
<path opacity="0.24" d="M155.492 144.684L155.564 144.763C155.544 144.734 155.52 144.707 155.492 144.684Z" fill="#4C5965"/>
<path opacity="0.24" d="M155.801 145.359L155.756 145.272L155.801 145.359Z" fill="#4C5965"/>
<path opacity="0.24" d="M156.02 145.855C155.971 145.806 155.888 145.69 155.926 145.821C155.967 145.855 155.941 145.78 156.02 145.855Z" fill="#4C5965"/>
<path opacity="0.24" d="M155.816 145.477L155.865 145.59C155.865 145.59 155.865 145.556 155.899 145.59L155.816 145.477Z" fill="#4C5965"/>
<path opacity="0.24" d="M155.778 145.431L155.816 145.477L155.797 145.435L155.778 145.431Z" fill="#4C5965"/>
<path opacity="0.24" d="M155.565 144.882C155.527 144.838 155.494 144.789 155.467 144.738C155.493 144.803 155.523 144.866 155.557 144.927C155.557 144.927 155.602 144.95 155.565 144.882Z" fill="#4C5965"/>
<path opacity="0.24" d="M155.678 145.117C155.678 145.117 155.673 145.122 155.678 145.117V145.117Z" fill="#4C5965"/>
<path opacity="0.24" d="M155.169 144.169V144.183H155.176L155.169 144.169Z" fill="#4C5965"/>
<path opacity="0.24" d="M155.563 144.942C155.577 144.978 155.599 145.01 155.628 145.036C155.604 145.001 155.583 144.965 155.563 144.927C155.563 144.927 155.563 144.927 155.563 144.942Z" fill="#4C5965"/>
<path opacity="0.24" d="M155.398 144.525C155.398 144.552 155.398 144.582 155.425 144.616C155.421 144.593 155.41 144.525 155.398 144.525Z" fill="#4C5965"/>
<path opacity="0.24" d="M155.669 145.086C155.672 145.075 155.669 145.079 155.669 145.086V145.086Z" fill="#4C5965"/>
<path opacity="0.24" d="M155.669 145.086C155.654 145.069 155.637 145.052 155.62 145.037C155.635 145.061 155.651 145.084 155.669 145.105V145.086Z" fill="#4C5965"/>
<path opacity="0.24" d="M154.894 144.097C154.924 144.097 155.014 144.199 155.04 144.32C155.067 144.442 155.165 144.298 155.168 144.184C155.168 144.184 155.146 144.184 155.071 144.093C155.071 144.138 155.161 144.347 155.089 144.271C155.018 144.195 155.04 144.15 155.018 144.074C155.018 144.15 154.875 143.922 154.841 143.979L154.924 144.093C154.924 144.093 154.882 144.059 154.894 144.097Z" fill="#4C5965"/>
<path opacity="0.24" d="M155.274 144.385L155.3 144.43C155.278 144.374 155.263 144.316 155.255 144.256C155.202 144.192 155.187 144.184 155.176 144.18L155.285 144.4L155.274 144.385Z" fill="#4C5965"/>
<path opacity="0.24" d="M155.403 144.624C155.358 144.624 155.29 144.51 155.29 144.59C155.362 144.719 155.362 144.665 155.414 144.737C155.298 144.533 155.463 144.787 155.414 144.627C155.439 144.663 155.461 144.7 155.482 144.737L155.441 144.624L155.316 144.427C155.342 144.494 155.371 144.559 155.403 144.624Z" fill="#4C5965"/>
<path opacity="0.24" d="M155.806 145.745C155.806 145.745 155.795 145.72 155.806 145.745V145.745Z" fill="#4C5965"/>
<path opacity="0.24" d="M155.778 145.663C155.803 145.681 155.821 145.706 155.831 145.735C155.831 145.78 155.831 145.735 155.808 145.735C155.786 145.735 155.884 145.829 155.85 145.735C155.822 145.67 155.807 145.6 155.805 145.53C155.788 145.572 155.779 145.617 155.778 145.663Z" fill="#4C5965"/>
<path opacity="0.24" d="M155.564 145.135L155.459 144.972L155.482 145.071C155.564 145.162 155.564 145.132 155.564 145.135Z" fill="#4C5965"/>
<path opacity="0.24" d="M155.173 144.142L155.218 144.149L155.12 144.074L155.173 144.142Z" fill="#4C5965"/>
<path opacity="0.24" d="M155.052 143.918L155.082 143.914L155.033 143.861L155.052 143.918Z" fill="#4C5965"/>
<path opacity="0.24" d="M147.573 147.282L147.607 147.327L147.573 147.282Z" fill="#4C5965"/>
<path opacity="0.24" d="M147.381 146.91C147.381 146.91 147.388 146.925 147.381 146.91V146.91Z" fill="#4C5965"/>
<path opacity="0.24" d="M150.687 142.25C150.601 142.25 150.499 142.269 150.522 142.295L150.559 142.314C150.598 142.286 150.642 142.264 150.687 142.25Z" fill="#4C5965"/>
<path opacity="0.24" d="M147.022 144.418H147.049L147.083 144.366L147.022 144.418Z" fill="#4C5965"/>
<path opacity="0.24" d="M147.034 144.567L146.929 144.601C146.965 144.593 147 144.582 147.034 144.567Z" fill="#4C5965"/>
<path opacity="0.24" d="M148.661 149.273L148.725 149.318C148.676 149.224 148.68 149.273 148.661 149.273Z" fill="#4C5965"/>
<path opacity="0.24" d="M153.828 141.62C153.809 141.563 153.786 141.507 153.76 141.453C153.782 141.541 153.79 141.616 153.828 141.62Z" fill="#4C5965"/>
<path opacity="0.24" d="M147.185 147.301C147.207 147.331 147.218 147.339 147.226 147.335C147.234 147.331 147.188 147.294 147.185 147.301Z" fill="#4C5965"/>
<path opacity="0.24" d="M153.681 141.268V141.306C153.713 141.352 153.742 141.402 153.767 141.453C153.757 141.384 153.727 141.32 153.681 141.268Z" fill="#4C5965"/>
<path opacity="0.24" d="M154.329 149.591C154.329 149.591 154.34 149.584 154.329 149.591V149.591Z" fill="#4C5965"/>
<path opacity="0.24" d="M156.595 148.765L156.509 148.81C156.54 148.799 156.569 148.783 156.595 148.765Z" fill="#4C5965"/>
<path opacity="0.24" d="M154.589 143.008C154.615 143.053 154.589 143.008 154.589 143.008V143.008Z" fill="#4C5965"/>
<path opacity="0.24" d="M154.611 143.087C154.611 143.087 154.611 143.046 154.589 143.02L154.611 143.087Z" fill="#4C5965"/>
<path opacity="0.24" d="M154.619 143.069L154.642 143.114C154.642 143.114 154.649 143.11 154.619 143.069Z" fill="#4C5965"/>
<path opacity="0.24" d="M154.552 142.944C154.552 142.97 154.578 142.997 154.589 143.019C154.601 143.042 154.589 143.019 154.589 143.019L154.552 142.944Z" fill="#4C5965"/>
<path opacity="0.24" d="M150.487 151.73C150.544 151.7 150.521 151.73 150.487 151.73V151.73Z" fill="#4C5965"/>
<path opacity="0.24" d="M149.613 143.201L149.62 143.198H149.613V143.201Z" fill="#4C5965"/>
<path opacity="0.24" d="M149.456 143.315C149.493 143.258 149.549 143.217 149.614 143.198L149.513 143.145L149.456 143.315Z" fill="#4C5965"/>
<path opacity="0.24" d="M147.034 144.552C147.027 144.554 147.019 144.554 147.012 144.552C147.012 144.552 147.004 144.559 147.034 144.552Z" fill="#4C5965"/>
<path opacity="0.24" d="M152.593 141.609H152.521C152.521 141.609 152.552 141.631 152.593 141.609Z" fill="#4C5965"/>
<path opacity="0.24" d="M154.863 143.493L154.811 143.387C154.828 143.418 154.84 143.451 154.848 143.485C154.848 143.485 154.844 143.463 154.863 143.493Z" fill="#4C5965"/>
<path opacity="0.24" d="M155.131 144.498C155.14 144.514 155.15 144.529 155.161 144.543C155.138 144.468 155.104 144.43 155.131 144.498Z" fill="#4C5965"/>
<path opacity="0.24" d="M154.811 143.649C154.789 143.672 154.811 143.729 154.875 143.801C154.909 143.789 154.856 143.717 154.811 143.649Z" fill="#4C5965"/>
<path opacity="0.24" d="M154.879 143.816L154.913 143.884C154.932 143.884 154.902 143.854 154.879 143.816Z" fill="#4C5965"/>
<path opacity="0.24" d="M154.483 142.863C154.483 142.901 154.528 142.863 154.528 142.89C154.528 142.916 154.366 142.686 154.483 142.863Z" fill="#4C5965"/>
<path opacity="0.24" d="M154.743 143.755L154.766 143.709L154.717 143.683L154.743 143.755Z" fill="#4C5965"/>
<path opacity="0.24" d="M154.469 143.171L154.521 143.288C154.521 143.288 154.521 143.288 154.548 143.315C154.51 143.243 154.476 143.16 154.469 143.171Z" fill="#4C5965"/>
<path opacity="0.24" d="M154.547 143.315C154.561 143.348 154.58 143.379 154.603 143.406C154.586 143.375 154.568 143.344 154.547 143.315Z" fill="#4C5965"/>
<path opacity="0.24" d="M154.649 143.602L154.641 143.565L154.6 143.482L154.649 143.602Z" fill="#4C5965"/>
<path opacity="0.24" d="M153.82 141.923L153.745 141.802C153.726 141.802 153.745 141.832 153.764 141.878C153.783 141.923 153.817 141.945 153.82 141.923Z" fill="#4C5965"/>
<path opacity="0.24" d="M153.926 142.352C153.92 142.329 153.92 142.306 153.926 142.284L153.881 142.303L153.926 142.352Z" fill="#4C5965"/>
<path opacity="0.24" d="M153.723 141.991C153.704 141.991 153.595 141.826 153.681 141.991C153.7 141.991 153.776 142.112 153.723 141.991Z" fill="#4C5965"/>
<path opacity="0.24" d="M152.337 141.593L152.367 141.578L152.329 141.51L152.337 141.593Z" fill="#4C5965"/>
<path opacity="0.24" d="M150.759 142.651C150.917 142.587 150.759 142.587 150.917 142.538C150.944 142.504 150.8 142.58 150.827 142.538C150.748 142.628 150.695 142.628 150.759 142.651Z" fill="#4C5965"/>
<path opacity="0.24" d="M150.826 142.545L150.868 142.511L150.826 142.545Z" fill="#4C5965"/>
<path opacity="0.24" d="M156.965 148.613L157.067 148.579L156.995 148.586L156.965 148.613Z" fill="#4C5965"/>
<path opacity="0.24" d="M157.119 148.465L157.168 148.495L157.202 148.427C157.177 148.445 157.149 148.458 157.119 148.465Z" fill="#4C5965"/>
<path opacity="0.24" d="M147.026 146.042C147.026 146.065 147.026 146.087 147.056 146.132L147.026 146.042Z" fill="#4C5965"/>
<path opacity="0.24" d="M147.678 147.377L147.666 147.354L147.651 147.418L147.678 147.377Z" fill="#4C5965"/>
<path opacity="0.24" d="M148.307 148.446C148.284 148.401 148.246 148.355 148.228 148.31C148.284 148.401 148.261 148.484 148.307 148.446Z" fill="#4C5965"/>
</g>
<path d="M174.397 183C181.91 183 188 181.611 188 179.898C188 178.185 181.91 176.796 174.397 176.796C166.884 176.796 160.794 178.185 160.794 179.898C160.794 181.611 166.884 183 174.397 183Z" fill="#313F4D"/>
<path opacity="0.21" d="M188 179.113C188 180.395 181.91 181.434 174.397 181.434C166.883 181.434 160.79 180.395 160.79 179.113C160.79 177.831 166.883 176.792 174.397 176.792C181.91 176.792 188 177.831 188 179.113Z" fill="white"/>
<path d="M168.677 99.9902L170.955 98.1435C171.464 97.7281 171.789 97.1271 171.859 96.4715C171.93 95.8159 171.74 95.1587 171.332 94.6433L171.272 94.5675C170.859 94.0552 170.262 93.7279 169.611 93.6569C168.96 93.5858 168.307 93.7769 167.795 94.1883L165.517 96.0388C163.951 94.942 162.079 94.3744 160.171 94.418C158.264 94.4616 156.42 95.1142 154.904 96.2815L166.202 110.381C167.654 109.136 168.676 107.459 169.121 105.591C169.566 103.724 169.41 101.763 168.677 99.9902Z" fill="#313F4D"/>
<path d="M166.108 110.218C165.46 110.741 162.444 108.049 159.367 104.204C156.29 100.358 154.317 96.8203 154.961 96.297C155.605 95.7736 158.621 98.4661 161.698 102.311C164.775 106.156 166.748 109.695 166.108 110.218Z" fill="white"/>
<path d="M161.999 103.521C161.96 103.875 161.818 104.211 161.591 104.484C161.363 104.758 161.06 104.957 160.72 105.057C160.38 105.157 160.018 105.154 159.68 105.047C159.342 104.94 159.043 104.735 158.821 104.457C158.598 104.18 158.463 103.842 158.431 103.486C158.399 103.131 158.473 102.774 158.643 102.461C158.812 102.148 159.07 101.892 159.384 101.726C159.698 101.561 160.053 101.492 160.405 101.53C160.879 101.581 161.312 101.82 161.611 102.193C161.91 102.567 162.049 103.044 161.999 103.521Z" fill="#FCD66A"/>
<path d="M187.251 137.37H186.931V136.183C186.936 136.138 186.931 136.092 186.918 136.049C186.904 136.006 186.881 135.966 186.851 135.932C186.821 135.899 186.784 135.872 186.743 135.853C186.702 135.835 186.658 135.825 186.613 135.825C186.568 135.825 186.523 135.835 186.482 135.853C186.441 135.872 186.405 135.899 186.375 135.932C186.345 135.966 186.322 136.006 186.308 136.049C186.294 136.092 186.29 136.138 186.295 136.183V137.358H184.939L169.875 99.7782C169.83 99.6582 169.761 99.5486 169.674 99.4556C169.586 99.3626 169.481 99.2882 169.364 99.2367C169.247 99.1852 169.121 99.1578 168.994 99.1559C168.867 99.154 168.74 99.1777 168.622 99.2257C168.504 99.2737 168.397 99.3449 168.306 99.4353C168.216 99.5256 168.144 99.6333 168.096 99.7518C168.047 99.8704 168.023 99.9975 168.023 100.126C168.024 100.254 168.051 100.381 168.101 100.499L183.297 138.458L173.441 178.074C173.411 178.197 173.405 178.325 173.423 178.45C173.442 178.575 173.485 178.695 173.549 178.803C173.614 178.912 173.699 179.007 173.8 179.082C173.901 179.157 174.016 179.212 174.138 179.242C174.26 179.273 174.386 179.279 174.511 179.26C174.635 179.242 174.754 179.198 174.862 179.133C174.97 179.068 175.064 178.982 175.139 178.881C175.213 178.779 175.267 178.663 175.298 178.541L185.146 138.939C185.146 138.917 185.172 138.894 185.184 138.867H186.313V140.688C186.309 140.733 186.313 140.778 186.327 140.821C186.341 140.864 186.363 140.904 186.393 140.938C186.423 140.971 186.46 140.998 186.501 141.017C186.542 141.035 186.587 141.045 186.632 141.045C186.677 141.045 186.721 141.035 186.762 141.017C186.803 140.998 186.84 140.971 186.87 140.938C186.9 140.904 186.923 140.864 186.936 140.821C186.95 140.778 186.955 140.733 186.95 140.688V138.867H187.27C187.447 138.839 187.608 138.748 187.724 138.611C187.841 138.473 187.905 138.299 187.905 138.118C187.905 137.938 187.841 137.764 187.724 137.626C187.608 137.489 187.447 137.398 187.27 137.37H187.251Z" fill="#313F4D"/>
<path d="M98.6133 174.881C108.566 174.881 116.634 173.791 116.634 172.447C116.634 171.102 108.566 170.012 98.6133 170.012C88.6608 170.012 80.5928 171.102 80.5928 172.447C80.5928 173.791 88.6608 174.881 98.6133 174.881Z" fill="#313F4D"/>
<path d="M115.651 172.23L120.08 152.435L119.376 152.386L114.939 172.23H115.651Z" fill="#313F4D"/>
<path d="M82.0538 172.23L97.6151 155.276L113.549 172.23H114.351L97.6075 154.415L81.6734 171.775L77.8546 153.137L77.1504 153.182L81.052 172.23H82.0538Z" fill="#313F4D"/>
<path d="M100.153 172.23L113.018 154.169L112.359 154.024L99.3926 172.23H100.153Z" fill="#313F4D"/>
<path d="M98.3495 172.23L82.5133 153.823L81.873 153.994L97.5624 172.23H98.3495Z" fill="#313F4D"/>
<path d="M120.784 152.413C120.784 153.755 110.857 154.847 98.6132 154.847C86.3698 154.847 76.4463 153.755 76.4463 152.413C76.4463 151.07 86.3736 149.978 98.6132 149.978C110.853 149.978 120.784 151.067 120.784 152.413Z" fill="#313F4D"/>
<path opacity="0.21" d="M98.2626 154.097C110.505 154.097 120.43 153.175 120.43 152.037C120.43 150.9 110.505 149.978 98.2626 149.978C86.0202 149.978 76.0957 150.9 76.0957 152.037C76.0957 153.175 86.0202 154.097 98.2626 154.097Z" fill="white"/>
<path d="M98.2848 142.405C98.266 142.652 98.2509 142.898 98.2509 143.163C98.2265 144.355 98.4387 145.54 98.8749 146.649C99.3111 147.757 99.9625 148.767 100.791 149.618C101.62 150.47 102.609 151.147 103.7 151.609C104.792 152.071 105.964 152.309 107.148 152.309C108.332 152.309 109.504 152.071 110.596 151.609C111.688 151.147 112.677 150.47 113.505 149.618C114.334 148.767 114.985 147.757 115.421 146.649C115.858 145.54 116.07 144.355 116.045 143.163C116.045 142.913 116.045 142.667 116.012 142.405H98.2848Z" fill="#CD8025"/>
<path d="M131.611 78.4282C131.611 78.6709 131.577 78.9212 131.577 79.1866C131.625 81.5308 132.583 83.7626 134.247 85.4034C135.91 87.0442 138.146 87.9631 140.474 87.9631C142.803 87.9631 145.039 87.0442 146.702 85.4034C148.365 83.7626 149.324 81.5308 149.372 79.1866C149.372 78.9364 149.372 78.6861 149.338 78.4282H131.611Z" fill="#CD8025"/>
<path d="M132.338 78.9214C132.22 78.4684 132.247 77.9896 132.413 77.5524C132.628 77.1391 133.249 76.9192 133.562 77.2604C133.356 76.7753 133.277 76.2454 133.332 75.7208C133.43 75.2051 133.897 74.7197 134.413 74.8031C134.929 74.8866 135.166 75.3416 135.385 75.7626C135.251 75.3279 135.225 74.8671 135.309 74.4201C135.357 74.1976 135.482 73.9993 135.661 73.8604C135.84 73.7216 136.063 73.6512 136.288 73.6617C136.857 73.7603 137.042 74.4581 137.143 75.0307C136.767 74.4656 137.607 73.7148 138.243 73.9461C138.88 74.1774 139.177 74.9169 139.26 75.5919C139.102 74.9814 138.944 74.3102 139.215 73.7413C139.486 73.1725 140.39 72.9185 140.721 73.4456C140.839 73.7246 140.908 74.0224 140.924 74.3253C140.988 74.6211 141.241 74.9359 141.531 74.8524C141.312 74.4126 141.941 73.931 142.393 74.094C142.845 74.2571 143.06 74.8031 143.128 75.2923C143.202 75.8338 143.159 76.3851 143 76.9078C143.158 76.6087 143.395 76.3588 143.685 76.1851C143.974 76.0114 144.305 75.9204 144.642 75.9218C145.319 75.9825 145.888 76.7902 145.549 77.3818C145.643 76.8092 145.956 76.1986 146.51 76.047C147.063 75.8953 147.745 76.5248 147.451 77.0291C147.688 76.3162 148.852 76.4565 149.217 77.1088C149.583 77.761 149.398 78.5763 149.217 79.3006L132.338 78.9214Z" fill="#269244"/>
<path d="M132.115 78.47L131.738 78.3828L140.498 41.1479C140.507 41.1061 140.529 41.0686 140.562 41.0416C140.595 41.0147 140.636 41 140.679 41C140.722 40.9991 140.764 41.0134 140.798 41.0404C140.831 41.0674 140.855 41.1055 140.863 41.1479L149.525 78.3828L149.149 78.47L140.668 42.0163L132.115 78.47Z" fill="#313F4D"/>
<path d="M140.665 88.1324L140.288 88.1248L140.48 78.4549V41.1897H140.857V78.4587L140.665 88.1324Z" fill="#313F4D"/>
<path d="M146.358 78.7165C146.873 79.0278 147.288 79.4821 147.552 80.0248C147.266 81.1245 145.718 81.6402 145.884 82.7741C146.049 83.9079 147.767 84.1089 147.767 85.2276C147.767 85.804 147.292 86.2325 146.814 86.46C146.336 86.6876 145.801 86.8165 145.436 87.2185C145.195 87.4877 145.134 88.0717 145.473 88.1475C145.692 88.2006 145.876 87.9769 146.08 87.8669C146.524 87.6242 147.127 88.1058 147.066 88.6481C147.052 88.7731 147.006 88.8922 146.932 88.9935C146.858 89.0947 146.758 89.1745 146.644 89.2249C146.529 89.2752 146.404 89.2943 146.28 89.2803C146.155 89.2662 146.037 89.2195 145.937 89.1449C145.994 89.4034 145.978 89.6727 145.893 89.9231C145.807 90.1734 145.654 90.395 145.451 90.5631C145.298 90.6727 145.125 90.7489 144.941 90.7868C144.757 90.8247 144.568 90.8234 144.385 90.7831C144.101 90.7252 143.84 90.5876 143.63 90.3863C143.421 90.185 143.273 89.9281 143.202 89.6454C143.067 89.0501 143.394 88.3409 143.933 88.2082C143.342 87.6621 142.686 86.9037 142.909 86.0884C143.131 85.2731 144.276 84.7687 144.166 83.8738C144.102 83.3239 143.586 83.0168 143.202 82.6603C142.818 82.3039 142.57 81.553 142.991 81.2572C143.153 81.1435 143.368 81.1435 143.515 81.0032C144.005 80.5405 143.01 79.7252 143.184 79.0351C143.238 78.8954 143.322 78.769 143.428 78.6638C143.534 78.5586 143.662 78.4771 143.801 78.4245C144.263 78.1312 144.789 77.9579 145.334 77.9202C145.617 77.923 145.89 78.0242 146.107 78.2067C146.323 78.3892 146.471 78.6417 146.524 78.9213" fill="#269244"/>
</g>
<defs>
<clipPath id="clip0">
<path d="M0 0H200C206.627 0 212 5.37258 212 12V208C212 214.627 206.627 220 200 220H0V0Z" fill="white"/>
</clipPath>
</defs>
</svg>
