<svg width="212" height="220" viewBox="0 0 212 220" fill="none" xmlns="http://www.w3.org/2000/svg">
<path d="M167.945 200.882H112.586C111.792 200.896 111.004 200.741 110.274 200.426C109.545 200.112 108.89 199.646 108.355 199.059C107.82 198.473 107.415 197.779 107.169 197.023C106.923 196.268 106.84 195.469 106.927 194.68L121.239 31.2089C121.409 29.5343 122.184 27.9792 123.419 26.8361C124.655 25.6929 126.265 25.0403 127.948 25.0009H183.307C184.102 24.9867 184.89 25.1421 185.62 25.4567C186.35 25.7713 187.005 26.2378 187.54 26.8253C188.076 27.4127 188.48 28.1075 188.726 28.8633C188.972 29.6192 189.054 30.4188 188.966 31.2089L174.654 194.68C174.483 196.353 173.707 197.907 172.472 199.049C171.236 200.191 169.627 200.843 167.945 200.882V200.882Z" fill="#407BFF"/>
<path opacity="0.4" d="M167.945 200.882H112.586C111.792 200.896 111.004 200.741 110.274 200.426C109.545 200.112 108.89 199.646 108.355 199.059C107.82 198.473 107.415 197.779 107.169 197.023C106.923 196.268 106.84 195.469 106.927 194.68L121.239 31.2089C121.409 29.5343 122.184 27.9792 123.419 26.8361C124.655 25.6929 126.265 25.0403 127.948 25.0009H183.307C184.102 24.9867 184.89 25.1421 185.62 25.4567C186.35 25.7713 187.005 26.2378 187.54 26.8253C188.076 27.4127 188.48 28.1075 188.726 28.8633C188.972 29.6192 189.054 30.4188 188.966 31.2089L174.654 194.68C174.483 196.353 173.707 197.907 172.472 199.049C171.236 200.191 169.627 200.843 167.945 200.882V200.882Z" fill="white"/>
<path d="M161.982 200.882H106.623C105.828 200.896 105.04 200.741 104.311 200.426C103.581 200.112 102.927 199.646 102.392 199.059C101.856 198.473 101.452 197.779 101.206 197.023C100.959 196.268 100.877 195.469 100.963 194.68L115.276 31.2089C115.445 29.5343 116.221 27.9792 117.456 26.8361C118.691 25.6929 120.302 25.0403 121.984 25.0009H177.343C178.138 24.9867 178.927 25.1421 179.657 25.4567C180.387 25.7713 181.041 26.2378 181.577 26.8253C182.112 27.4127 182.516 28.1075 182.762 28.8633C183.008 29.6192 183.09 30.4188 183.003 31.2089L168.69 194.68C168.519 196.353 167.743 197.907 166.508 199.049C165.273 200.191 163.663 200.843 161.982 200.882V200.882Z" fill="#263238"/>
<path d="M161.982 200.882H106.623C105.828 200.896 105.04 200.741 104.311 200.426C103.581 200.112 102.927 199.646 102.392 199.059C101.856 198.473 101.452 197.779 101.206 197.023C100.959 196.268 100.877 195.469 100.963 194.68L115.276 31.2089C115.445 29.5343 116.221 27.9792 117.456 26.8361C118.691 25.6929 120.302 25.0403 121.984 25.0009H177.343C178.138 24.9867 178.927 25.1421 179.657 25.4567C180.387 25.7713 181.041 26.2378 181.577 26.8253C182.112 27.4127 182.516 28.1075 182.762 28.8633C183.008 29.6192 183.09 30.4188 183.003 31.2089L168.69 194.68C168.519 196.353 167.743 197.907 166.508 199.049C165.273 200.191 163.663 200.843 161.982 200.882V200.882Z" fill="#407BFF"/>
<path opacity="0.4" d="M180.766 30.8929L166.454 194.674C166.335 196.022 165.494 197.059 164.558 197.059H104.547C103.688 197.059 103.122 196.099 103.235 194.859L117.595 30.6841C117.691 29.6107 118.317 28.6744 119.062 28.6744H134.06C134.484 28.6744 134.836 29.074 134.943 29.6524L135.372 31.8589C135.48 32.4255 135.826 32.8191 136.249 32.8191H161.79C162.04 32.7836 162.273 32.6744 162.46 32.5055C162.647 32.3365 162.78 32.1155 162.84 31.8709L163.651 29.6524C163.713 29.4043 163.845 29.1796 164.033 29.0058C164.22 28.8321 164.455 28.7169 164.707 28.6744H179.49C180.307 28.6864 180.874 29.7121 180.766 30.8929Z" fill="white"/>
<path d="M180.069 38.9196L167.772 179.455H104.583L116.88 38.9196H180.069Z" fill="#407BFF"/>
<path opacity="0.6" d="M124.155 35.2878H124.936L125.067 33.785H124.292L124.155 35.2878Z" fill="white"/>
<path opacity="0.6" d="M122.885 35.2879H123.666L123.839 33.2842H123.064L122.885 35.2879Z" fill="white"/>
<path opacity="0.6" d="M121.615 35.2879H122.396L122.616 32.7832H121.835L121.615 35.2879Z" fill="white"/>
<path opacity="0.6" d="M120.344 35.2878H121.125L121.388 32.2822H120.607L120.344 35.2878Z" fill="white"/>
<path opacity="0.6" d="M173.282 34.7392H172.817L172.948 33.2365H173.413L173.282 34.7392Z" fill="white"/>
<path opacity="0.6" d="M173.551 35.2879H177.236L177.463 32.6879H173.777L173.551 35.2879Z" fill="white"/>
<path opacity="0.6" d="M149.339 28.901C149.279 29.5928 148.838 30.1533 148.361 30.1533C147.884 30.1533 147.544 29.5928 147.603 28.901C147.663 28.2092 148.098 27.6487 148.581 27.6487C149.065 27.6487 149.416 28.2092 149.339 28.901Z" fill="#263238"/>
<path opacity="0.6" d="M151.092 28.901C151.056 29.3483 150.776 29.7061 150.466 29.7061C150.156 29.7061 149.941 29.3483 149.983 28.901C150.025 28.4538 150.299 28.1019 150.609 28.1019C150.919 28.1019 151.134 28.4597 151.092 28.901Z" fill="#263238"/>
<path d="M180.063 38.9196L178.357 58.4142L178.065 61.7776L176.699 77.3959L176.485 79.823L174.546 101.965L174.338 104.393L172.477 125.652L172.209 128.712L167.772 179.449H104.577L116.874 38.9196H180.063Z" fill="#263238"/>
<path opacity="0.5" d="M117.649 82.3337C117.713 82.3857 117.793 82.4132 117.875 82.4113C117.938 82.409 118 82.3935 118.057 82.3658C118.113 82.338 118.163 82.2987 118.203 82.2502C118.237 82.2124 118.263 82.1683 118.279 82.1204C118.296 82.0726 118.302 82.0219 118.299 81.9714C118.296 81.9209 118.282 81.8716 118.26 81.8263C118.237 81.781 118.206 81.7406 118.168 81.7076L117.082 80.8607L118.305 80.008C118.393 79.9525 118.456 79.8648 118.481 79.7634C118.505 79.6619 118.489 79.555 118.436 79.4653C118.406 79.4241 118.368 79.3893 118.324 79.3628C118.281 79.3363 118.232 79.3187 118.182 79.3109C118.132 79.3031 118.08 79.3054 118.031 79.3176C117.981 79.3298 117.934 79.3516 117.893 79.3818L116.218 80.5745C116.166 80.6109 116.123 80.6579 116.091 80.7125C116.059 80.767 116.039 80.8277 116.033 80.8906C116.027 80.9499 116.037 81.0097 116.059 81.0647C116.082 81.1197 116.118 81.1684 116.164 81.2066L117.649 82.3337Z" fill="white"/>
<path opacity="0.5" d="M123.064 80.8549L121.841 81.6897C121.753 81.7472 121.691 81.8365 121.668 81.9388C121.645 82.0411 121.662 82.1485 121.716 82.2384C121.749 82.287 121.793 82.3267 121.845 82.3538C121.897 82.3809 121.955 82.3945 122.014 82.3934C122.1 82.3943 122.184 82.3671 122.253 82.3159L123.928 81.153C123.981 81.1195 124.026 81.0739 124.058 81.02C124.09 80.9662 124.109 80.9055 124.113 80.8429C124.12 80.7834 124.112 80.7232 124.089 80.6679C124.066 80.6126 124.029 80.564 123.982 80.5269L122.503 79.3699C122.418 79.3082 122.312 79.2824 122.209 79.298C122.105 79.3137 122.011 79.3695 121.948 79.4534C121.915 79.4912 121.889 79.5354 121.873 79.5832C121.856 79.6311 121.849 79.6818 121.853 79.7323C121.856 79.7828 121.869 79.8321 121.892 79.8774C121.915 79.9227 121.946 79.963 121.984 79.9961L123.064 80.8549Z" fill="white"/>
<path opacity="0.5" d="M119.402 82.3875C119.446 82.3937 119.49 82.3937 119.533 82.3875C119.616 82.3859 119.697 82.3603 119.766 82.3138C119.835 82.2672 119.889 82.2016 119.921 82.1251L120.941 79.7993C120.963 79.7543 120.976 79.7051 120.978 79.6549C120.98 79.6047 120.971 79.5546 120.953 79.5079C120.934 79.4612 120.906 79.419 120.87 79.3839C120.834 79.3488 120.791 79.3217 120.744 79.3044C120.643 79.2722 120.534 79.2789 120.438 79.323C120.342 79.3672 120.266 79.4456 120.225 79.5429L119.205 81.8627C119.179 81.9091 119.163 81.9609 119.158 82.0142C119.154 82.0676 119.162 82.1213 119.18 82.1714C119.199 82.2215 119.229 82.2669 119.267 82.3042C119.306 82.3416 119.352 82.37 119.402 82.3875Z" fill="white"/>
<path opacity="0.5" d="M125.914 82.5365H127.948C128.088 82.5307 128.222 82.4754 128.326 82.3805C128.429 82.2855 128.496 82.1571 128.514 82.0177C128.521 81.9514 128.514 81.8845 128.493 81.8213C128.472 81.7581 128.437 81.7 128.392 81.651C128.347 81.602 128.292 81.5631 128.231 81.5368C128.17 81.5106 128.104 81.4977 128.037 81.4989H125.974C125.828 81.4976 125.687 81.5497 125.577 81.6453C125.467 81.7408 125.396 81.8733 125.377 82.0177C125.369 82.0893 125.378 82.1619 125.402 82.2298C125.427 82.2976 125.466 82.359 125.518 82.4091C125.57 82.4593 125.633 82.4968 125.701 82.5189C125.77 82.541 125.843 82.547 125.914 82.5365V82.5365Z" fill="white"/>
<path d="M133.196 96.002C133.202 95.9358 133.195 95.8688 133.174 95.8056C133.153 95.7424 133.119 95.6844 133.074 95.6354C133.029 95.5864 132.974 95.5474 132.912 95.5212C132.851 95.495 132.785 95.482 132.719 95.4832H114.828C114.689 95.4904 114.556 95.5463 114.454 95.6411C114.351 95.7359 114.285 95.8636 114.268 96.002C114.26 96.0685 114.266 96.1359 114.287 96.1995C114.308 96.2631 114.342 96.3216 114.387 96.3708C114.432 96.4201 114.488 96.459 114.55 96.4849C114.611 96.5107 114.678 96.523 114.745 96.5209H132.635C132.774 96.5137 132.907 96.4578 133.009 96.363C133.112 96.2682 133.178 96.1405 133.196 96.002V96.002Z" fill="white"/>
<path opacity="0.5" d="M135.444 96.5269H140.71C140.849 96.5196 140.981 96.4638 141.084 96.369C141.186 96.2742 141.252 96.1464 141.27 96.008C141.277 95.9418 141.27 95.8748 141.248 95.8116C141.227 95.7484 141.193 95.6904 141.148 95.6414C141.103 95.5923 141.048 95.5534 140.987 95.5272C140.926 95.501 140.86 95.488 140.793 95.4892H135.533C135.388 95.488 135.247 95.5401 135.137 95.6356C135.027 95.7312 134.956 95.8637 134.937 96.008C134.93 96.0769 134.938 96.1465 134.96 96.212C134.983 96.2774 135.02 96.337 135.068 96.3865C135.117 96.4361 135.176 96.4743 135.24 96.4986C135.305 96.5228 135.375 96.5325 135.444 96.5269Z" fill="white"/>
<path opacity="0.5" d="M115.013 93.235H121.787C121.928 93.2291 122.062 93.1739 122.165 93.0789C122.269 92.984 122.336 92.8555 122.354 92.7162C122.361 92.6499 122.353 92.583 122.332 92.5198C122.311 92.4566 122.277 92.3985 122.232 92.3495C122.187 92.3005 122.132 92.2616 122.071 92.2353C122.01 92.2091 121.943 92.1962 121.877 92.1973H115.102C114.957 92.1961 114.816 92.2482 114.706 92.3438C114.596 92.4393 114.525 92.5718 114.506 92.7162C114.499 92.7851 114.507 92.8547 114.53 92.9201C114.552 92.9855 114.589 93.0451 114.638 93.0947C114.686 93.1442 114.745 93.1825 114.81 93.2067C114.874 93.231 114.944 93.2406 115.013 93.235V93.235Z" fill="white"/>
<path d="M146.763 92.7162C146.769 92.6499 146.762 92.583 146.741 92.5198C146.72 92.4566 146.686 92.3985 146.641 92.3495C146.596 92.3005 146.541 92.2616 146.479 92.2353C146.418 92.2091 146.352 92.1962 146.285 92.1973H125.24C125.1 92.2032 124.966 92.2585 124.862 92.3534C124.759 92.4483 124.692 92.5768 124.674 92.7162C124.667 92.7824 124.674 92.8494 124.695 92.9126C124.716 92.9758 124.751 93.0338 124.796 93.0828C124.841 93.1319 124.896 93.1708 124.957 93.197C125.018 93.2232 125.084 93.2362 125.151 93.235H146.196C146.336 93.2291 146.47 93.1739 146.574 93.0789C146.678 92.984 146.744 92.8555 146.763 92.7162V92.7162Z" fill="white"/>
<path d="M115.293 89.9491H127.572C127.713 89.9432 127.847 89.888 127.95 89.7931C128.054 89.6981 128.121 89.5696 128.139 89.4303C128.146 89.364 128.138 89.2971 128.117 89.2339C128.096 89.1707 128.062 89.1126 128.017 89.0636C127.972 89.0146 127.917 88.9757 127.856 88.9494C127.794 88.9232 127.728 88.9103 127.662 88.9115H115.383C115.237 88.9102 115.096 88.9623 114.986 89.0579C114.877 89.1534 114.805 89.2859 114.787 89.4303C114.779 89.4992 114.787 89.5688 114.81 89.6342C114.833 89.6996 114.87 89.7592 114.918 89.8088C114.966 89.8583 115.025 89.8966 115.09 89.9208C115.155 89.9451 115.224 89.9547 115.293 89.9491V89.9491Z" fill="white"/>
<path opacity="0.5" d="M129.922 89.4422C129.915 89.5085 129.922 89.5754 129.943 89.6386C129.964 89.7018 129.998 89.7599 130.044 89.8089C130.089 89.8579 130.144 89.8968 130.205 89.9231C130.266 89.9493 130.332 89.9622 130.399 89.9611H133.44C133.586 89.9623 133.727 89.9102 133.837 89.8146C133.946 89.7191 134.017 89.5866 134.036 89.4422C134.043 89.376 134.036 89.309 134.015 89.2458C133.994 89.1826 133.96 89.1246 133.915 89.0756C133.869 89.0265 133.814 88.9876 133.753 88.9614C133.692 88.9352 133.626 88.9222 133.559 88.9234H130.518C130.372 88.9222 130.231 88.9743 130.121 89.0698C130.012 89.1654 129.941 89.2979 129.922 89.4422Z" fill="white"/>
<path opacity="0.5" d="M115.574 86.6574H130.071C130.211 86.6515 130.345 86.5962 130.449 86.5013C130.552 86.4064 130.619 86.2779 130.637 86.1385C130.644 86.0723 130.637 86.0053 130.616 85.9421C130.595 85.8789 130.561 85.8209 130.515 85.7719C130.47 85.7228 130.415 85.6839 130.354 85.6577C130.293 85.6315 130.227 85.6185 130.16 85.6197H115.657C115.517 85.6256 115.383 85.6808 115.279 85.7757C115.176 85.8707 115.109 85.9992 115.091 86.1385C115.084 86.2053 115.091 86.2728 115.113 86.3364C115.134 86.4 115.169 86.4584 115.214 86.5075C115.26 86.5566 115.316 86.5954 115.378 86.6212C115.44 86.6471 115.507 86.6594 115.574 86.6574V86.6574Z" fill="white"/>
<path d="M140.847 86.6574H151.969C152.114 86.6586 152.255 86.6065 152.365 86.5109C152.475 86.4154 152.546 86.2829 152.565 86.1385C152.572 86.0723 152.564 86.0053 152.543 85.9421C152.522 85.8789 152.488 85.8209 152.443 85.7719C152.398 85.7228 152.343 85.6839 152.282 85.6577C152.221 85.6315 152.154 85.6185 152.088 85.6197H140.93C140.791 85.6269 140.658 85.6828 140.556 85.7776C140.454 85.8724 140.388 86.0001 140.37 86.1385C140.363 86.2048 140.37 86.2717 140.391 86.3349C140.412 86.3981 140.446 86.4562 140.492 86.5052C140.537 86.5542 140.592 86.5931 140.653 86.6194C140.714 86.6456 140.78 86.6585 140.847 86.6574Z" fill="white"/>
<path opacity="0.5" d="M164.122 111.936H131.86C131.719 111.942 131.585 111.998 131.482 112.093C131.378 112.187 131.311 112.316 131.293 112.455C131.286 112.522 131.294 112.588 131.315 112.652C131.336 112.715 131.37 112.773 131.415 112.822C131.46 112.871 131.515 112.91 131.576 112.936C131.638 112.962 131.704 112.975 131.77 112.974H164.033C164.173 112.968 164.307 112.913 164.411 112.818C164.514 112.723 164.581 112.595 164.599 112.455C164.606 112.389 164.599 112.322 164.578 112.259C164.557 112.196 164.522 112.138 164.477 112.089C164.432 112.04 164.377 112.001 164.316 111.974C164.255 111.948 164.189 111.935 164.122 111.936V111.936Z" fill="white"/>
<path d="M171.207 111.937H167.217C167.072 111.935 166.931 111.987 166.821 112.083C166.711 112.179 166.64 112.311 166.621 112.455C166.614 112.522 166.621 112.589 166.642 112.652C166.663 112.715 166.698 112.773 166.743 112.822C166.788 112.871 166.843 112.91 166.904 112.936C166.965 112.962 167.031 112.975 167.098 112.974H171.087C171.228 112.968 171.362 112.913 171.465 112.818C171.569 112.723 171.636 112.595 171.654 112.455C171.661 112.392 171.654 112.327 171.635 112.266C171.616 112.205 171.584 112.148 171.542 112.1C171.5 112.051 171.449 112.011 171.391 111.983C171.334 111.955 171.271 111.939 171.207 111.937V111.937Z" fill="white"/>
<path d="M141.777 109.682H154.783C154.924 109.676 155.058 109.621 155.161 109.526C155.265 109.431 155.332 109.303 155.35 109.163C155.357 109.097 155.349 109.03 155.328 108.967C155.307 108.904 155.273 108.846 155.228 108.797C155.183 108.748 155.128 108.709 155.067 108.683C155.006 108.656 154.939 108.643 154.873 108.645H141.867C141.726 108.65 141.592 108.706 141.489 108.801C141.385 108.896 141.318 109.024 141.3 109.163C141.293 109.23 141.301 109.297 141.322 109.36C141.343 109.423 141.377 109.481 141.422 109.53C141.467 109.579 141.522 109.618 141.583 109.644C141.644 109.67 141.711 109.683 141.777 109.682V109.682Z" fill="white"/>
<path opacity="0.5" d="M164.325 109.682C164.465 109.676 164.599 109.621 164.703 109.526C164.807 109.431 164.873 109.303 164.891 109.163C164.898 109.097 164.891 109.029 164.869 108.966C164.848 108.902 164.813 108.844 164.768 108.794C164.722 108.745 164.666 108.707 164.604 108.681C164.542 108.655 164.476 108.643 164.408 108.645H157.032C156.891 108.65 156.757 108.706 156.654 108.801C156.55 108.896 156.483 109.024 156.465 109.163C156.458 109.23 156.466 109.297 156.487 109.36C156.508 109.423 156.542 109.481 156.587 109.53C156.632 109.579 156.687 109.618 156.748 109.644C156.809 109.671 156.876 109.683 156.942 109.682H164.325Z" fill="white"/>
<path opacity="0.5" d="M171.481 108.645H167.557C167.417 108.65 167.283 108.706 167.179 108.801C167.075 108.896 167.009 109.024 166.99 109.163C166.984 109.23 166.991 109.297 167.012 109.36C167.033 109.423 167.067 109.481 167.112 109.53C167.157 109.579 167.212 109.618 167.274 109.644C167.335 109.67 167.401 109.683 167.468 109.682H171.392C171.532 109.676 171.666 109.621 171.769 109.526C171.873 109.431 171.94 109.303 171.958 109.163C171.965 109.097 171.957 109.03 171.936 108.967C171.915 108.904 171.881 108.846 171.836 108.797C171.791 108.748 171.736 108.709 171.675 108.683C171.614 108.656 171.548 108.643 171.481 108.645V108.645Z" fill="white"/>
<path d="M164.731 105.359H147.359C147.219 105.365 147.085 105.42 146.981 105.515C146.877 105.61 146.811 105.738 146.792 105.878C146.786 105.944 146.793 106.011 146.814 106.074C146.835 106.137 146.869 106.195 146.914 106.244C146.959 106.293 147.014 106.332 147.076 106.358C147.137 106.385 147.203 106.398 147.27 106.396H164.641C164.787 106.398 164.928 106.346 165.038 106.25C165.147 106.154 165.219 106.022 165.238 105.878C165.245 105.809 165.237 105.739 165.214 105.674C165.191 105.608 165.154 105.549 165.106 105.499C165.058 105.45 164.999 105.411 164.934 105.387C164.869 105.363 164.8 105.353 164.731 105.359Z" fill="white"/>
<path d="M171.761 105.359H167.802C167.661 105.365 167.527 105.42 167.424 105.515C167.32 105.61 167.253 105.738 167.235 105.878C167.228 105.944 167.236 106.011 167.257 106.074C167.278 106.137 167.312 106.195 167.357 106.244C167.402 106.293 167.457 106.332 167.518 106.358C167.579 106.385 167.646 106.398 167.712 106.396H171.678C171.817 106.389 171.95 106.333 172.052 106.238C172.155 106.144 172.22 106.016 172.238 105.878C172.245 105.811 172.238 105.744 172.217 105.681C172.196 105.618 172.162 105.56 172.117 105.511C172.071 105.462 172.017 105.423 171.955 105.397C171.894 105.37 171.828 105.358 171.761 105.359V105.359Z" fill="white"/>
<path opacity="0.5" d="M155.38 102.562C155.388 102.495 155.381 102.428 155.36 102.364C155.34 102.301 155.305 102.242 155.26 102.193C155.215 102.144 155.16 102.105 155.098 102.079C155.036 102.053 154.97 102.041 154.903 102.043H137.209C137.069 102.049 136.935 102.104 136.831 102.199C136.728 102.294 136.661 102.423 136.643 102.562C136.636 102.628 136.643 102.695 136.664 102.758C136.685 102.822 136.719 102.88 136.764 102.929C136.81 102.978 136.865 103.017 136.926 103.043C136.987 103.069 137.053 103.082 137.12 103.081H154.831C154.968 103.071 155.098 103.014 155.198 102.919C155.298 102.825 155.362 102.698 155.38 102.562V102.562Z" fill="white"/>
<path opacity="0.5" d="M158.129 102.067C157.989 102.073 157.855 102.128 157.751 102.223C157.647 102.318 157.581 102.446 157.562 102.586C157.556 102.652 157.563 102.719 157.584 102.782C157.605 102.845 157.639 102.903 157.684 102.952C157.729 103.001 157.784 103.04 157.846 103.067C157.907 103.093 157.973 103.106 158.04 103.104H164.921C165.062 103.099 165.196 103.043 165.299 102.948C165.403 102.854 165.47 102.725 165.488 102.586C165.495 102.519 165.487 102.452 165.466 102.389C165.445 102.326 165.411 102.268 165.366 102.219C165.321 102.17 165.266 102.131 165.205 102.105C165.144 102.079 165.077 102.066 165.011 102.067H158.129Z" fill="white"/>
<path d="M172.042 102.067H168.124C167.983 102.073 167.849 102.128 167.746 102.223C167.642 102.318 167.575 102.446 167.557 102.586C167.55 102.652 167.558 102.719 167.579 102.782C167.6 102.845 167.634 102.903 167.679 102.952C167.724 103.001 167.779 103.04 167.84 103.067C167.902 103.093 167.968 103.106 168.034 103.104H171.952C172.093 103.099 172.226 103.043 172.33 102.948C172.434 102.854 172.501 102.725 172.519 102.586C172.525 102.519 172.518 102.452 172.497 102.389C172.476 102.326 172.442 102.268 172.397 102.219C172.352 102.17 172.297 102.131 172.236 102.105C172.174 102.079 172.108 102.066 172.042 102.067V102.067Z" fill="white"/>
<path d="M159.298 99.8186H162.703C162.848 99.8198 162.989 99.7678 163.099 99.6722C163.209 99.5766 163.28 99.4442 163.299 99.2998C163.307 99.2331 163.3 99.1655 163.28 99.1015C163.259 99.0376 163.225 98.9788 163.18 98.9291C163.135 98.8794 163.079 98.84 163.018 98.8134C162.956 98.7868 162.889 98.7737 162.822 98.775H159.411C159.27 98.7811 159.135 98.8372 159.031 98.9333C158.928 99.0294 158.861 99.1593 158.844 99.2998C158.838 99.3641 158.845 99.429 158.864 99.4906C158.884 99.5521 158.916 99.609 158.958 99.6577C159.001 99.7063 159.053 99.7457 159.111 99.7734C159.17 99.8011 159.233 99.8165 159.298 99.8186Z" fill="white"/>
<path opacity="0.5" d="M165.13 99.8186H172.233C172.373 99.8127 172.507 99.7575 172.611 99.6626C172.714 99.5676 172.781 99.4392 172.799 99.2998C172.807 99.2331 172.8 99.1655 172.78 99.1015C172.759 99.0376 172.725 98.9788 172.68 98.9291C172.635 98.8794 172.579 98.84 172.518 98.8134C172.456 98.7868 172.389 98.7737 172.322 98.775H165.22C165.078 98.7811 164.944 98.8372 164.84 98.9333C164.736 99.0294 164.67 99.1593 164.653 99.2998C164.646 99.366 164.654 99.433 164.675 99.4962C164.696 99.5594 164.73 99.6174 164.775 99.6664C164.82 99.7155 164.875 99.7544 164.936 99.7806C164.997 99.8068 165.064 99.8198 165.13 99.8186Z" fill="white"/>
<path d="M120.893 43.9767C120.957 44.0287 121.037 44.0562 121.12 44.0542C121.182 44.0539 121.244 44.0398 121.301 44.013C121.357 43.9863 121.408 43.9474 121.448 43.8992C121.481 43.8609 121.507 43.8163 121.524 43.7679C121.54 43.7195 121.547 43.6684 121.544 43.6174C121.54 43.5664 121.527 43.5166 121.504 43.4708C121.482 43.425 121.45 43.3841 121.412 43.3505L120.326 42.5037L121.519 41.6569C121.608 41.6015 121.671 41.5137 121.695 41.4123C121.72 41.3109 121.704 41.2039 121.65 41.1142C121.621 41.0724 121.583 41.0369 121.539 41.01C121.496 40.983 121.447 40.9651 121.397 40.9573C121.346 40.9495 121.294 40.952 121.245 40.9646C121.195 40.9772 121.148 40.9997 121.108 41.0307L119.432 42.2234C119.38 42.2592 119.336 42.3061 119.304 42.3608C119.272 42.4154 119.253 42.4765 119.247 42.5395C119.242 42.598 119.251 42.6569 119.274 42.7109C119.297 42.765 119.333 42.8126 119.378 42.8496L120.893 43.9767Z" fill="white"/>
<path d="M126.308 42.4978L125.085 43.3506C124.998 43.4069 124.936 43.4951 124.913 43.5965C124.889 43.6978 124.906 43.8043 124.96 43.8932C124.991 43.9438 125.035 43.9853 125.088 44.0135C125.14 44.0418 125.199 44.0558 125.258 44.0542C125.344 44.0551 125.428 44.0279 125.497 43.9767L127.179 42.8138C127.23 42.7772 127.273 42.7301 127.305 42.6756C127.337 42.6211 127.357 42.5605 127.363 42.4978C127.368 42.4388 127.358 42.3796 127.334 42.3254C127.31 42.2713 127.273 42.224 127.226 42.1877L125.747 41.0248C125.662 40.9646 125.557 40.9396 125.453 40.9552C125.35 40.9708 125.257 41.0256 125.193 41.1083C125.159 41.1466 125.133 41.1912 125.116 41.2396C125.1 41.2879 125.093 41.3391 125.096 41.3901C125.1 41.441 125.113 41.4909 125.136 41.5367C125.158 41.5825 125.19 41.6233 125.228 41.6569L126.308 42.4978Z" fill="white"/>
<path d="M122.646 44.0303C122.69 44.0393 122.734 44.0393 122.778 44.0303C122.861 44.0288 122.941 44.0032 123.01 43.9566C123.079 43.91 123.133 43.8445 123.165 43.7679L124.185 41.4481C124.207 41.4031 124.22 41.3539 124.222 41.3037C124.224 41.2535 124.216 41.2034 124.197 41.1567C124.178 41.11 124.15 41.0678 124.114 41.0327C124.078 40.9976 124.035 40.9705 123.988 40.9532C123.888 40.9206 123.78 40.9264 123.684 40.9694C123.588 41.0124 123.511 41.0895 123.469 41.1857L122.45 43.5115C122.423 43.5575 122.407 43.6088 122.403 43.6618C122.398 43.7147 122.406 43.768 122.425 43.8177C122.443 43.8674 122.473 43.9122 122.511 43.949C122.55 43.9858 122.596 44.0136 122.646 44.0303V44.0303Z" fill="white"/>
<path opacity="0.5" d="M129.141 44.1854H131.198C131.338 44.1796 131.472 44.1243 131.576 44.0294C131.68 43.9345 131.746 43.806 131.765 43.6666C131.771 43.6003 131.764 43.5334 131.743 43.4702C131.722 43.407 131.688 43.349 131.643 43.2999C131.598 43.2509 131.543 43.212 131.481 43.1858C131.42 43.1595 131.354 43.1466 131.287 43.1478H129.224C129.085 43.155 128.952 43.2109 128.85 43.3057C128.747 43.4005 128.681 43.5282 128.664 43.6666C128.656 43.7331 128.662 43.8004 128.683 43.864C128.704 43.9277 128.738 43.9861 128.783 44.0354C128.828 44.0846 128.884 44.1235 128.945 44.1494C129.007 44.1753 129.074 44.1876 129.141 44.1854V44.1854Z" fill="white"/>
<path opacity="0.5" d="M155.553 48.2942H158.361C158.501 48.287 158.633 48.2312 158.736 48.1364C158.838 48.0416 158.904 47.9138 158.922 47.7754C158.93 47.709 158.923 47.6416 158.902 47.578C158.882 47.5143 158.848 47.4559 158.802 47.4067C158.757 47.3574 158.702 47.3185 158.64 47.2926C158.578 47.2667 158.512 47.2544 158.445 47.2566H155.66C155.52 47.2624 155.386 47.3177 155.282 47.4126C155.178 47.5076 155.112 47.636 155.093 47.7754C155.087 47.8402 155.094 47.9056 155.114 47.9676C155.134 48.0295 155.166 48.0867 155.209 48.1355C155.253 48.1842 155.305 48.2235 155.364 48.2508C155.423 48.2781 155.488 48.2929 155.553 48.2942V48.2942Z" fill="white"/>
<path d="M125.425 47.7873C125.419 47.8536 125.426 47.9205 125.447 47.9837C125.468 48.0469 125.502 48.105 125.547 48.154C125.592 48.203 125.647 48.2419 125.708 48.2682C125.77 48.2944 125.836 48.3073 125.902 48.3062H151.969C152.114 48.3074 152.255 48.2553 152.365 48.1597C152.475 48.0642 152.546 47.9317 152.565 47.7873C152.572 47.7211 152.564 47.6541 152.543 47.5909C152.522 47.5277 152.488 47.4697 152.443 47.4207C152.398 47.3716 152.343 47.3327 152.282 47.3065C152.221 47.2803 152.155 47.2673 152.088 47.2685H125.986C125.846 47.2757 125.714 47.3316 125.612 47.4264C125.509 47.5212 125.443 47.6489 125.425 47.7873Z" fill="white"/>
<path opacity="0.5" d="M118.818 48.2943H122.801C122.942 48.2885 123.076 48.2332 123.179 48.1383C123.283 48.0434 123.35 47.9149 123.368 47.7755C123.375 47.7092 123.367 47.6423 123.346 47.5791C123.325 47.5159 123.291 47.4579 123.246 47.4088C123.201 47.3598 123.146 47.3209 123.085 47.2947C123.023 47.2684 122.957 47.2555 122.891 47.2567H118.901C118.762 47.2639 118.629 47.3198 118.527 47.4146C118.424 47.5094 118.358 47.6371 118.341 47.7755C118.333 47.8419 118.339 47.9093 118.36 47.9729C118.381 48.0366 118.415 48.095 118.46 48.1443C118.505 48.1935 118.561 48.2324 118.623 48.2583C118.684 48.2842 118.751 48.2965 118.818 48.2943Z" fill="white"/>
<path d="M145.552 51.5921C145.698 51.5933 145.839 51.5412 145.949 51.4457C146.058 51.3501 146.13 51.2176 146.148 51.0732C146.155 51.0065 146.148 50.939 146.126 50.8754C146.105 50.8117 146.07 50.7534 146.025 50.7043C145.979 50.6552 145.923 50.6164 145.861 50.5905C145.799 50.5647 145.732 50.5524 145.665 50.5544H135.289C135.149 50.5603 135.015 50.6155 134.911 50.7105C134.807 50.8054 134.741 50.9339 134.722 51.0732C134.716 51.1395 134.723 51.2064 134.744 51.2697C134.765 51.3329 134.799 51.3909 134.844 51.4399C134.889 51.4889 134.944 51.5278 135.006 51.5541C135.067 51.5803 135.133 51.5933 135.199 51.5921H145.552Z" fill="white"/>
<path d="M125.622 51.592H132.987C133.127 51.5862 133.261 51.5309 133.365 51.436C133.469 51.3411 133.535 51.2126 133.554 51.0732C133.56 51.007 133.553 50.94 133.532 50.8768C133.511 50.8136 133.477 50.7556 133.432 50.7066C133.387 50.6575 133.332 50.6186 133.27 50.5924C133.209 50.5662 133.143 50.5532 133.076 50.5544H125.712C125.571 50.5602 125.437 50.6155 125.334 50.7104C125.23 50.8054 125.163 50.9339 125.145 51.0732C125.138 51.1395 125.146 51.2064 125.167 51.2696C125.188 51.3328 125.222 51.3909 125.267 51.4399C125.312 51.4889 125.367 51.5278 125.428 51.5541C125.489 51.5803 125.556 51.5932 125.622 51.592V51.592Z" fill="white"/>
<path opacity="0.5" d="M118.537 51.592H122.455C122.596 51.5862 122.73 51.5309 122.833 51.436C122.937 51.3411 123.004 51.2126 123.022 51.0732C123.029 51.007 123.021 50.94 123 50.8768C122.979 50.8136 122.945 50.7556 122.9 50.7066C122.855 50.6575 122.8 50.6186 122.739 50.5924C122.677 50.5662 122.611 50.5532 122.545 50.5544H118.627C118.481 50.5532 118.34 50.6052 118.23 50.7008C118.12 50.7964 118.049 50.9289 118.03 51.0732C118.023 51.1421 118.031 51.2117 118.054 51.2772C118.077 51.3426 118.114 51.4022 118.162 51.4517C118.21 51.5013 118.269 51.5395 118.334 51.5638C118.399 51.588 118.468 51.5977 118.537 51.592V51.592Z" fill="white"/>
<path d="M140.626 54.3651C140.633 54.2988 140.625 54.2319 140.604 54.1687C140.583 54.1055 140.549 54.0474 140.504 53.9984C140.459 53.9494 140.404 53.9105 140.343 53.8843C140.282 53.858 140.216 53.8451 140.149 53.8463H125.377C125.238 53.8535 125.106 53.9094 125.003 54.0042C124.901 54.099 124.835 54.2267 124.817 54.3651C124.81 54.4313 124.817 54.4983 124.839 54.5615C124.86 54.6247 124.894 54.6827 124.939 54.7318C124.984 54.7808 125.039 54.8197 125.1 54.8459C125.161 54.8722 125.227 54.8851 125.294 54.8839H140.06C140.2 54.8781 140.334 54.8228 140.437 54.7279C140.541 54.633 140.608 54.5045 140.626 54.3651V54.3651Z" fill="white"/>
<path opacity="0.5" d="M118.257 54.8839H122.223C122.368 54.8851 122.509 54.8331 122.619 54.7375C122.729 54.6419 122.8 54.5095 122.819 54.3651C122.826 54.2988 122.818 54.2319 122.797 54.1687C122.776 54.1055 122.742 54.0474 122.697 53.9984C122.652 53.9494 122.597 53.9105 122.536 53.8843C122.475 53.858 122.409 53.8451 122.342 53.8463H118.346C118.201 53.845 118.06 53.8971 117.95 53.9927C117.84 54.0883 117.769 54.2207 117.75 54.3651C117.743 54.434 117.751 54.5036 117.774 54.569C117.796 54.6344 117.833 54.6941 117.882 54.7436C117.93 54.7931 117.989 54.8314 118.054 54.8557C118.119 54.8799 118.188 54.8896 118.257 54.8839V54.8839Z" fill="white"/>
<path d="M135.104 58.1757H150.209C150.35 58.1683 150.483 58.1115 150.585 58.0155C150.688 57.9195 150.753 57.7904 150.77 57.6509C150.778 57.5844 150.771 57.5171 150.75 57.4535C150.73 57.3898 150.696 57.3314 150.65 57.2821C150.605 57.2329 150.55 57.194 150.488 57.1681C150.426 57.1422 150.36 57.1299 150.293 57.1321H135.193C135.053 57.1379 134.919 57.1932 134.815 57.2881C134.712 57.383 134.645 57.5115 134.627 57.6509C134.619 57.7176 134.626 57.7852 134.646 57.8492C134.667 57.9131 134.701 57.9719 134.746 58.0216C134.791 58.0713 134.847 58.1107 134.908 58.1373C134.97 58.1639 135.037 58.177 135.104 58.1757V58.1757Z" fill="white"/>
<path d="M125.109 57.1322C124.97 57.1394 124.837 57.1952 124.735 57.29C124.632 57.3848 124.567 57.5126 124.549 57.651C124.54 57.7179 124.546 57.7859 124.566 57.8503C124.586 57.9146 124.62 57.9738 124.666 58.0238C124.711 58.0737 124.767 58.1132 124.829 58.1394C124.891 58.1656 124.958 58.1781 125.026 58.1758H131.896C132.036 58.1683 132.169 58.1116 132.272 58.0156C132.374 57.9196 132.439 57.7905 132.456 57.651C132.463 57.5847 132.456 57.5178 132.435 57.4546C132.413 57.3914 132.379 57.3333 132.334 57.2843C132.289 57.2353 132.234 57.1964 132.173 57.1701C132.112 57.1439 132.046 57.131 131.979 57.1322H125.109Z" fill="white"/>
<path opacity="0.5" d="M117.983 58.1758H121.901C122.041 58.1683 122.174 58.1116 122.277 58.0156C122.379 57.9196 122.445 57.7905 122.461 57.651C122.468 57.5847 122.461 57.5178 122.44 57.4546C122.419 57.3914 122.384 57.3333 122.339 57.2843C122.294 57.2353 122.239 57.1964 122.178 57.1701C122.117 57.1439 122.051 57.131 121.984 57.1322H118.066C117.927 57.1394 117.794 57.1952 117.692 57.29C117.589 57.3848 117.524 57.5126 117.506 57.651C117.497 57.7179 117.503 57.7859 117.523 57.8503C117.543 57.9146 117.577 57.9738 117.623 58.0238C117.668 58.0737 117.724 58.1132 117.786 58.1394C117.848 58.1656 117.915 58.1781 117.983 58.1758V58.1758Z" fill="white"/>
<path d="M130.727 60.4239H127.351C127.211 60.4298 127.077 60.485 126.973 60.58C126.87 60.6749 126.803 60.8034 126.785 60.9428C126.778 61.009 126.786 61.076 126.807 61.1392C126.828 61.2024 126.862 61.2604 126.907 61.3094C126.952 61.3585 127.007 61.3974 127.068 61.4236C127.129 61.4498 127.195 61.4628 127.262 61.4616H130.667C130.808 61.4557 130.941 61.4005 131.045 61.3055C131.149 61.2106 131.216 61.0821 131.234 60.9428C131.241 60.8739 131.233 60.8042 131.21 60.7388C131.187 60.6734 131.151 60.6138 131.102 60.5643C131.054 60.5147 130.995 60.4764 130.93 60.4522C130.865 60.4279 130.796 60.4183 130.727 60.4239V60.4239Z" fill="white"/>
<path d="M124.895 60.424H117.81C117.669 60.4298 117.536 60.4851 117.432 60.58C117.328 60.6749 117.262 60.8034 117.243 60.9428C117.237 61.009 117.244 61.076 117.265 61.1392C117.286 61.2024 117.32 61.2604 117.365 61.3095C117.41 61.3585 117.465 61.3974 117.527 61.4236C117.588 61.4498 117.654 61.4628 117.72 61.4616H124.823C124.963 61.4558 125.097 61.4005 125.201 61.3056C125.305 61.2106 125.371 61.0822 125.389 60.9428C125.397 60.875 125.389 60.8064 125.367 60.7419C125.345 60.6774 125.309 60.6185 125.262 60.5691C125.215 60.5198 125.157 60.4813 125.094 60.4562C125.031 60.4311 124.963 60.4201 124.895 60.424Z" fill="white"/>
<path d="M146.917 64.2346C146.911 64.3008 146.918 64.3678 146.939 64.431C146.96 64.4942 146.994 64.5522 147.039 64.6012C147.084 64.6503 147.139 64.6892 147.201 64.7154C147.262 64.7416 147.328 64.7546 147.395 64.7534H175.196C175.337 64.7476 175.471 64.6923 175.574 64.5974C175.678 64.5024 175.745 64.374 175.763 64.2346C175.77 64.1679 175.764 64.1003 175.743 64.0363C175.723 63.9724 175.689 63.9136 175.643 63.8639C175.598 63.8142 175.543 63.7748 175.481 63.7482C175.42 63.7216 175.353 63.7085 175.286 63.7098H147.484C147.343 63.7159 147.208 63.772 147.104 63.8681C147.001 63.9642 146.934 64.0941 146.917 64.2346Z" fill="white"/>
<path opacity="0.5" d="M139.41 63.7098C139.263 63.7087 139.121 63.7616 139.011 63.8584C138.901 63.9552 138.831 64.0891 138.813 64.2346C138.806 64.3008 138.814 64.3678 138.835 64.431C138.856 64.4942 138.89 64.5522 138.935 64.6012C138.98 64.6503 139.035 64.6892 139.096 64.7154C139.158 64.7416 139.224 64.7546 139.29 64.7534H144.556C144.702 64.7546 144.843 64.7026 144.953 64.607C145.062 64.5114 145.133 64.3789 145.152 64.2346C145.159 64.1675 145.152 64.0998 145.13 64.0359C145.109 63.972 145.074 63.9133 145.029 63.8637C144.983 63.8141 144.927 63.7748 144.866 63.7482C144.804 63.7217 144.737 63.7086 144.669 63.7098H139.41Z" fill="white"/>
<path opacity="0.5" d="M175.005 67.0017H168.237C168.097 67.0075 167.963 67.0628 167.859 67.1577C167.755 67.2526 167.689 67.3811 167.67 67.5205C167.664 67.5868 167.671 67.6537 167.692 67.7169C167.713 67.7801 167.747 67.8381 167.792 67.8872C167.837 67.9362 167.892 67.9751 167.954 68.0013C168.015 68.0275 168.081 68.0405 168.147 68.0393H174.922C175.061 68.0321 175.194 67.9762 175.296 67.8814C175.399 67.7866 175.465 67.6589 175.483 67.5205C175.489 67.4542 175.482 67.3873 175.461 67.3241C175.44 67.2609 175.406 67.2028 175.361 67.1538C175.316 67.1048 175.261 67.0659 175.199 67.0397C175.138 67.0134 175.072 67.0005 175.005 67.0017V67.0017Z" fill="white"/>
<path d="M165.345 67.5205C165.352 67.4542 165.344 67.3873 165.323 67.3241C165.302 67.2609 165.268 67.2028 165.223 67.1538C165.178 67.1048 165.123 67.0659 165.062 67.0397C165 67.0134 164.934 67.0005 164.868 67.0017H136.523C136.383 67.0075 136.249 67.0628 136.145 67.1577C136.042 67.2526 135.975 67.3811 135.957 67.5205C135.95 67.5868 135.957 67.6537 135.978 67.7169C135.999 67.7801 136.034 67.8381 136.079 67.8872C136.124 67.9362 136.179 67.9751 136.24 68.0013C136.301 68.0275 136.367 68.0405 136.434 68.0393H164.784C164.924 68.0321 165.056 67.9762 165.158 67.8814C165.261 67.7866 165.327 67.6589 165.345 67.5205V67.5205Z" fill="white"/>
<path d="M174.731 70.2935H162.452C162.312 70.2994 162.178 70.3546 162.075 70.4496C161.971 70.5445 161.904 70.673 161.886 70.8124C161.879 70.8786 161.887 70.9456 161.908 71.0088C161.929 71.072 161.963 71.13 162.008 71.179C162.053 71.2281 162.108 71.267 162.169 71.2932C162.23 71.3194 162.296 71.3324 162.363 71.3312H174.642C174.782 71.3253 174.916 71.2701 175.02 71.1751C175.123 71.0802 175.19 70.9517 175.208 70.8124C175.215 70.7461 175.208 70.6792 175.187 70.6159C175.166 70.5527 175.132 70.4947 175.086 70.4457C175.041 70.3967 174.986 70.3577 174.925 70.3315C174.864 70.3053 174.798 70.2923 174.731 70.2935Z" fill="white"/>
<path opacity="0.5" d="M156.572 70.2935C156.432 70.2994 156.298 70.3546 156.194 70.4496C156.091 70.5445 156.024 70.673 156.006 70.8124C155.999 70.8786 156.006 70.9456 156.027 71.0088C156.048 71.072 156.083 71.13 156.128 71.179C156.173 71.2281 156.228 71.267 156.289 71.2932C156.35 71.3194 156.416 71.3324 156.483 71.3312H159.554C159.694 71.324 159.826 71.2681 159.928 71.1733C160.031 71.0785 160.097 70.9508 160.115 70.8124C160.121 70.7461 160.114 70.6792 160.093 70.6159C160.072 70.5527 160.038 70.4947 159.993 70.4457C159.948 70.3967 159.893 70.3577 159.832 70.3315C159.77 70.3053 159.704 70.2923 159.638 70.2935H156.572Z" fill="white"/>
<path d="M174.463 73.5793H150.042C149.903 73.5866 149.771 73.6424 149.668 73.7372C149.566 73.832 149.5 73.9598 149.482 74.0982C149.475 74.1644 149.483 74.2314 149.504 74.2946C149.525 74.3578 149.559 74.4158 149.604 74.4648C149.649 74.5139 149.704 74.5528 149.765 74.579C149.826 74.6052 149.892 74.6182 149.959 74.617H174.362C174.502 74.6111 174.636 74.5559 174.739 74.461C174.843 74.366 174.91 74.2375 174.928 74.0982C174.935 74.0329 174.928 73.967 174.907 73.9046C174.887 73.8422 174.854 73.7848 174.81 73.736C174.766 73.6871 174.713 73.648 174.653 73.621C174.593 73.594 174.529 73.5798 174.463 73.5793V73.5793Z" fill="white"/>
<path d="M139.278 73.5794H130.756C130.616 73.5852 130.482 73.6405 130.379 73.7354C130.275 73.8303 130.208 73.9588 130.19 74.0982C130.183 74.1644 130.191 74.2314 130.212 74.2946C130.233 74.3578 130.267 74.4158 130.312 74.4649C130.357 74.5139 130.412 74.5528 130.473 74.579C130.534 74.6052 130.6 74.6182 130.667 74.617H139.183C139.328 74.6182 139.469 74.5662 139.579 74.4706C139.689 74.375 139.76 74.2426 139.779 74.0982C139.786 74.0298 139.778 73.9608 139.756 73.8958C139.734 73.8308 139.697 73.7716 139.65 73.7221C139.602 73.6727 139.544 73.6343 139.48 73.6096C139.416 73.585 139.347 73.5746 139.278 73.5794V73.5794Z" fill="white"/>
<path d="M170.885 143.37L167.676 179.449V179.574H104.69V179.449L111.5 102.771L114.959 103.677L131.83 108.072L132.766 108.317L133.917 108.615L135.337 108.985L136.219 109.217L147.52 112.163H147.591C148.414 112.378 149.219 112.622 150.007 112.897C156.277 115.086 161.685 119.221 165.439 124.7C169.194 130.179 171.1 136.714 170.879 143.352L170.885 143.37Z" fill="#407BFF"/>
<path opacity="0.8" d="M170.885 143.37L167.676 179.449V179.574H104.69V179.449L111.5 102.771L114.959 103.677L131.83 108.072L132.766 108.317L133.917 108.615L135.337 108.985L136.219 109.217L147.52 112.163H147.591C148.414 112.378 149.219 112.622 150.007 112.897C156.277 115.086 161.685 119.221 165.439 124.7C169.194 130.179 171.1 136.714 170.879 143.352L170.885 143.37Z" fill="white"/>
<path opacity="0.6" d="M136.231 109.217H114.482L114.584 108.072L114.971 103.677L131.842 108.072L132.778 108.317L133.929 108.615L135.348 108.985L136.231 109.217Z" fill="black"/>
<path opacity="0.5" d="M136.231 109.217H114.482L114.584 108.072H131.842L132.778 108.317L133.929 108.615L135.348 108.985L136.231 109.217Z" fill="black"/>
<path opacity="0.6" d="M133.929 108.615L133.875 109.217H114.482L114.584 108.072H131.842L132.778 108.317L133.929 108.615Z" fill="white"/>
<path d="M135.348 108.985C135.324 109.065 135.292 109.143 135.253 109.217C135.127 109.461 134.938 109.666 134.705 109.811C134.471 109.956 134.204 110.035 133.929 110.04C133.668 110.053 133.409 109.979 133.193 109.831C132.978 109.682 132.817 109.466 132.736 109.217C132.675 109.045 132.653 108.862 132.671 108.68C132.683 108.556 132.711 108.434 132.754 108.317L133.905 108.615L135.348 108.985Z" fill="white"/>
<path opacity="0.4" d="M142.367 117.626H114.828C114.69 117.629 114.553 117.603 114.427 117.549C114.3 117.495 114.186 117.414 114.094 117.312C114.001 117.211 113.931 117.09 113.889 116.959C113.847 116.828 113.834 116.689 113.85 116.552V116.552C113.881 116.258 114.02 115.986 114.241 115.789C114.461 115.591 114.747 115.483 115.043 115.485H142.558C142.695 115.482 142.831 115.509 142.957 115.563C143.082 115.617 143.195 115.697 143.288 115.798C143.38 115.899 143.45 116.018 143.493 116.148C143.536 116.278 143.551 116.416 143.536 116.552V116.552C143.507 116.843 143.372 117.114 143.156 117.312C142.941 117.509 142.66 117.621 142.367 117.626V117.626Z" fill="#407BFF"/>
<path opacity="0.4" d="M150.013 113.237C149.982 113.531 149.842 113.803 149.622 114C149.402 114.197 149.116 114.306 148.82 114.304H115.103C114.966 114.306 114.83 114.28 114.704 114.226C114.578 114.172 114.465 114.092 114.373 113.991C114.28 113.89 114.21 113.77 114.168 113.64C114.125 113.51 114.11 113.373 114.124 113.237C114.154 112.941 114.293 112.668 114.513 112.469C114.734 112.271 115.02 112.162 115.317 112.163H147.556H147.627C148.45 112.378 149.255 112.622 150.043 112.897C150.05 113.011 150.04 113.125 150.013 113.237V113.237Z" fill="#407BFF"/>
<path opacity="0.3" d="M168.559 130.477L167.02 147.807H111.053L113.212 123.523H164.593C166.209 125.661 167.542 127.998 168.559 130.477V130.477Z" fill="#407BFF"/>
<path opacity="0.5" d="M150.299 127.752H145.91C145.785 127.754 145.662 127.73 145.547 127.681C145.433 127.632 145.33 127.559 145.246 127.467C145.162 127.375 145.098 127.266 145.059 127.147C145.021 127.029 145.008 126.903 145.021 126.78V126.78C145.049 126.516 145.172 126.271 145.368 126.092C145.563 125.913 145.818 125.812 146.083 125.808H150.472C150.596 125.805 150.72 125.829 150.834 125.878C150.948 125.928 151.051 126.001 151.134 126.093C151.218 126.185 151.281 126.294 151.319 126.412C151.357 126.531 151.369 126.656 151.355 126.78V126.78C151.328 127.043 151.206 127.287 151.012 127.466C150.817 127.646 150.564 127.747 150.299 127.752V127.752Z" fill="white"/>
<path opacity="0.5" d="M162.429 130.871H145.629C145.505 130.873 145.382 130.849 145.267 130.8C145.153 130.751 145.051 130.677 144.967 130.585C144.883 130.493 144.82 130.384 144.782 130.266C144.745 130.147 144.732 130.022 144.747 129.898C144.775 129.636 144.897 129.393 145.092 129.215C145.286 129.037 145.539 128.937 145.802 128.932H162.602C162.726 128.93 162.849 128.954 162.963 129.003C163.077 129.052 163.179 129.124 163.263 129.215C163.347 129.307 163.411 129.415 163.45 129.533C163.489 129.65 163.503 129.775 163.49 129.898V129.898C163.462 130.162 163.339 130.407 163.144 130.586C162.948 130.765 162.694 130.866 162.429 130.871V130.871Z" fill="white"/>
<path opacity="0.3" d="M139.338 145.523H113.898L115.651 125.807H141.085L139.338 145.523Z" fill="#407BFF"/>
<path opacity="0.5" d="M114.285 141.175L121.781 135.665L125.711 138.778L134.018 132.833L139.964 138.45L139.338 145.523H113.898L114.285 141.175Z" fill="white"/>
<path opacity="0.5" d="M122.801 130.453C122.755 131.009 122.509 131.53 122.107 131.917C121.705 132.305 121.176 132.533 120.619 132.558C120.357 132.554 120.099 132.494 119.863 132.383C119.626 132.271 119.416 132.11 119.247 131.911C119.078 131.712 118.953 131.479 118.881 131.227C118.809 130.976 118.791 130.712 118.83 130.453C118.877 129.897 119.124 129.378 119.525 128.99C119.927 128.603 120.455 128.375 121.012 128.348C121.274 128.351 121.532 128.41 121.769 128.521C122.006 128.633 122.217 128.794 122.386 128.993C122.556 129.193 122.681 129.426 122.752 129.678C122.824 129.93 122.84 130.194 122.801 130.453Z" fill="white"/>
<path opacity="0.3" d="M164.587 175.245H108.614L110.773 150.955H166.746L164.587 175.245Z" fill="#407BFF"/>
<path opacity="0.5" d="M147.86 155.184H143.453C143.328 155.186 143.205 155.162 143.091 155.113C142.976 155.064 142.874 154.991 142.79 154.898C142.707 154.806 142.644 154.697 142.606 154.579C142.568 154.46 142.556 154.335 142.57 154.212C142.598 153.949 142.72 153.707 142.915 153.529C143.109 153.351 143.362 153.25 143.626 153.246H148.015C148.139 153.243 148.262 153.267 148.375 153.316C148.489 153.365 148.591 153.437 148.675 153.529C148.758 153.62 148.821 153.728 148.86 153.846C148.898 153.964 148.911 154.089 148.897 154.212V154.212C148.872 154.472 148.752 154.714 148.561 154.893C148.37 155.071 148.121 155.175 147.86 155.184V155.184Z" fill="white"/>
<path opacity="0.5" d="M159.99 158.309H143.197C143.072 158.311 142.948 158.287 142.834 158.238C142.719 158.189 142.616 158.115 142.532 158.024C142.448 157.932 142.385 157.823 142.346 157.704C142.307 157.586 142.294 157.46 142.308 157.336V157.336C142.336 157.073 142.459 156.828 142.654 156.649C142.85 156.47 143.104 156.369 143.369 156.364H160.151C160.275 156.362 160.399 156.386 160.514 156.435C160.628 156.484 160.731 156.557 160.815 156.649C160.899 156.741 160.962 156.85 161.001 156.969C161.04 157.087 161.053 157.213 161.039 157.336C161.012 157.598 160.89 157.841 160.697 158.02C160.504 158.199 160.253 158.301 159.99 158.309V158.309Z" fill="white"/>
<path opacity="0.3" d="M136.899 172.955H111.459L113.212 153.245H138.652L136.899 172.955Z" fill="#407BFF"/>
<path opacity="0.5" d="M111.846 168.607L119.342 163.097L123.278 166.21L131.58 160.265L137.525 165.888L136.899 172.955H111.459L111.846 168.607Z" fill="white"/>
<path opacity="0.5" d="M120.368 157.885C120.321 158.441 120.074 158.961 119.672 159.348C119.271 159.735 118.743 159.963 118.185 159.99C117.924 159.987 117.665 159.928 117.428 159.817C117.191 159.705 116.981 159.545 116.811 159.345C116.642 159.146 116.517 158.912 116.446 158.66C116.374 158.408 116.357 158.144 116.396 157.885C116.442 157.329 116.689 156.81 117.091 156.423C117.493 156.037 118.022 155.81 118.579 155.786C118.84 155.789 119.098 155.848 119.334 155.959C119.571 156.07 119.781 156.23 119.95 156.429C120.12 156.628 120.245 156.861 120.317 157.112C120.389 157.363 120.406 157.627 120.368 157.885Z" fill="white"/>
<path opacity="0.2" d="M158.958 118.52C142.451 110.279 116.331 126.499 115.568 126.779C112.938 127.757 109.878 126.446 107.111 124.472L109.258 99.8961L110.511 99.8186C110.511 99.8186 145.928 108.525 158.958 118.52Z" fill="black"/>
<path d="M72.7976 92.1974C72.7976 92.1974 76.6142 94.4933 78.6836 95.4892C79.8763 96.0438 84.2415 95.2388 87.7838 97.5108C91.2009 99.6994 90.8192 101.9 92.2624 103.844C96.6336 109.736 105.978 109.545 105.978 109.545C105.978 109.545 145.755 102.067 166.156 125.819C166.156 125.819 151.056 96.3539 72.7976 92.1974Z" fill="#407BFF"/>
<path opacity="0.4" d="M72.7976 92.1974C72.7976 92.1974 76.6142 94.4933 78.6836 95.4892C79.8763 96.0438 84.2415 95.2388 87.7838 97.5108C91.2009 99.6994 90.8192 101.9 92.2624 103.844C96.6336 109.736 105.978 109.545 105.978 109.545C105.978 109.545 145.755 102.067 166.156 125.819C166.156 125.819 151.056 96.3539 72.7976 92.1974Z" fill="white"/>
<path d="M76.3577 95.0419C76.992 94.3501 77.728 93.7589 78.5403 93.2886C79.4438 92.9305 80.4017 92.7289 81.3729 92.6923L81.8321 95.8231C81.1167 96.3854 80.3523 96.8823 79.5481 97.308C78.7431 97.6479 76.9182 97.4929 76.9182 97.4929L76.3577 95.0419Z" fill="#EBB376"/>
<path d="M58.032 87.9215C58.032 87.9215 62.1289 93.8134 63.6854 94.8391C65.2419 95.8649 76.3578 95.0419 76.3578 95.0419L76.9183 97.4631C76.9183 97.4631 65.5162 99.5443 63.1188 98.2681C60.7215 96.992 54.7163 90.3427 54.7163 90.3427L58.032 87.9215Z" fill="#EBB376"/>
<path opacity="0.2" d="M76.3577 95.0419C76.992 94.3501 77.728 93.7589 78.5403 93.2886C79.4438 92.9305 80.4017 92.7289 81.3729 92.6923L81.8321 95.8231C81.1167 96.3854 80.3523 96.8823 79.5481 97.308C78.7431 97.6479 76.9182 97.4929 76.9182 97.4929L76.3577 95.0419Z" fill="black"/>
<path opacity="0.2" d="M58.032 87.9215C58.032 87.9215 62.1289 93.8134 63.6854 94.8391C65.2419 95.8649 76.3578 95.0419 76.3578 95.0419L76.9183 97.4631C76.9183 97.4631 65.5162 99.5443 63.1188 98.2681C60.7215 96.992 54.7163 90.3427 54.7163 90.3427L58.032 87.9215Z" fill="black"/>
<path d="M72.07 73.7285C72.0302 73.7289 71.9918 73.7139 71.9627 73.6868C71.9484 73.6734 71.937 73.6572 71.9293 73.6393C71.9215 73.6213 71.9175 73.602 71.9175 73.5824C71.9175 73.5628 71.9215 73.5435 71.9293 73.5255C71.937 73.5076 71.9484 73.4914 71.9627 73.478C72.2133 73.2553 72.513 73.0949 72.8374 73.0099C73.1617 72.925 73.5016 72.9178 73.8292 72.989C73.8485 72.9933 73.8667 73.0013 73.8828 73.0126C73.8989 73.0239 73.9126 73.0382 73.9232 73.0549C73.9337 73.0715 73.9408 73.0901 73.9442 73.1095C73.9475 73.1289 73.9469 73.1488 73.9425 73.1679C73.9327 73.2048 73.9096 73.2367 73.8777 73.2576C73.8458 73.2785 73.8073 73.2869 73.7696 73.2812C73.4908 73.2238 73.2026 73.2304 72.9268 73.3007C72.6509 73.3709 72.3947 73.503 72.1773 73.6868C72.1483 73.7139 72.1098 73.7289 72.07 73.7285V73.7285Z" fill="#263238"/>
<path d="M72.8392 75.6249C73.1016 76.2294 73.436 76.8 73.8351 77.3245C73.7089 77.475 73.5435 77.5876 73.3571 77.6498C73.1707 77.7119 72.9708 77.7211 72.7795 77.6763L72.8392 75.6249Z" fill="#D58745"/>
<path d="M73.6026 74.6111C73.6026 74.9331 73.3939 75.2074 73.1792 75.1716C72.9645 75.1358 72.8094 74.8854 72.8273 74.5753C72.8452 74.2652 73.036 74.0087 73.2507 74.0207C73.4654 74.0326 73.6205 74.295 73.6026 74.6111Z" fill="#263238"/>
<path d="M73.1611 74.0207L73.8708 73.7941C73.8708 73.7941 73.4891 74.3546 73.1611 74.0207Z" fill="#263238"/>
<path d="M64.1029 80.5626C64.1346 80.6043 64.1729 80.6405 64.2162 80.6699C64.7514 81.2128 65.3902 81.6427 66.0947 81.9342C68.1581 82.7213 69.6728 82.6319 70.7403 81.797C72.2729 80.5327 72.9587 78.0162 73.1972 74.8973C73.3337 73.6611 73.2733 72.4112 73.0183 71.1939C73.0183 71.1939 73.0183 71.1462 73.0183 71.1343C73.0183 71.1224 73.0183 71.0389 73.0183 70.9972C72.8437 70.311 72.5009 69.6791 72.0209 69.1585C71.541 68.6379 70.9389 68.2451 70.2691 68.0154C69.6901 67.8014 69.0906 67.6475 68.4801 67.5562C62.4152 66.6438 59.9643 76.4835 64.1029 80.5626Z" fill="#EBB376"/>
<path opacity="0.2" d="M64.2161 80.6699C64.7605 81.1893 65.4032 81.5948 66.1065 81.8626C68.1698 82.6498 69.6846 82.4589 70.764 81.6419C69.4459 81.7789 68.1189 81.4838 66.9831 80.8011C66.5623 80.5701 66.0943 80.4383 65.6148 80.4155C65.1352 80.3928 64.6569 80.4798 64.2161 80.6699Z" fill="black"/>
<path d="M66.2855 65.6419C66.2855 65.6419 70.4599 65.1768 72.4696 67.109C74.8132 69.3631 75.5289 71.4563 72.0223 74.0743C72.0223 74.0743 65.552 70.9435 63.2381 71.0925C61.8841 71.1797 60.5397 71.3792 59.2188 71.6889C59.3678 67.1507 64.1386 64.3956 66.2855 65.6419Z" fill="#263238"/>
<path d="M67.156 82.1787C66.7972 82.3383 66.4779 82.5748 66.2206 82.8716C65.9634 83.1683 65.7746 83.518 65.6676 83.8959C65.5607 84.2737 65.5381 84.6705 65.6016 85.058C65.665 85.4456 65.813 85.8144 66.0349 86.1384L57.3223 83.6994C57.3223 83.6994 61.455 81.9103 61.7889 78.9882C61.7889 78.9882 66.3689 78.6185 67.156 82.1787Z" fill="#EBB376"/>
<path d="M67.1561 66.6439C67.1561 66.6439 66.1304 59.7978 60.8646 59.9589C55.5989 60.1199 54.9667 65.6182 58.2645 67.9797C61.5623 70.3413 66.7625 70.6514 67.1561 66.6439Z" fill="#263238"/>
<path d="M59.6838 68.1347C59.6838 68.1347 55.2231 67.27 55.0562 71.2059C55.4325 70.52 56.0416 69.9912 56.7736 69.715C56.7736 69.715 55.2291 70.4963 56.2369 72.5417C56.2369 72.5417 55.9149 71.2715 57.9127 70.8004C59.9104 70.3293 64.9496 71.361 64.4725 68.6893C63.9954 66.0177 59.6838 68.1347 59.6838 68.1347Z" fill="#263238"/>
<path d="M66.3688 66.6319C66.3495 66.6312 66.3305 66.6266 66.313 66.6183C66.2956 66.61 66.2799 66.5982 66.2671 66.5837C66.2543 66.5693 66.2445 66.5523 66.2384 66.5339C66.2324 66.5156 66.2301 66.4962 66.2317 66.4769C66.2317 66.4351 66.3987 62.4933 64.2399 60.3584C63.7009 59.851 63.0578 59.4671 62.3555 59.2334C61.6532 58.9996 60.9083 58.9215 60.1728 59.0047C60.1342 59.0063 60.0965 58.9929 60.0676 58.9674C60.0387 58.9418 60.0208 58.906 60.0177 58.8675C60.016 58.8283 60.0291 58.7899 60.0546 58.76C60.0801 58.7301 60.1159 58.711 60.1549 58.7065C60.9325 58.6195 61.7198 58.7036 62.4615 58.9529C63.2032 59.2022 63.8814 59.6106 64.4486 60.1496C66.7028 62.374 66.5358 66.3278 66.5299 66.4948C66.5283 66.5144 66.523 66.5335 66.5141 66.551C66.5051 66.5685 66.4929 66.5841 66.4779 66.5969C66.4629 66.6096 66.4456 66.6193 66.4269 66.6253C66.4082 66.6313 66.3884 66.6336 66.3688 66.6319Z" fill="#263238"/>
<path d="M61.6936 77.6703C61.6647 77.6803 61.6332 77.6803 61.6042 77.6703C61.5624 77.6405 57.3701 74.3725 58.9027 70.7765C58.9088 70.7567 58.9189 70.7383 58.9325 70.7225C58.9461 70.7068 58.9628 70.6941 58.9816 70.6852C59.0004 70.6763 59.0208 70.6715 59.0416 70.6709C59.0624 70.6704 59.0831 70.6743 59.1023 70.6822C59.1215 70.6901 59.1388 70.702 59.1532 70.717C59.1675 70.732 59.1786 70.7499 59.1856 70.7695C59.1927 70.789 59.1955 70.8098 59.1941 70.8306C59.1926 70.8513 59.1868 70.8715 59.1771 70.8899C57.7339 74.2771 61.7473 77.402 61.7831 77.4497C61.8095 77.4792 61.8241 77.5174 61.8241 77.557C61.8241 77.5966 61.8095 77.6348 61.7831 77.6644C61.7546 77.6755 61.7234 77.6776 61.6936 77.6703V77.6703Z" fill="#263238"/>
<path d="M54.3347 70.0847H54.2869C54.2501 70.0724 54.2195 70.0462 54.2017 70.0117C54.1838 69.9772 54.1802 69.937 54.1915 69.8999C55.0861 67.1209 59.2068 67.9319 59.2486 67.9379C59.2877 67.9465 59.322 67.9699 59.3442 68.0033C59.3665 68.0367 59.3749 68.0773 59.3678 68.1168C59.3636 68.136 59.3556 68.1542 59.3443 68.1703C59.333 68.1865 59.3186 68.2002 59.302 68.2107C59.2854 68.2213 59.2668 68.2284 59.2474 68.2317C59.228 68.235 59.2081 68.2345 59.1889 68.2301C59.1531 68.2301 55.2888 67.4668 54.4778 70.0191C54.4624 70.0423 54.4409 70.0608 54.4156 70.0724C54.3903 70.084 54.3623 70.0882 54.3347 70.0847Z" fill="#263238"/>
<path d="M73.03 71.1522C73.03 71.1522 72.7796 75.4281 68.5217 76.6923C68.5217 76.6923 66.1959 80.8668 63.6555 80.5626C60.1847 80.169 57.8232 74.8317 59.7076 69.9953C62.1527 63.7158 72.058 64.5447 73.03 71.1522Z" fill="#263238"/>
<path d="M70.6985 75.7561C70.7879 75.0941 70.4122 73.9133 69.3686 73.9253C68.325 73.9372 67.3351 76.4717 69.8636 77.4139C70.2452 77.5511 70.5315 77.1336 70.6985 75.7561Z" fill="#EBB376"/>
<path d="M75.8567 196.54L78.6834 195.765C77.6517 181.5 74.8489 164.29 72.4695 151.385C72.0997 149.363 71.7419 147.449 71.3901 145.666C71.2291 144.819 71.0681 144.008 70.913 143.221C70.1616 139.356 69.5235 136.297 69.124 134.413C68.8317 133.035 68.6648 132.278 68.6648 132.278L58.5269 135.224L59.3737 137.788L62.1705 146.25L62.4866 147.216L64.3353 152.804L67.478 162.31C67.8895 176.861 75.8567 196.54 75.8567 196.54Z" fill="#EBB376"/>
<path d="M51.1918 195.849L54.1139 195.568C55.6406 180.099 55.7002 160.837 55.4915 147.455C55.4557 145.38 55.4199 143.442 55.3782 141.688C55.3782 141.599 55.3782 141.515 55.3782 141.432C55.2887 137.943 55.1993 135.176 55.1337 133.423L55.0502 131.294L44.5247 132.487L45.1806 136.864L46.1348 143.298L46.3256 144.557L46.9816 148.946L48.7408 160.7C46.6894 175.096 51.1918 195.849 51.1918 195.849Z" fill="#EBB376"/>
<path opacity="0.2" d="M46.1287 143.286L55.3781 141.688C55.3781 141.599 55.3781 141.515 55.3781 141.432C55.2886 137.943 55.1992 135.176 55.1336 133.423L45.1746 136.852L46.1287 143.286Z" fill="black"/>
<path opacity="0.2" d="M70.1497 139.357L60.4173 141.008L59.3499 137.788L69.124 134.413C69.3804 135.612 69.7323 137.293 70.1497 139.357Z" fill="black"/>
<path d="M44.9302 104.685C44.9302 104.685 38.6208 119.433 44.5187 140.812L56.0163 139.5V134.413L57.8053 139.046L70.0364 136.78C66.4941 119.433 63.2977 111.561 63.2977 111.561L62.4389 102.83L44.9302 104.685Z" fill="#407BFF"/>
<path d="M49.8262 195.252C49.8262 194.888 54.3466 195.175 54.3466 195.175C54.3466 195.175 57.1196 197.995 59.8151 198.628C62.5106 199.26 61.0078 200.882 57.9962 200.882H50.5419C48.3771 200.882 49.7129 199.057 49.8262 195.252Z" fill="#263238"/>
<path d="M56.6962 196.326C56.0438 196.238 55.4119 196.036 54.8296 195.729C54.8131 195.721 54.7988 195.709 54.7879 195.694V195.694C54.7787 195.664 54.7787 195.633 54.7879 195.604C54.7879 195.556 55.1874 194.507 55.7957 194.25C55.8892 194.208 55.991 194.185 56.0939 194.185C56.1968 194.185 56.2985 194.208 56.392 194.25C56.5948 194.346 56.6962 194.477 56.6902 194.626C56.6843 194.775 56.3563 195.103 55.9865 195.3C56.3279 195.241 56.6788 195.278 57.0003 195.407C57.0593 195.44 57.1109 195.484 57.152 195.537C57.193 195.591 57.2226 195.652 57.2389 195.717C57.27 195.799 57.2764 195.887 57.2573 195.972C57.2382 196.057 57.1944 196.134 57.1315 196.194C57.0094 196.294 56.8529 196.341 56.6962 196.326ZM55.2411 195.682C55.903 195.962 56.732 196.212 56.9407 196.033C56.9407 196.033 57.0182 195.974 56.9407 195.801C56.9338 195.766 56.919 195.733 56.8972 195.705C56.8755 195.678 56.8475 195.655 56.8155 195.64C56.2964 195.512 55.7527 195.527 55.2411 195.682V195.682ZM56.0462 194.441C55.9829 194.442 55.9203 194.454 55.8613 194.477C55.5086 194.712 55.2392 195.052 55.092 195.449C55.7599 195.193 56.404 194.853 56.4159 194.638C56.4159 194.578 56.3145 194.519 56.2549 194.489C56.1903 194.456 56.1186 194.44 56.0462 194.441V194.441Z" fill="#407BFF"/>
<path d="M75.0518 195.252C75.0518 194.888 79.5721 195.175 79.5721 195.175C79.5721 195.175 82.3451 197.995 85.0406 198.628C87.7361 199.26 86.2333 200.882 83.2158 200.882H75.7674C73.6265 200.882 74.9623 199.057 75.0518 195.252Z" fill="#263238"/>
<path d="M81.9453 196.326C81.2912 196.237 80.6576 196.035 80.0728 195.729C80.0728 195.729 80.043 195.729 80.037 195.694C80.031 195.679 80.0278 195.664 80.0278 195.649C80.0278 195.633 80.031 195.618 80.037 195.604C80.037 195.556 80.4306 194.507 81.0449 194.25C81.1384 194.208 81.2401 194.185 81.343 194.185C81.4459 194.185 81.5477 194.208 81.6412 194.25C81.844 194.346 81.9453 194.477 81.9334 194.626C81.9215 194.775 81.5995 195.103 81.2357 195.3C81.5751 195.241 81.9241 195.278 82.2435 195.407C82.3032 195.44 82.3556 195.484 82.3976 195.537C82.4396 195.591 82.4704 195.652 82.488 195.717C82.5192 195.799 82.5256 195.887 82.5065 195.972C82.4874 196.057 82.4436 196.134 82.3807 196.194C82.2569 196.291 82.1017 196.337 81.9453 196.326V196.326ZM80.4903 195.682C81.1522 195.962 81.9811 196.212 82.1898 196.033C82.1898 196.033 82.2674 195.974 82.1898 195.801C82.1811 195.767 82.1655 195.735 82.1439 195.707C82.1224 195.68 82.0954 195.657 82.0646 195.64C81.5456 195.512 81.0018 195.527 80.4903 195.682V195.682ZM81.2953 194.441C81.2321 194.442 81.1695 194.454 81.1105 194.477C80.7561 194.711 80.4847 195.051 80.3352 195.449C81.0031 195.193 81.6531 194.853 81.6651 194.638C81.6651 194.578 81.5637 194.519 81.504 194.489C81.4392 194.457 81.3677 194.44 81.2953 194.441V194.441Z" fill="#407BFF"/>
<path opacity="0.2" d="M56.0162 134.407V137.418C44.0057 132.397 46.9815 120.393 46.9815 120.393C47.7508 125.002 53.0285 126.714 53.0285 126.714L56.0162 134.407Z" fill="black"/>
<path d="M48.8303 108.036L58.5269 109.05V106.85L49.1166 105.913C49.039 106.45 48.9257 107.333 48.8303 108.036Z" fill="#263238"/>
<path d="M59.2844 106.921V109.128L63.2978 109.545V107.321L59.2844 106.921Z" fill="#263238"/>
<path d="M48.3413 105.842L44.2682 105.436L43.7554 107.506L47.9596 107.941L48.3413 105.842Z" fill="#263238"/>
<path opacity="0.2" d="M50.0469 112.968H55.0502L55.581 117.948L52.8139 120.1L50.0469 118.389V112.968Z" fill="black"/>
<path opacity="0.2" d="M45.2104 112.151L44.9361 117.948L43.1471 120.393C43.1471 120.393 42.5507 119.886 42.0796 119.373C42.2028 116.951 42.4797 114.538 42.9085 112.151H45.2104Z" fill="black"/>
<path d="M89.6145 103.116C90.3842 102.579 91.2306 102.161 92.1251 101.876C93.0862 101.711 94.0683 101.711 95.0293 101.876L94.8027 105.031C93.9831 105.428 93.1287 105.749 92.2504 105.991C91.3857 106.146 89.6443 105.597 89.6443 105.597L89.6145 103.116Z" fill="#EBB376"/>
<path d="M56.9824 138.343C56.9824 138.343 57.221 139.995 57.6145 139.679C58.0081 139.363 70.5076 137.407 70.5076 137.407V135.749L56.9824 138.343Z" fill="#407BFF"/>
<path opacity="0.7" d="M56.9824 138.343C56.9824 138.343 57.221 139.995 57.6145 139.679C58.0081 139.363 70.5076 137.407 70.5076 137.407V135.749L56.9824 138.343Z" fill="white"/>
<path d="M44.137 140.513C44.137 140.513 44.3516 142.177 44.7035 141.873C45.0553 141.569 56.2667 140.013 56.2667 140.013V138.343L44.137 140.513Z" fill="#407BFF"/>
<path opacity="0.7" d="M44.137 140.513C44.137 140.513 44.3516 142.177 44.7035 141.873C45.0553 141.569 56.2667 140.013 56.2667 140.013V138.343L44.137 140.513Z" fill="white"/>
<path d="M44.9302 104.685L62.8206 106.689L71.7062 86.6573C71.7062 86.6573 65.5161 81.326 54.0603 83.0792C54.0543 83.0554 49.9455 84.8802 44.9302 104.685Z" fill="#263238"/>
<path d="M73.2627 92.1974C73.2627 92.1974 75.994 98.8407 77.2881 100.177C78.5821 101.512 89.6146 103.117 89.6146 103.117L89.6444 105.597C89.6444 105.597 78.0573 105.168 75.994 103.403C73.9306 101.638 69.4998 93.8612 69.4998 93.8612L73.2627 92.1974Z" fill="#EBB376"/>
<path d="M71.7002 86.6572C73.0301 88.0706 74.4971 94.4873 74.4971 94.4873H68.1281L66.0349 91.0285C66.7809 89.9257 67.7375 88.9813 68.8497 88.2495C69.7409 87.6194 70.6964 87.0857 71.7002 86.6572V86.6572Z" fill="#263238"/>
</svg>
